<?xml version='1.0' encoding='utf-8'?>
<svg xmlns="http://www.w3.org/2000/svg" width="1920" height="1080" viewBox="0 0 1920 1080" data-theme="dark">
  <style>
        @font-face {
            font-family: 'Inter';
            src: url('assets/fonts/Inter-Regular.ttf') format('truetype');
            font-weight: 400;
            font-style: normal;
            font-display: swap;
        }
        @font-face {
            font-family: 'Inter';
            src: url('assets/fonts/Inter-Bold.ttf') format('truetype');
            font-weight: 600;
            font-style: normal;
            font-display: swap;
        }
        @font-face {
            font-family: 'Inter';
            src: url('assets/fonts/Inter-Bold.ttf') format('truetype');
            font-weight: 800;
            font-style: normal;
            font-display: swap;
        }
        
:root {
    --background: #0f172a;
    --panel: #1e293b;
    --primary-text: #f1f5f9;
    --muted-text: #94a3b8;
    --inverse-text: #0f172a;
    --border: #334155;
    --shadow-color: #000000;
    --icon-pad-bg: #1e293b;
    --art-glow: #7dd3fc;
    --art-glow-opacity: 0.18;
    --art-sheen: #ffffff;
    --art-sheen-opacity: 0.18;
    --art-shadow: #000000;
    --art-shadow-opacity: 0.28;
    --art-muted-line: #64748b;
    --art-panel-tint: #1e293b;
    --font-family: 'Inter', 'Segoe UI', 'Kalam', Roboto, Helvetica, Arial, sans-serif;
    --radius-xl: 16px;
    --font-family-headline: 'Inter', 'Segoe UI', 'Kalam', Roboto, Helvetica, Arial, sans-serif;
    --font-family-body: 'Inter', 'Segoe UI', 'Kalam', Roboto, Helvetica, Arial, sans-serif;
    --font-heading: 'Inter', 'Segoe UI', 'Kalam', Roboto, Helvetica, Arial, sans-serif;
    --font-body: 'Inter', 'Segoe UI', 'Kalam', Roboto, Helvetica, Arial, sans-serif;
    --font-size-h1: 56px;
    --font-size-h2: 40px;
    --font-size-h3: 28px;
    --font-size-body: 24px;
    --font-size-caption: 18px;
    --secondary-text: var(--muted-text);
    --panel-border: var(--border);
    --font-weight-normal: 400;
    --font-weight-medium: 500;
    --font-weight-semibold: 600;
    --font-weight-bold: 700;
    --spacing-gutter-pct: 0.07;
    --spacing-top-pct: 0.15;
    --spacing-bottom-pct: 0.07;
    --spacing-title-y-pct: 0.055;
    --accent-1: #93c5fd;
    --accent-2: #86efac;
    --accent-3: #fcd34d;
    --accent-4: #f9a8d4;
    --accent-5: #c4b5fd;
    --accent-6: #a5f3fc;
}
:root[data-theme="dark"] {
    --background: #0f172a;
    --panel: #1e293b;
    --primary-text: #f1f5f9;
    --muted-text: #94a3b8;
    --inverse-text: #0f172a;
    --border: #334155;
    --shadow-color: #000000;
    --icon-pad-bg: #1e293b;
    --art-glow: #7dd3fc;
    --art-glow-opacity: 0.18;
    --art-sheen: #ffffff;
    --art-sheen-opacity: 0.18;
    --art-shadow: #000000;
    --art-shadow-opacity: 0.28;
    --art-muted-line: #64748b;
    --art-panel-tint: #1e293b;
    --accent-1: #93c5fd;
    --accent-2: #86efac;
    --accent-3: #fcd34d;
    --accent-4: #f9a8d4;
    --accent-5: #c4b5fd;
    --accent-6: #a5f3fc;
}
:root[data-theme="light"] {
    --background: #f8fafc;
    --panel: #ffffff;
    --primary-text: #0f172a;
    --muted-text: #64748b;
    --inverse-text: #ffffff;
    --border: #e2e8f0;
    --shadow-color: #000000;
    --icon-pad-bg: #1e293b;
    --art-glow: #0891b2;
    --art-glow-opacity: 0.10;
    --art-sheen: #ffffff;
    --art-sheen-opacity: 0.34;
    --art-shadow: #0f172a;
    --art-shadow-opacity: 0.14;
    --art-muted-line: #94a3b8;
    --art-panel-tint: #f1f5f9;
    --accent-1: #3b82f6;
    --accent-2: #22c55e;
    --accent-3: #f59e0b;
    --accent-4: #ec4899;
    --accent-5: #8b5cf6;
    --accent-6: #06b6d4;
}</style>
  <rect x="0" y="0" width="1.92E+3" height="1.08E+3" fill="#252a34" stroke="none" id="programmatic_background"/>
  <line id="HEADER_DECOR" x1="960.0" x2="1080.0" y1="135.0" y2="135.0" stroke="var(--accent-1)" stroke-width="6" stroke-linecap="round"/>
  <defs>
    <pattern id="svg82ff7c38-napkin-hatch" patternUnits="userSpaceOnUse" width="12" height="12">
      <path d="M -3 12 L 12 -3 M 0 15 L 15 0" fill="none" stroke="var(--primary-text)" stroke-width="1" stroke-opacity="0.05"/>
    </pattern>
    <filter id="svg82ff7c38-soft-shadow" x="-30%" y="-30%" width="160%" height="160%">
      <feDropShadow dx="0" dy="3" stdDeviation="6" flood-color="#000000" flood-opacity="0.20"/>
    </filter>
    <radialGradient id="svg82ff7c38-universal-edge-vignette" cx="50%" cy="50%" r="72%">
      <stop offset="0%" stop-color="var(--background)" stop-opacity="0"/>
      <stop offset="72%" stop-color="var(--background)" stop-opacity="0.12"/>
      <stop offset="100%" stop-color="var(--primary-text)" stop-opacity="0.08"/>
    </radialGradient>
    <linearGradient id="svg82ff7c38-universal-surface-sheen" x1="0%" y1="0%" x2="100%" y2="100%">
      <stop offset="0%" stop-color="var(--art-sheen)" stop-opacity="var(--art-sheen-opacity)"/>
      <stop offset="46%" stop-color="var(--art-sheen)" stop-opacity="0.035"/>
      <stop offset="100%" stop-color="var(--art-panel-tint)" stop-opacity="0.14"/>
    </linearGradient>
    <radialGradient id="svg82ff7c38-universal-icon-aura" cx="50%" cy="42%" r="64%">
      <stop offset="0%" stop-color="var(--art-glow)" stop-opacity="var(--art-glow-opacity)"/>
      <stop offset="100%" stop-color="var(--background)" stop-opacity="0"/>
    </radialGradient>
    <filter id="svg82ff7c38-text-glow" x="-20%" y="-20%" width="140%" height="140%">
      <feDropShadow dx="0" dy="0" stdDeviation="2" flood-color="#000000" flood-opacity="0.4"/>
    </filter>
    <filter id="svg82ff7c38-shadow" x="-30%" y="-30%" width="160%" height="160%">
      <feDropShadow dx="0" dy="2" stdDeviation="3" flood-color="#000000" flood-opacity="0.08"/>
      <feDropShadow dx="0" dy="6" stdDeviation="10" flood-color="#000000" flood-opacity="0.12"/>
    </filter>
    <marker id="svg82ff7c38-arrowhead" markerWidth="10" markerHeight="7" refX="9" refY="3.5" orient="auto" markerUnits="strokeWidth">
      <polygon points="0 0, 10 3.5, 0 7" fill="var(--muted-text)" opacity="0.6"/>
    </marker>
  </defs>
  <rect id="CANVAS_BG" width="100%" height="100%" fill="var(--background)"/>
  <rect width="100%" height="100%" fill="url(#svg82ff7c38-napkin-hatch)"/>
  <rect id="UNIVERSAL_EDGE_VIGNETTE" width="100%" height="100%" fill="url(#svg82ff7c38-universal-edge-vignette)" opacity="0.62"/>
  <text id="TITLE" x="960.0" y="59" text-anchor="middle" font-size="56" font-weight="800" fill="#f1f5f9" style="font-size: 60px; font-family: Inter, Segoe UI, Kalam, Roboto, Helvetica, Arial, sans-serif; font-weight: 700; letter-spacing:-1.2px;" data-final-font-size="60">
    <tspan x="960.0" dy="68.00px">Domestic Fallout in Close Encounters</tspan>
  </text>
  <rect id="TITLE_FRAME" x="134" y="59" width="1652" height="103" fill="none"/>
  <line x1="687.0" y1="434.0" x2="768.0" y2="434.0" stroke="var(--muted-text)" stroke-width="4" stroke-dasharray="10 9" opacity="0.8"/>
  <circle cx="727.5" cy="434.0" r="34" fill="var(--panel)" stroke="var(--muted-text)" stroke-width="2"/>
  <text x="727.5" y="444.0" text-anchor="middle" font-size="34" font-weight="900" fill="var(--muted-text)">VS</text>
  <line x1="1152.0" y1="434.0" x2="1233.0" y2="434.0" stroke="var(--muted-text)" stroke-width="4" stroke-dasharray="10 9" opacity="0.8"/>
  <circle cx="1192.5" cy="434.0" r="34" fill="var(--panel)" stroke="var(--muted-text)" stroke-width="2"/>
  <text x="1192.5" y="444.0" text-anchor="middle" font-size="34" font-weight="900" fill="var(--muted-text)">VS</text>
  <line x1="882.0" y1="824.0" x2="1038.0" y2="824.0" stroke="var(--muted-text)" stroke-width="4" stroke-dasharray="10 9" opacity="0.8"/>
  <circle cx="960.0" cy="824.0" r="34" fill="var(--panel)" stroke="var(--muted-text)" stroke-width="2"/>
  <text x="960.0" y="834.0" text-anchor="middle" font-size="34" font-weight="900" fill="var(--muted-text)">VS</text>
  <g transform="translate(495.0, 280.0)" filter="url(#svg82ff7c38-soft-shadow)">
    <rect id="ITEM_1_BG" x="-200.0" y="0" width="400.0" height="360" rx="26" fill="var(--panel)" fill-opacity="0.95" stroke="var(--accent-1)" stroke-width="3"/>
    <rect x="-184.0" y="12" width="368.0" height="8" rx="4" fill="var(--accent-1)" fill-opacity="0.55"/>
    <circle id="ITEM_1_PAD" cx="0" cy="74" r="46" fill="var(--icon-pad-bg)" stroke="var(--primary-text)" opacity="0.9" fill-opacity="0.9" stroke-width="2"/>
    <circle id="ITEM_1_PAD_INNER" cx="0" cy="74" r="35.88" fill="var(--accent-3)" fill-opacity="0.22"/>
    <circle cx="0" cy="74" r="36" fill="none" stroke="var(--accent-1)" stroke-width="3" stroke-dasharray="6 4"/>
    <g id="ITEM_1_ICON" transform="translate(-34, 40)" data-icon-size="68" stroke-dasharray="6 4">
      <g transform="translate(-6.044642857142861,-7.005714285714289) scale(2.562857142857143)">
        <path d="M17.9119 2H13.2619C13.0519 2 12.8419 2.09001 12.7119 2.26001L10.8219 4.51999C10.6419 4.72999 10.6019 5.03 10.7219 5.28L12.7419 9.76001C12.8619 10.02 13.1119 10.19 13.4019 10.19H17.7919C18.0719 10.19 18.3319 10.02 18.4519 9.76001L20.4719 5.28C20.5819 5.03 20.5419 4.72999 20.3719 4.51999L18.4819 2.26001C18.3319 2.10001 18.1319 2 17.9119 2Z" fill="#00A6ED"/>
        <path d="M20.5019 4.82999C20.4819 4.71999 20.4319 4.60999 20.3519 4.51999L18.4619 2.26001C18.3219 2.10001 18.1219 2 17.9119 2H13.2619C13.0519 2 12.8419 2.09001 12.7119 2.26001L10.8219 4.51999C10.7419 4.60999 10.6919 4.71999 10.6719 4.82999H20.5019Z" fill="#26EAFC"/>
        <path d="M19.2119 8.53009V8.1001H11.9819V8.53009C11.9819 9.07009 11.6619 9.55008 11.1819 9.77008C7.3919 11.5101 4.8019 15.4201 5.0119 19.9001C5.2719 25.4601 9.8619 29.9101 15.4219 30.0001C21.3419 30.1001 26.1919 25.3001 26.1919 19.4001C26.1919 15.1301 23.6519 11.4401 20.0019 9.7601C19.5219 9.5401 19.2119 9.06009 19.2119 8.53009ZM15.5919 26.9301C11.4419 26.9301 8.0619 23.5501 8.0619 19.4001C8.0619 15.2501 11.4419 11.8701 15.5919 11.8701C19.7419 11.8701 23.1219 15.2501 23.1219 19.4001C23.1219 23.5501 19.7419 26.9301 15.5919 26.9301Z" fill="#B4ACBC"/>
      </g>
    </g>
    <text id="ITEM_1_HEAD" x="0.0" y="138.0" text-anchor="middle" font-size="44" font-weight="800" fill="var(--accent-3)" data-bg-id="ITEM_1_BG" fill-opacity="1.0" stroke="none" style="font-size: 30px; font-family: Inter, Segoe UI, Kalam, Roboto, Helvetica, Arial, sans-serif; font-weight: 700; letter-spacing:-0.4px;" data-final-font-size="30">
      <tspan x="0.0" dy="42.25px">Spousal Tension</tspan>
    </text>
    <rect id="ITEM_1_HEAD_FRAME" x="-165.0" y="138" width="330.0" height="68" fill="none"/>
    <text id="ITEM_1_BODY" x="0.0" y="206.0" text-anchor="middle" font-size="27" fill="var(--primary-text)" data-bg-id="ITEM_1_BG" style="font-size: 26px; font-family: Inter, Segoe UI, Kalam, Roboto, Helvetica, Arial, sans-serif; font-weight: 400;" data-final-font-size="26">
      <tspan x="0.0" dy="33.66px">Ronnie experiences marital</tspan>
      <tspan x="0.0" dy="29.90px">strain from Roy's growing</tspan>
      <tspan x="0.0" dy="29.90px">obsession</tspan>
    </text>
    <rect id="ITEM_1_BODY_FRAME" x="-190.0" y="206" width="380" height="154" fill="none"/>
  </g>
  <g transform="translate(960.0, 280.0)" filter="url(#svg82ff7c38-soft-shadow)">
    <rect id="ITEM_2_BG" x="-200.0" y="0" width="400.0" height="360" rx="26" fill="var(--panel)" fill-opacity="0.95" stroke="var(--accent-2)" stroke-width="3"/>
    <rect x="-184.0" y="12" width="368.0" height="8" rx="4" fill="var(--accent-2)" fill-opacity="0.55"/>
    <circle id="ITEM_2_PAD" cx="0" cy="74" r="46" fill="var(--icon-pad-bg)" stroke="var(--primary-text)" opacity="0.9" fill-opacity="0.9" stroke-width="2"/>
    <circle id="ITEM_2_PAD_INNER" cx="0" cy="74" r="35.88" fill="var(--accent-4)" fill-opacity="0.22"/>
    <circle cx="0" cy="74" r="36" fill="none" stroke="var(--accent-2)" stroke-width="3" stroke-dasharray="6 4"/>
    <g id="ITEM_2_ICON" transform="translate(-34, 40)" data-icon-size="68" stroke-dasharray="6 4">
      <g transform="translate(-6.642831858407086,-6.960353982300888) scale(2.540176991150443)">
        <path d="M11.5 7.07031C12.8807 7.07031 14 5.95102 14 4.57031C14 3.1896 12.8807 2.07031 11.5 2.07031C10.1193 2.07031 9.00002 3.1896 9.00002 4.57031C9.00002 5.95102 10.1193 7.07031 11.5 7.07031Z" fill="#D3883E"/>
        <path d="M20.5 7.07031C21.8807 7.07031 23 5.95102 23 4.57031C23 3.1896 21.8807 2.07031 20.5 2.07031C19.1193 2.07031 18 3.1896 18 4.57031C18 5.95102 19.1193 7.07031 20.5 7.07031Z" fill="#D3883E"/>
        <path d="M17.5625 15.561C18.4255 14.1466 20.2717 13.6996 21.686 14.5625L28.5152 18.7293C29.9296 19.5923 30.3766 21.4384 29.5137 22.8528C28.6507 24.2672 26.8046 24.7142 25.3902 23.8512L18.561 19.6844C17.1466 18.8215 16.6996 16.9753 17.5625 15.561Z" fill="#D3883E"/>
        <path d="M3.5981 18.6791C2.16322 19.5075 1.67159 21.3423 2.50002 22.7772C3.32845 24.2121 5.16322 24.7037 6.5981 23.8753L13.5263 19.8753C14.9612 19.0468 15.4528 17.2121 14.6244 15.7772C13.7959 14.3423 11.9612 13.8507 10.5263 14.6791L3.5981 18.6791Z" fill="#D3883E"/>
        <path d="M24 10.152C24 14.5703 20.4183 16.0703 16 16.0703C11.5817 16.0703 8 14.5703 8 10.152C8 5.73376 12.5 2.57031 16 2.57031C19.5 2.57031 24 5.73376 24 10.152Z" fill="#E19747"/>
        <path d="M24 10.152C24 14.5703 20.4183 16.0703 16 16.0703C11.5817 16.0703 8 14.5703 8 10.152C8 5.73376 12.5 2.57031 16 2.57031C19.5 2.57031 24 5.73376 24 10.152Z" fill="#FF822D"/>
        <path d="M21.2306 15.017C22.9268 14.1147 24 12.5706 24 10.152C24 5.73376 19.5 2.57031 16 2.57031C12.5 2.57031 8 5.73376 8 10.152C8 12.5706 9.07322 14.1147 10.7694 15.017C9.07322 16.4839 8 18.6518 8 21.0703C8 25.4886 11.5817 29.0703 16 29.0703C20.4183 29.0703 24 25.4886 24 21.0703C24 18.6518 22.9268 16.4839 21.2306 15.017Z" fill="#E19747"/>
        <path d="M7.54033 22.5206C9.09088 21.3663 11.2835 21.6876 12.4378 23.2381L13.3335 24.4413C14.4877 25.9919 14.1665 28.1845 12.6159 29.3388C11.0654 30.493 8.87271 30.1718 7.71846 28.6212L6.82277 27.418C5.66852 25.8675 5.98979 23.6748 7.54033 22.5206ZM24.4714 22.5206C22.9208 21.3663 20.7282 21.6876 19.5739 23.2381L18.6782 24.4413C17.524 25.9919 17.8453 28.1845 19.3958 29.3388C20.9463 30.493 23.139 30.1718 24.2933 28.6212L25.189 27.418C26.3432 25.8675 26.0219 23.6748 24.4714 22.5206Z" fill="#D3883E"/>
        <path d="M21.856 5.21241C21.9484 5.01777 22 4.80007 22 4.57031C22 3.74189 21.3284 3.07031 20.5 3.07031C20.1042 3.07031 19.7442 3.22361 19.4762 3.47406C20.339 3.91389 21.158 4.50226 21.856 5.21241ZM12.5239 3.47406C12.2558 3.22361 11.8958 3.07031 11.5 3.07031C10.6716 3.07031 10 3.74189 10 4.57031C10 4.80007 10.0517 5.01777 10.144 5.21241C10.842 4.50226 11.661 3.91389 12.5239 3.47406ZM19.5 11.5C19.5 12.8807 17.933 14.5 16 14.5C14.067 14.5 12.5 12.8807 12.5 11.5C12.5 10.1193 14.067 9 16 9C17.933 9 19.5 10.1193 19.5 11.5ZM21 22.0703L20.9998 22.1117C20.4515 22.3466 19.9559 22.7251 19.574 23.2381L18.6783 24.4413C18.1829 25.1067 17.9593 25.8904 17.988 26.6595C17.3787 26.9238 16.7065 27.0703 16 27.0703C15.298 27.0703 14.6298 26.9256 14.0236 26.6645C14.0534 25.8938 13.8299 25.1082 13.3335 24.4413L12.4378 23.2381C12.0532 22.7214 11.5532 22.3412 11.0001 22.1067L11 22.0703C11 19.3089 13.2386 17.0703 16 17.0703C18.7614 17.0703 21 19.3089 21 22.0703ZM11.2639 24.1508C10.6043 23.2648 9.35138 23.0812 8.46535 23.7408C7.57933 24.4003 7.39575 25.6533 8.05532 26.5393L8.95101 27.7425C9.61058 28.6286 10.8635 28.8121 11.7496 28.1526C12.6356 27.493 12.8192 26.24 12.1596 25.354L11.2639 24.1508ZM23.5464 23.7408C22.6604 23.0812 21.4074 23.2648 20.7478 24.1508L19.8521 25.354C19.1926 26.24 19.3762 27.493 20.2622 28.1526C21.1482 28.8121 22.4012 28.6286 23.0607 27.7425L23.9564 26.5393C24.616 25.6533 24.4324 24.4003 23.5464 23.7408Z" fill="#FFDEA7"/>
        <path d="M14 8.5C14 8.77614 13.7761 9 13.5 9C13.2239 9 13 8.77614 13 8.5C13 8.22386 13.2239 8 13.5 8C13.7761 8 14 8.22386 14 8.5Z" fill="black"/>
        <path d="M19 8.5C19 8.77614 18.7761 9 18.5 9C18.2239 9 18 8.77614 18 8.5C18 8.22386 18.2239 8 18.5 8C18.7761 8 19 8.22386 19 8.5Z" fill="black"/>
        <path d="M15.0422 10.2987C15.1196 10.1228 15.2955 10 15.5 10H16.5C16.7045 10 16.8804 10.1228 16.9578 10.2987C17.0113 10.4201 16.9473 10.5527 16.8536 10.6464L16.3536 11.1464C16.1583 11.3417 15.8417 11.3417 15.6464 11.1464L15.1464 10.6464C15.0527 10.5527 14.9887 10.4201 15.0422 10.2987Z" fill="black"/>
      </g>
    </g>
    <text id="ITEM_2_HEAD" x="0.0" y="138.0" text-anchor="middle" font-size="44" font-weight="800" fill="var(--accent-4)" data-bg-id="ITEM_2_BG" fill-opacity="1.0" stroke="none" style="font-size: 30px; font-family: Inter, Segoe UI, Kalam, Roboto, Helvetica, Arial, sans-serif; font-weight: 700; letter-spacing:-0.4px;" data-final-font-size="30">
      <tspan x="0.0" dy="42.25px">Child Fear</tspan>
    </text>
    <rect id="ITEM_2_HEAD_FRAME" x="-165.0" y="138" width="330.0" height="68" fill="none"/>
    <text id="ITEM_2_BODY" x="0.0" y="206.0" text-anchor="middle" font-size="27" fill="var(--primary-text)" data-bg-id="ITEM_2_BG" style="font-size: 26px; font-family: Inter, Segoe UI, Kalam, Roboto, Helvetica, Arial, sans-serif; font-weight: 400;" data-final-font-size="26">
      <tspan x="0.0" dy="39.64px">Children become wary</tspan>
      <tspan x="0.0" dy="29.90px">of father's volatile behavior</tspan>
    </text>
    <rect id="ITEM_2_BODY_FRAME" x="-190.0" y="206" width="380" height="154" fill="none"/>
  </g>
  <g transform="translate(1425.0, 280.0)" filter="url(#svg82ff7c38-soft-shadow)">
    <rect id="ITEM_3_BG" x="-200.0" y="0" width="400.0" height="360" rx="26" fill="var(--panel)" fill-opacity="0.95" stroke="var(--accent-3)" stroke-width="3"/>
    <rect x="-184.0" y="12" width="368.0" height="8" rx="4" fill="var(--accent-3)" fill-opacity="0.55"/>
    <circle id="ITEM_3_PAD" cx="0" cy="74" r="46" fill="var(--icon-pad-bg)" stroke="var(--primary-text)" opacity="0.9" fill-opacity="0.9" stroke-width="2"/>
    <circle id="ITEM_3_PAD_INNER" cx="0" cy="74" r="35.88" fill="var(--accent-5)" fill-opacity="0.22"/>
    <circle cx="0" cy="74" r="36" fill="none" stroke="var(--accent-3)" stroke-width="3" stroke-dasharray="6 4"/>
    <g id="ITEM_3_ICON" transform="translate(-34, 40)" data-icon-size="68" stroke-dasharray="6 4">
      <g transform="translate(-4.920677966101698,-4.920677966101696) scale(3.243389830508475)" vector-effect="non-scaling-stroke" stroke-width="2.53" stroke-linecap="round" stroke-linejoin="round" stroke-opacity="1.0">
        <path d="M4 3 2 5v15c0 .6.4 1 1 1h2c.6 0 1-.4 1-1V5Z" vector-effect="non-scaling-stroke" fill="none" stroke="#f1f5f9"/>
        <path d="M6 8h4" vector-effect="non-scaling-stroke" fill="none" stroke="#f1f5f9"/>
        <path d="M6 18h4" vector-effect="non-scaling-stroke" fill="none" stroke="#f1f5f9"/>
        <path d="m12 3-2 2v15c0 .6.4 1 1 1h2c.6 0 1-.4 1-1V5Z" vector-effect="non-scaling-stroke" fill="none" stroke="#f1f5f9"/>
        <path d="M14 8h4" vector-effect="non-scaling-stroke" fill="none" stroke="#f1f5f9"/>
        <path d="M14 18h4" vector-effect="non-scaling-stroke" fill="none" stroke="#f1f5f9"/>
        <path d="m20 3-2 2v15c0 .6.4 1 1 1h2c.6 0 1-.4 1-1V5Z" vector-effect="non-scaling-stroke" fill="none" stroke="#f1f5f9"/>
      </g>
    </g>
    <text id="ITEM_3_HEAD" x="0.0" y="138.0" text-anchor="middle" font-size="44" font-weight="800" fill="var(--accent-5)" data-bg-id="ITEM_3_BG" fill-opacity="1.0" stroke="none" style="font-size: 30px; font-family: Inter, Segoe UI, Kalam, Roboto, Helvetica, Arial, sans-serif; font-weight: 700; letter-spacing:-0.4px;" data-final-font-size="30">
      <tspan x="0.0" dy="42.25px">Social Liability</tspan>
    </text>
    <rect id="ITEM_3_HEAD_FRAME" x="-165.0" y="138" width="330.0" height="68" fill="none"/>
    <text id="ITEM_3_BODY" x="0.0" y="206.0" text-anchor="middle" font-size="27" fill="var(--primary-text)" data-bg-id="ITEM_3_BG" style="font-size: 26px; font-family: Inter, Segoe UI, Kalam, Roboto, Helvetica, Arial, sans-serif; font-weight: 400;" data-final-font-size="26">
      <tspan x="0.0" dy="33.66px">Neighbors view unusual beliefs</tspan>
      <tspan x="0.0" dy="29.90px">as embarrassing social</tspan>
      <tspan x="0.0" dy="29.90px">liabilities</tspan>
    </text>
    <rect id="ITEM_3_BODY_FRAME" x="-190.0" y="206" width="380" height="154" fill="none"/>
  </g>
  <g transform="translate(690.0, 670.0)" filter="url(#svg82ff7c38-soft-shadow)">
    <rect id="ITEM_4_BG" x="-200.0" y="0" width="400.0" height="360" rx="26" fill="var(--panel)" fill-opacity="0.95" stroke="var(--accent-4)" stroke-width="3"/>
    <rect x="-184.0" y="12" width="368.0" height="8" rx="4" fill="var(--accent-4)" fill-opacity="0.55"/>
    <circle id="ITEM_4_PAD" cx="0" cy="74" r="46" fill="var(--icon-pad-bg)" stroke="var(--primary-text)" opacity="0.9" fill-opacity="0.9" stroke-width="2"/>
    <circle id="ITEM_4_PAD_INNER" cx="0" cy="74" r="35.88" fill="var(--accent-6)" fill-opacity="0.22"/>
    <circle cx="0" cy="74" r="36" fill="none" stroke="var(--accent-4)" stroke-width="3" stroke-dasharray="6 4"/>
    <g id="ITEM_4_ICON" transform="translate(-34, 40)" data-icon-size="68" stroke-dasharray="6 4">
      <g transform="translate(-7.005714285714291,-7.005714285714289) scale(2.562857142857143)">
        <path d="M16.0075 19.2362C15.7575 19.2362 15.5575 19.0362 15.5575 18.7862V16.8794L13.1289 16.1523L11.4177 14.6914L15.5575 15.9316V15.6562C15.5575 14.6562 15.8375 13.6662 16.3975 12.8262C16.5654 12.5726 16.7039 12.3049 16.8126 12.0269L14.5967 11.3625L12.0178 9.6416L17.0513 11.1507C17.0887 10.9194 17.1075 10.684 17.1075 10.4462V8.34619H18.0075V10.4462C18.0075 10.562 18.0037 10.6772 17.9963 10.7918L21.8774 9.63159L18.8754 11.4765L17.8339 11.7879C17.6926 12.3201 17.466 12.8279 17.1575 13.2962C16.6975 13.9962 16.4575 14.8162 16.4575 15.6562V16.6486L20.5872 15.4114L18.0505 17.119L16.4575 17.5962V18.7862C16.4575 19.0362 16.2575 19.2362 16.0075 19.2362Z" fill="#44911B"/>
        <path d="M17.4098 2.07207C15.5777 4.2028 15.5236 7.71414 17.2924 9.92096C17.3737 10.0188 17.509 10.0297 17.5902 9.93183C19.4223 7.80111 19.4764 4.28976 17.7076 2.08295C17.6263 1.97423 17.491 1.97423 17.4098 2.07207Z" fill="#86D72F"/>
        <path d="M10.6575 11.5263L7.15747 10.4763C6.56747 12.4463 7.68747 14.5163 9.64747 15.1163L13.1475 16.1663C13.7475 14.1963 12.6275 12.1163 10.6575 11.5263Z" fill="#86D72F"/>
        <path d="M24.0375 11.4363L20.5375 12.4863C18.5675 13.0863 17.4475 15.1563 18.0475 17.1263L21.5475 16.0763C23.5075 15.4763 24.6275 13.4063 24.0375 11.4363Z" fill="#86D72F"/>
        <path d="M12.1275 6.73628L8.62747 5.68628C8.04747 7.65628 9.15747 9.72628 11.1275 10.3263L14.6275 11.3763C15.2175 9.40628 14.0975 7.32628 12.1275 6.73628Z" fill="#86D72F"/>
        <path d="M24.8575 5.79639L21.3575 6.84639C19.3875 7.43639 18.2675 9.50639 18.8675 11.4864L22.3675 10.4364C24.3275 9.83639 25.4475 7.76639 24.8575 5.79639Z" fill="#86D72F"/>
        <path d="M22 20C20.3351 18.75 18.2513 18 16 18C13.7487 18 11.6649 18.75 10 20L16 21.9688L22 20Z" fill="#7D4533"/>
        <path d="M9.00745 23.9963L9.78745 28.6863C9.91745 29.4463 10.5674 29.9963 11.3274 29.9963H20.6774C21.4374 29.9963 22.0974 29.4463 22.2174 28.6863L23.0074 23.9963L16.0074 22.4062L9.00745 23.9963Z" fill="#F3AD61"/>
        <path d="M23.5 24H8.5C8.22 24 8 23.78 8 23.5V20.5C8 20.22 8.22 20 8.5 20H23.5C23.78 20 24 20.22 24 20.5V23.5C24 23.78 23.78 24 23.5 24Z" fill="#F3C07B"/>
      </g>
    </g>
    <text id="ITEM_4_HEAD" x="0.0" y="138.0" text-anchor="middle" font-size="44" font-weight="800" fill="var(--accent-6)" data-bg-id="ITEM_4_BG" fill-opacity="1.0" stroke="none" style="font-size: 30px; font-family: Inter, Segoe UI, Kalam, Roboto, Helvetica, Arial, sans-serif; font-weight: 700; letter-spacing:-0.4px;" data-final-font-size="30">
      <tspan x="0.0" dy="42.25px">Physical Invasion</tspan>
    </text>
    <rect id="ITEM_4_HEAD_FRAME" x="-165.0" y="138" width="330.0" height="68" fill="none"/>
    <text id="ITEM_4_BODY" x="0.0" y="206.0" text-anchor="middle" font-size="27" fill="var(--primary-text)" data-bg-id="ITEM_4_BG" style="font-size: 26px; font-family: Inter, Segoe UI, Kalam, Roboto, Helvetica, Arial, sans-serif; font-weight: 400;" data-final-font-size="26">
      <tspan x="0.0" dy="39.64px">Construction debris and plants</tspan>
      <tspan x="0.0" dy="29.90px">invade the family home</tspan>
    </text>
    <rect id="ITEM_4_BODY_FRAME" x="-190.0" y="206" width="380" height="154" fill="none"/>
  </g>
  <g transform="translate(1230.0, 670.0)" filter="url(#svg82ff7c38-soft-shadow)">
    <rect id="ITEM_5_BG" x="-200.0" y="0" width="400.0" height="360" rx="26" fill="var(--panel)" fill-opacity="0.95" stroke="var(--accent-5)" stroke-width="3"/>
    <rect x="-184.0" y="12" width="368.0" height="8" rx="4" fill="var(--accent-5)" fill-opacity="0.55"/>
    <circle id="ITEM_5_PAD" cx="0" cy="74" r="46" fill="var(--icon-pad-bg)" stroke="var(--primary-text)" opacity="0.9" fill-opacity="0.9" stroke-width="2"/>
    <circle id="ITEM_5_PAD_INNER" cx="0" cy="74" r="35.88" fill="var(--accent-1)" fill-opacity="0.22"/>
    <circle cx="0" cy="74" r="36" fill="none" stroke="var(--accent-5)" stroke-width="3" stroke-dasharray="6 4"/>
    <g id="ITEM_5_ICON" transform="translate(-34, 40)" data-icon-size="68" stroke-dasharray="6 4">
      <g transform="translate(-7.005714285714289,-5.724285714285719) scale(2.562857142857143)">
        <path fill-rule="evenodd" clip-rule="evenodd" d="M10 8.83354V3.52275C10 3.23233 9.75879 3 9.46734 3H6.54271C6.24121 3 6 3.23233 6 3.52275V12.1687L5 13.0025V29.0025H27V14.0025L16.07 3.77246L10 8.83354Z" fill="#F3C07B"/>
        <path d="M15.92 27.0025H8.08C8.04 27.0025 8 26.9625 8 26.9225V16.3925C8 15.6425 8.61 15.0325 9.36 15.0325H14.65C15.4 15.0325 16.01 15.6425 16.01 16.3925V26.9225C16 26.9625 15.96 27.0025 15.92 27.0025Z" fill="#8C5543"/>
        <path d="M14.5 21.0024C14.7761 21.0024 15 20.7786 15 20.5024C15 20.2263 14.7761 20.0024 14.5 20.0024C14.2239 20.0024 14 20.2263 14 20.5024C14 20.7786 14.2239 21.0024 14.5 21.0024Z" fill="#402A32"/>
        <path d="M15.96 28.0024H8C7.45 28.0024 7 27.5524 7 27.0024C7 26.4524 7.45 26.0024 8 26.0024H15.96C16.51 26.0024 16.96 26.4524 16.96 27.0024C16.96 27.5524 16.51 28.0024 15.96 28.0024Z" fill="#D3D3D3"/>
        <path d="M30 29.0024H2V28.9124C2 27.8524 2.85 27.0024 3.91 27.0024H28.09C29.14 27.0024 30 27.8524 30 28.9124V29.0024Z" fill="#00F397"/>
        <path d="M16.88 2.3525L29.64 14.9225C30.12 15.3925 30.12 16.1525 29.64 16.6125C29.17 17.0825 28.4 17.0825 27.92 16.6125L16.02 4.8925L4.08 16.6525C3.61 17.1225 2.84 17.1225 2.36 16.6525C1.88 16.1825 1.88 15.4225 2.36 14.9525L15.16 2.3525C15.63 1.8825 16.4 1.8825 16.88 2.3525Z" fill="#F8312F"/>
        <path d="M23.14 21.0024H18.86C18.38 21.0024 18 20.6224 18 20.1424V15.8624C18 15.3924 18.38 15.0024 18.86 15.0024H23.14C23.61 15.0024 24 15.3824 24 15.8624V20.1424C24 20.6224 23.62 21.0024 23.14 21.0024Z" fill="#83CBFF"/>
      </g>
    </g>
    <text id="ITEM_5_HEAD" x="0.0" y="138.0" text-anchor="middle" font-size="44" font-weight="800" fill="var(--accent-1)" data-bg-id="ITEM_5_BG" fill-opacity="1.0" stroke="none" style="font-size: 30px; font-family: Inter, Segoe UI, Kalam, Roboto, Helvetica, Arial, sans-serif; font-weight: 700; letter-spacing:-0.4px;" data-final-font-size="30">
      <tspan x="0.0" dy="42.25px">Household Fracture</tspan>
    </text>
    <rect id="ITEM_5_HEAD_FRAME" x="-165.0" y="138" width="330.0" height="68" fill="none"/>
    <text id="ITEM_5_BODY" x="0.0" y="206.0" text-anchor="middle" font-size="27" fill="var(--primary-text)" data-bg-id="ITEM_5_BG" style="font-size: 26px; font-family: Inter, Segoe UI, Kalam, Roboto, Helvetica, Arial, sans-serif; font-weight: 400;" data-final-font-size="26">
      <tspan x="0.0" dy="39.64px">Family unit breaks before the</tspan>
      <tspan x="0.0" dy="29.90px">mystery is resolved</tspan>
    </text>
    <rect id="ITEM_5_BODY_FRAME" x="-190.0" y="206" width="380" height="154" fill="none"/>
  </g>
</svg>
