<?xml version='1.0' encoding='utf-8'?>
<svg xmlns="http://www.w3.org/2000/svg" width="1920" height="1080" viewBox="0 0 1920 1080" data-theme="light">
  <style>
        @font-face {
            font-family: 'Inter';
            src: url('assets/fonts/Inter-Regular.ttf') format('truetype');
            font-weight: 400;
            font-style: normal;
            font-display: swap;
        }
        @font-face {
            font-family: 'Inter';
            src: url('assets/fonts/Inter-Bold.ttf') format('truetype');
            font-weight: 600;
            font-style: normal;
            font-display: swap;
        }
        @font-face {
            font-family: 'Inter';
            src: url('assets/fonts/Inter-Bold.ttf') format('truetype');
            font-weight: 800;
            font-style: normal;
            font-display: swap;
        }
        
:root {
    --background: #f8fafc;
    --panel: #ffffff;
    --primary-text: #0f172a;
    --muted-text: #64748b;
    --inverse-text: #ffffff;
    --border: #e2e8f0;
    --shadow-color: #000000;
    --icon-pad-bg: #1e293b;
    --art-glow: #0891b2;
    --art-glow-opacity: 0.10;
    --art-sheen: #ffffff;
    --art-sheen-opacity: 0.34;
    --art-shadow: #0f172a;
    --art-shadow-opacity: 0.14;
    --art-muted-line: #94a3b8;
    --art-panel-tint: #f1f5f9;
    --font-family: 'Inter', 'Segoe UI', 'Kalam', Roboto, Helvetica, Arial, sans-serif;
    --radius-xl: 16px;
    --font-family-headline: 'Inter', 'Segoe UI', 'Kalam', Roboto, Helvetica, Arial, sans-serif;
    --font-family-body: 'Inter', 'Segoe UI', 'Kalam', Roboto, Helvetica, Arial, sans-serif;
    --font-heading: 'Inter', 'Segoe UI', 'Kalam', Roboto, Helvetica, Arial, sans-serif;
    --font-body: 'Inter', 'Segoe UI', 'Kalam', Roboto, Helvetica, Arial, sans-serif;
    --font-size-h1: 56px;
    --font-size-h2: 40px;
    --font-size-h3: 28px;
    --font-size-body: 24px;
    --font-size-caption: 18px;
    --secondary-text: var(--muted-text);
    --panel-border: var(--border);
    --font-weight-normal: 400;
    --font-weight-medium: 500;
    --font-weight-semibold: 600;
    --font-weight-bold: 700;
    --spacing-gutter-pct: 0.07;
    --spacing-top-pct: 0.15;
    --spacing-bottom-pct: 0.07;
    --spacing-title-y-pct: 0.055;
    --accent-1: #d97706;
    --accent-2: #ea580c;
    --accent-3: #dc2626;
    --accent-4: #65a30d;
    --accent-5: #16a34a;
    --accent-6: #92400e;
}
:root[data-theme="dark"] {
    --background: #0f172a;
    --panel: #1e293b;
    --primary-text: #f1f5f9;
    --muted-text: #94a3b8;
    --inverse-text: #0f172a;
    --border: #334155;
    --shadow-color: #000000;
    --icon-pad-bg: #1e293b;
    --art-glow: #7dd3fc;
    --art-glow-opacity: 0.18;
    --art-sheen: #ffffff;
    --art-sheen-opacity: 0.18;
    --art-shadow: #000000;
    --art-shadow-opacity: 0.28;
    --art-muted-line: #64748b;
    --art-panel-tint: #1e293b;
    --accent-1: #fbbf24;
    --accent-2: #fb923c;
    --accent-3: #f87171;
    --accent-4: #a3e635;
    --accent-5: #4ade80;
    --accent-6: #d4a574;
}
:root[data-theme="light"] {
    --background: #f8fafc;
    --panel: #ffffff;
    --primary-text: #0f172a;
    --muted-text: #64748b;
    --inverse-text: #ffffff;
    --border: #e2e8f0;
    --shadow-color: #000000;
    --icon-pad-bg: #1e293b;
    --art-glow: #0891b2;
    --art-glow-opacity: 0.10;
    --art-sheen: #ffffff;
    --art-sheen-opacity: 0.34;
    --art-shadow: #0f172a;
    --art-shadow-opacity: 0.14;
    --art-muted-line: #94a3b8;
    --art-panel-tint: #f1f5f9;
    --accent-1: #d97706;
    --accent-2: #ea580c;
    --accent-3: #dc2626;
    --accent-4: #65a30d;
    --accent-5: #16a34a;
    --accent-6: #92400e;
}</style>
  <rect x="0" y="0" width="1.92E+3" height="1.08E+3" fill="#252a34" stroke="none" id="programmatic_background"/>
  <line id="HEADER_DECOR" x1="960.0" x2="1080.0" y1="135.0" y2="135.0" stroke="var(--accent-1)" stroke-width="6" stroke-linecap="round"/>
  <defs>
    <pattern id="svga129bbb3-napkin-hatch" patternUnits="userSpaceOnUse" width="12" height="12">
      <path d="M -3 12 L 12 -3 M 0 15 L 15 0" fill="none" stroke="var(--primary-text)" stroke-width="1" stroke-opacity="0.05"/>
    </pattern>
    <filter id="svga129bbb3-shadow" x="-30%" y="-30%" width="160%" height="160%">
      <feDropShadow dx="0" dy="2" stdDeviation="3" flood-color="#000000" flood-opacity="0.08"/>
      <feDropShadow dx="0" dy="6" stdDeviation="10" flood-color="#000000" flood-opacity="0.12"/>
    </filter>
    <marker id="svga129bbb3-flow-arrow" markerWidth="14" markerHeight="14" refX="12" refY="7" orient="auto">
      <path d="M 0 0 L 14 7 L 0 14 Z" fill="var(--primary-text)"/>
    </marker>
    <radialGradient id="svga129bbb3-universal-edge-vignette" cx="50%" cy="50%" r="72%">
      <stop offset="0%" stop-color="var(--background)" stop-opacity="0"/>
      <stop offset="72%" stop-color="var(--background)" stop-opacity="0.12"/>
      <stop offset="100%" stop-color="var(--primary-text)" stop-opacity="0.08"/>
    </radialGradient>
    <linearGradient id="svga129bbb3-universal-surface-sheen" x1="0%" y1="0%" x2="100%" y2="100%">
      <stop offset="0%" stop-color="var(--art-sheen)" stop-opacity="var(--art-sheen-opacity)"/>
      <stop offset="46%" stop-color="var(--art-sheen)" stop-opacity="0.035"/>
      <stop offset="100%" stop-color="var(--art-panel-tint)" stop-opacity="0.14"/>
    </linearGradient>
    <radialGradient id="svga129bbb3-universal-icon-aura" cx="50%" cy="42%" r="64%">
      <stop offset="0%" stop-color="var(--art-glow)" stop-opacity="var(--art-glow-opacity)"/>
      <stop offset="100%" stop-color="var(--background)" stop-opacity="0"/>
    </radialGradient>
    <filter id="svga129bbb3-text-glow" x="-20%" y="-20%" width="140%" height="140%">
      <feDropShadow dx="0" dy="0" stdDeviation="2" flood-color="#000000" flood-opacity="0.4"/>
    </filter>
    <marker id="svga129bbb3-arrowhead" markerWidth="10" markerHeight="7" refX="9" refY="3.5" orient="auto" markerUnits="strokeWidth">
      <polygon points="0 0, 10 3.5, 0 7" fill="var(--muted-text)" opacity="0.6"/>
    </marker>
  </defs>
  <rect width="100%" height="100%" fill="var(--background)" id="CANVAS_BG"/>
  <rect width="100%" height="100%" fill="url(#svga129bbb3-napkin-hatch)"/>
  <rect id="UNIVERSAL_EDGE_VIGNETTE" width="100%" height="100%" fill="url(#svga129bbb3-universal-edge-vignette)" opacity="0.62"/>
  <text id="TITLE" x="960.0" y="59" text-anchor="middle" font-weight="700" font-size="63" fill="#0f172a" style="font-size: 60px; font-family: Inter, Segoe UI, Kalam, Roboto, Helvetica, Arial, sans-serif; font-weight: 700; letter-spacing:-1.2px;" data-final-font-size="60">
    <tspan x="960.0" dy="68.00px">Devils Tower Cultural Evolution</tspan>
  </text>
  <rect id="TITLE_FRAME" x="134" y="59" width="1652" height="103" fill="none"/>
  <g id="DIAGRAM_MAIN">
    <line x1="155" y1="450" x2="1755" y2="450" stroke="var(--primary-text)" stroke-width="18" stroke-linecap="round" opacity="0.08"/>
    <line x1="155" y1="450" x2="1755" y2="450" stroke="var(--muted-text)" stroke-width="4" stroke-linecap="round" opacity="0.32" marker-end="url(#svga129bbb3-flow-arrow)"/>
    <g transform="translate(20, 290)">
      <path id="ITEM_1_BG" d="M 0 0 L 332 0 L 460 160 L 332 320 L 0 320 Z" fill="var(--accent-2)" stroke="var(--accent-1)" stroke-width="2.5" fill-opacity="1.0" filter="url(#svga129bbb3-shadow)"/>
      <path d="M 28 32 L 296 32 L 398 160 L 296 288 L 28 288 Z" fill="none" stroke="var(--accent-1)" stroke-width="2" stroke-opacity="0.32"/>
      <circle id="ITEM_1_PAD" cx="188" cy="92" r="54" fill="var(--icon-pad-bg)" stroke="var(--primary-text)" opacity="0.94" fill-opacity="0.9" stroke-width="2"/>
      <circle id="ITEM_1_PAD_INNER" cx="188" cy="92" r="42.12" fill="var(--accent-2)" fill-opacity="0.22"/>
      <circle cx="188" cy="92" r="43" fill="none" stroke="var(--accent-1)" stroke-width="3" stroke-dasharray="6 4"/>
      <g id="ITEM_1_ICON" transform="translate(146, 50)" data-icon-size="84" stroke-dasharray="6 4">
        <g transform="translate(-4.40338983050848,-3.6894915254237337) scale(0.17847457627118646)" vector-effect="non-scaling-stroke" fill="#f1f5f9" fill-opacity="1.0" stroke="none">
          <path fill="#f1f5f9" d="M71 22.406v102.53h202.25v18.69h-73.22v36.968h-18.686v-36.97H79.156l43.375 53.782h180.44v18.688H180.905v36.97H162.22v-36.97h-39.407v163.562h58.53v-44.75H157.47V316.22h74.155v-33.66H193.72v-18.687h97.218v18.688h-40.625v33.656h73.28v18.686h-32.437v44.75h26.313v18.688h-63.69l-2.686 74.03l-18.688-.687l2.656-73.343H93.032V398h-.22l-28.687 92.844h79.844l9.81-70.688l18.5 2.563l-9.468 68.124H453.25L424.562 398h-30.03V197.78l51.812-64.25V22.407h-64.406v52.438h-39.22V22.406h-65.124v52.438h-38.53V22.406h-65.126v52.438h-38.5V22.406zm129.03 312.5v44.75h72.44v-44.75z" vector-effect="non-scaling-stroke" stroke="none"/>
        </g>
      </g>
      <rect id="ITEM_1_TEXT_BG" x="42" y="158" width="292" height="126" rx="26" fill="var(--panel)" fill-opacity="0.92" stroke="var(--primary-text)" stroke-opacity="0.12" stroke-width="1.5"/>
      <text id="ITEM_1_HEAD" x="72.0" y="170.0" text-anchor="start" font-weight="700" font-size="24" fill="var(--primary-text)" data-bg-id="ITEM_1_TEXT_BG" fill-opacity="1.0" style="font-size: 26px; font-family: Inter, Segoe UI, Kalam, Roboto, Helvetica, Arial, sans-serif; font-weight: 700; letter-spacing:-0.4px;" data-final-font-size="26">
        <tspan x="72.0" dy="23.85px">Geological Landmark</tspan>
      </text>
      <rect id="ITEM_1_HEAD_FRAME" x="72" y="170" width="246" height="36" fill="none"/>
      <text id="ITEM_1_BODY" x="72.0" y="204.0" text-anchor="start" font-size="18" fill="var(--primary-text)" data-bg-id="ITEM_1_TEXT_BG" style="font-size: 19px; font-family: Inter, Segoe UI, Kalam, Roboto, Helvetica, Arial, sans-serif; font-weight: 400;" data-final-font-size="19">
        <tspan x="72.0" dy="15.35px">Established as United</tspan>
        <tspan x="72.0" dy="23.75px">States first national</tspan>
        <tspan x="72.0" dy="23.75px">monument</tspan>
      </text>
      <rect id="ITEM_1_BODY_FRAME" x="72" y="204" width="246" height="72" fill="none"/>
    </g>
    <g transform="translate(480, 290)">
      <path id="ITEM_2_BG" d="M 26 0 L 332 0 L 460 160 L 332 320 L 26 320 L 92 160 Z" fill="var(--accent-3)" stroke="var(--accent-2)" stroke-width="2.5" fill-opacity="1.0" filter="url(#svga129bbb3-shadow)"/>
      <path d="M 52 32 L 296 32 L 398 160 L 296 288 L 52 288 L 104 160 Z" fill="none" stroke="var(--accent-2)" stroke-width="2" stroke-opacity="0.32"/>
      <circle id="ITEM_2_PAD" cx="188" cy="92" r="54" fill="var(--icon-pad-bg)" stroke="var(--primary-text)" opacity="0.94" fill-opacity="0.9" stroke-width="2"/>
      <circle id="ITEM_2_PAD_INNER" cx="188" cy="92" r="42.12" fill="var(--accent-3)" fill-opacity="0.22"/>
      <circle cx="188" cy="92" r="43" fill="none" stroke="var(--accent-2)" stroke-width="3" stroke-dasharray="6 4"/>
      <g id="ITEM_2_ICON" transform="translate(146, 50)" data-icon-size="84" stroke-dasharray="6 4">
        <g transform="translate(-6.137142857142862,-12.906428571428577) scale(3.008571428571429)">
          <path d="M13.0004 14C13.6281 13.1643 14 12.1256 14 11C14 8.23858 11.7614 6 9 6C6.23858 6 4 8.23858 4 11C4 13.419 5.71776 15.4367 8 15.9V17H7C5.89543 17 5 17.8954 5 19V20L4.5 21.5L5 23V28C5 29.1046 5.89543 30 7 30H21C22.1046 30 23 29.1046 23 28L24 23.5L23 19C23 17.8954 22.1046 17 21 17H20V16C22.7614 16 25 13.7614 25 11C25 8.23858 22.7614 6 20 6C17.2386 6 15 8.23858 15 11C15 12.1256 15.3719 13.1643 15.9996 14H13.0004ZM2 19.5C2 19.2239 2.22386 19 2.5 19C2.77614 19 3 19.2239 3 19.5V20L3.5 21.5L3 23V24.5C3 24.7761 2.77614 25 2.5 25C2.22386 25 2 24.7761 2 24.5V19.5ZM25.5528 18.2237C25.214 18.3931 25 18.7393 25 19.1181L24 23.5L25 27.882C25 28.2608 25.214 28.6071 25.5528 28.7764L28.5528 30.2764C29.2177 30.6089 30 30.1254 30 29.382V17.6181C30 16.8747 29.2177 16.3912 28.5528 16.7236L25.5528 18.2237Z" fill="#321B41"/>
          <path d="M8 25C8 24.4477 8.44772 24 9 24H19C19.5523 24 20 24.4477 20 25V27C20 27.5523 19.5523 28 19 28H9C8.44772 28 8 27.5523 8 27V25Z" fill="#D3D3D3"/>
          <path d="M12 26C12 26.5523 11.5523 27 11 27C10.4477 27 10 26.5523 10 26C10 25.4477 10.4477 25 11 25C11.5523 25 12 25.4477 12 26Z" fill="#CA0B4A"/>
          <path d="M15 26C15 25.4477 15.4477 25 16 25H17C17.5523 25 18 25.4477 18 26V26C18 26.5523 17.5523 27 17 27H16C15.4477 27 15 26.5523 15 26V26Z" fill="#433B6B"/>
          <path d="M10 11C10 11.5523 9.55228 12 9 12C8.44772 12 8 11.5523 8 11C8 10.4477 8.44772 10 9 10C9.55228 10 10 10.4477 10 11ZM25 19H23V28H25V19ZM5 20H3V23H5V20ZM20 12C20.5523 12 21 11.5523 21 11C21 10.4477 20.5523 10 20 10C19.4477 10 19 10.4477 19 11C19 11.5523 19.4477 12 20 12Z" fill="#9B9B9B"/>
        </g>
      </g>
      <rect id="ITEM_2_TEXT_BG" x="42" y="158" width="292" height="126" rx="26" fill="var(--panel)" fill-opacity="0.92" stroke="var(--primary-text)" stroke-opacity="0.12" stroke-width="1.5"/>
      <text id="ITEM_2_HEAD" x="72.0" y="170.0" text-anchor="start" font-weight="700" font-size="24" fill="var(--accent-3)" data-bg-id="ITEM_2_TEXT_BG" fill-opacity="1.0" style="font-size: 21px; font-family: Inter, Segoe UI, Kalam, Roboto, Helvetica, Arial, sans-serif; font-weight: 700; letter-spacing:-0.4px;" data-final-font-size="21">
        <tspan x="72.0" dy="22.73px">Cinematic Transformation</tspan>
      </text>
      <rect id="ITEM_2_HEAD_FRAME" x="72" y="170" width="246" height="36" fill="none"/>
      <text id="ITEM_2_BODY" x="72.0" y="204.0" text-anchor="start" font-size="18" fill="var(--primary-text)" data-bg-id="ITEM_2_TEXT_BG" style="font-size: 19px; font-family: Inter, Segoe UI, Kalam, Roboto, Helvetica, Arial, sans-serif; font-weight: 400;" data-final-font-size="19">
        <tspan x="72.0" dy="15.35px">Steven Spielberg films</tspan>
        <tspan x="72.0" dy="23.75px">iconic UFO contact</tspan>
        <tspan x="72.0" dy="23.75px">sequence</tspan>
      </text>
      <rect id="ITEM_2_BODY_FRAME" x="72" y="204" width="246" height="72" fill="none"/>
    </g>
    <g transform="translate(940, 290)">
      <path id="ITEM_3_BG" d="M 26 0 L 332 0 L 460 160 L 332 320 L 26 320 L 92 160 Z" fill="var(--accent-4)" stroke="var(--accent-3)" stroke-width="2.5" fill-opacity="1.0" filter="url(#svga129bbb3-shadow)"/>
      <path d="M 52 32 L 296 32 L 398 160 L 296 288 L 52 288 L 104 160 Z" fill="none" stroke="var(--accent-3)" stroke-width="2" stroke-opacity="0.32"/>
      <circle id="ITEM_3_PAD" cx="188" cy="92" r="54" fill="var(--icon-pad-bg)" stroke="var(--primary-text)" opacity="0.94" fill-opacity="0.9" stroke-width="2"/>
      <circle id="ITEM_3_PAD_INNER" cx="188" cy="92" r="42.12" fill="var(--accent-4)" fill-opacity="0.22"/>
      <circle cx="188" cy="92" r="43" fill="none" stroke="var(--accent-3)" stroke-width="3" stroke-dasharray="6 4"/>
      <g id="ITEM_3_ICON" transform="translate(146, 50)" data-icon-size="84" stroke-dasharray="6 4">
        <g transform="translate(-6.137142857142862,-9.145714285714291) scale(3.008571428571429)" vector-effect="non-scaling-stroke" fill="#f1f5f9" fill-opacity="1.0" stroke="none">
          <path fill="#f1f5f9" d="m29.81 16l-7-9.56A1 1 0 0 0 22 6H3a1 1 0 0 0-1 1v17a1 1 0 0 0 1 1h2.14a4 4 0 0 0 7.72 0h6.28a4 4 0 0 0 7.72 0H29a1 1 0 0 0 1-1v-7.44a1 1 0 0 0-.19-.56M20 8h1.49l5.13 7H20ZM4 8h14v7H4Zm5 18a2 2 0 1 1 2-2a2 2 0 0 1-2 2m14 0a2 2 0 1 1 2-2a2 2 0 0 1-2 2m5-3h-1.14a4 4 0 0 0-7.72 0h-6.28a4 4 0 0 0-7.72 0H4v-6h24Z" vector-effect="non-scaling-stroke" stroke="none"/>
        </g>
      </g>
      <rect id="ITEM_3_TEXT_BG" x="42" y="158" width="292" height="126" rx="26" fill="var(--panel)" fill-opacity="0.92" stroke="var(--primary-text)" stroke-opacity="0.12" stroke-width="1.5"/>
      <text id="ITEM_3_HEAD" x="72.0" y="170.0" text-anchor="start" font-weight="700" font-size="24" fill="var(--primary-text)" data-bg-id="ITEM_3_TEXT_BG" fill-opacity="1.0" style="font-size: 30px; font-family: Inter, Segoe UI, Kalam, Roboto, Helvetica, Arial, sans-serif; font-weight: 700; letter-spacing:-0.4px;" data-final-font-size="30">
        <tspan x="72.0" dy="26.25px">Tourism Boom</tspan>
      </text>
      <rect id="ITEM_3_HEAD_FRAME" x="72" y="170" width="246" height="36" fill="none"/>
      <text id="ITEM_3_BODY" x="72.0" y="204.0" text-anchor="start" font-size="18" fill="var(--primary-text)" data-bg-id="ITEM_3_TEXT_BG" style="font-size: 19px; font-family: Inter, Segoe UI, Kalam, Roboto, Helvetica, Arial, sans-serif; font-weight: 400;" data-final-font-size="19">
        <tspan x="72.0" dy="15.35px">Visitors arrive for</tspan>
        <tspan x="72.0" dy="23.75px">cinematic pilgrimage and</tspan>
        <tspan x="72.0" dy="23.75px">UFO lore</tspan>
      </text>
      <rect id="ITEM_3_BODY_FRAME" x="72" y="204" width="246" height="72" fill="none"/>
    </g>
    <g transform="translate(1400, 290)">
      <path id="ITEM_4_BG" d="M 26 0 L 332 0 L 460 160 L 332 320 L 26 320 L 92 160 Z" fill="var(--accent-5)" stroke="var(--accent-4)" stroke-width="2.5" fill-opacity="1.0" filter="url(#svga129bbb3-shadow)"/>
      <path d="M 52 32 L 296 32 L 398 160 L 296 288 L 52 288 L 104 160 Z" fill="none" stroke="var(--accent-4)" stroke-width="2" stroke-opacity="0.32"/>
      <circle id="ITEM_4_PAD" cx="188" cy="92" r="54" fill="var(--icon-pad-bg)" stroke="var(--primary-text)" opacity="0.94" fill-opacity="0.9" stroke-width="2"/>
      <circle id="ITEM_4_PAD_INNER" cx="188" cy="92" r="42.12" fill="var(--accent-5)" fill-opacity="0.22"/>
      <circle cx="188" cy="92" r="43" fill="none" stroke="var(--accent-4)" stroke-width="3" stroke-dasharray="6 4"/>
      <g id="ITEM_4_ICON" transform="translate(146, 50)" data-icon-size="84" stroke-dasharray="6 4">
        <g transform="translate(-7.919999999999998,-7.920000000000005) scale(4.16)" vector-effect="non-scaling-stroke" stroke-width="2.72" stroke-linecap="round" stroke-linejoin="round" stroke-opacity="1.0">
          <path d="M5 3h1a1 1 0 0 1 1 1v2h3v-2a1 1 0 0 1 1 -1h2a1 1 0 0 1 1 1v2h3v-2a1 1 0 0 1 1 -1h1a1 1 0 0 1 1 1v4.394a2 2 0 0 1 -.336 1.11l-1.328 1.992a2 2 0 0 0 -.336 1.11v7.394a1 1 0 0 1 -1 1h-10a1 1 0 0 1 -1 -1v-7.394a2 2 0 0 0 -.336 -1.11l-1.328 -1.992a2 2 0 0 1 -.336 -1.11v-4.394a1 1 0 0 1 1 -1z" vector-effect="non-scaling-stroke" fill="none" stroke="#f1f5f9"/>
          <path d="M10 21v-5a2 2 0 1 1 4 0v5" vector-effect="non-scaling-stroke" fill="none" stroke="#f1f5f9"/>
        </g>
      </g>
      <rect id="ITEM_4_TEXT_BG" x="42" y="158" width="292" height="126" rx="26" fill="var(--panel)" fill-opacity="0.92" stroke="var(--primary-text)" stroke-opacity="0.12" stroke-width="1.5"/>
      <text id="ITEM_4_HEAD" x="72.0" y="170.0" text-anchor="start" font-weight="700" font-size="24" fill="var(--primary-text)" data-bg-id="ITEM_4_TEXT_BG" fill-opacity="1.0" style="font-size: 17px; font-family: Inter, Segoe UI, Kalam, Roboto, Helvetica, Arial, sans-serif; font-weight: 700; letter-spacing:-0.4px;" data-final-font-size="17">
        <tspan x="72.0" dy="20.98px">Modern Multi-Layered Identity</tspan>
      </text>
      <rect id="ITEM_4_HEAD_FRAME" x="72" y="170" width="246" height="36" fill="none"/>
      <text id="ITEM_4_BODY" x="72.0" y="204.0" text-anchor="start" font-size="18" fill="var(--primary-text)" data-bg-id="ITEM_4_TEXT_BG" style="font-size: 19px; font-family: Inter, Segoe UI, Kalam, Roboto, Helvetica, Arial, sans-serif; font-weight: 400;" data-final-font-size="19">
        <tspan x="72.0" dy="20.10px">Site balances film fame</tspan>
        <tspan x="72.0" dy="23.75px">with Indigenous sacredness</tspan>
      </text>
      <rect id="ITEM_4_BODY_FRAME" x="72" y="204" width="246" height="72" fill="none"/>
    </g>
  </g>
</svg>
