<?xml version='1.0' encoding='utf-8'?>
<svg xmlns="http://www.w3.org/2000/svg" width="1920" height="1080" viewBox="0 0 1920 1080" data-theme="dark">
  <style>
        @font-face {
            font-family: 'Inter';
            src: url('assets/fonts/Inter-Regular.ttf') format('truetype');
            font-weight: 400;
            font-style: normal;
            font-display: swap;
        }
        @font-face {
            font-family: 'Inter';
            src: url('assets/fonts/Inter-Bold.ttf') format('truetype');
            font-weight: 600;
            font-style: normal;
            font-display: swap;
        }
        @font-face {
            font-family: 'Inter';
            src: url('assets/fonts/Inter-Bold.ttf') format('truetype');
            font-weight: 800;
            font-style: normal;
            font-display: swap;
        }
        
:root {
    --background: #0f172a;
    --panel: #1e293b;
    --primary-text: #f1f5f9;
    --muted-text: #94a3b8;
    --inverse-text: #0f172a;
    --border: #334155;
    --shadow-color: #000000;
    --icon-pad-bg: #1e293b;
    --art-glow: #7dd3fc;
    --art-glow-opacity: 0.18;
    --art-sheen: #ffffff;
    --art-sheen-opacity: 0.18;
    --art-shadow: #000000;
    --art-shadow-opacity: 0.28;
    --art-muted-line: #64748b;
    --art-panel-tint: #1e293b;
    --font-family: 'Inter', 'Segoe UI', 'Kalam', Roboto, Helvetica, Arial, sans-serif;
    --radius-xl: 16px;
    --font-family-headline: 'Inter', 'Segoe UI', 'Kalam', Roboto, Helvetica, Arial, sans-serif;
    --font-family-body: 'Inter', 'Segoe UI', 'Kalam', Roboto, Helvetica, Arial, sans-serif;
    --font-heading: 'Inter', 'Segoe UI', 'Kalam', Roboto, Helvetica, Arial, sans-serif;
    --font-body: 'Inter', 'Segoe UI', 'Kalam', Roboto, Helvetica, Arial, sans-serif;
    --font-size-h1: 56px;
    --font-size-h2: 40px;
    --font-size-h3: 28px;
    --font-size-body: 24px;
    --font-size-caption: 18px;
    --secondary-text: var(--muted-text);
    --panel-border: var(--border);
    --font-weight-normal: 400;
    --font-weight-medium: 500;
    --font-weight-semibold: 600;
    --font-weight-bold: 700;
    --spacing-gutter-pct: 0.07;
    --spacing-top-pct: 0.15;
    --spacing-bottom-pct: 0.07;
    --spacing-title-y-pct: 0.055;
    --accent-1: #22d3ee;
    --accent-2: #38bdf8;
    --accent-3: #60a5fa;
    --accent-4: #818cf8;
    --accent-5: #a78bfa;
    --accent-6: #2dd4bf;
}
:root[data-theme="dark"] {
    --background: #0f172a;
    --panel: #1e293b;
    --primary-text: #f1f5f9;
    --muted-text: #94a3b8;
    --inverse-text: #0f172a;
    --border: #334155;
    --shadow-color: #000000;
    --icon-pad-bg: #1e293b;
    --art-glow: #7dd3fc;
    --art-glow-opacity: 0.18;
    --art-sheen: #ffffff;
    --art-sheen-opacity: 0.18;
    --art-shadow: #000000;
    --art-shadow-opacity: 0.28;
    --art-muted-line: #64748b;
    --art-panel-tint: #1e293b;
    --accent-1: #22d3ee;
    --accent-2: #38bdf8;
    --accent-3: #60a5fa;
    --accent-4: #818cf8;
    --accent-5: #a78bfa;
    --accent-6: #2dd4bf;
}
:root[data-theme="light"] {
    --background: #f8fafc;
    --panel: #ffffff;
    --primary-text: #0f172a;
    --muted-text: #64748b;
    --inverse-text: #ffffff;
    --border: #e2e8f0;
    --shadow-color: #000000;
    --icon-pad-bg: #1e293b;
    --art-glow: #0891b2;
    --art-glow-opacity: 0.10;
    --art-sheen: #ffffff;
    --art-sheen-opacity: 0.34;
    --art-shadow: #0f172a;
    --art-shadow-opacity: 0.14;
    --art-muted-line: #94a3b8;
    --art-panel-tint: #f1f5f9;
    --accent-1: #0891b2;
    --accent-2: #0284c7;
    --accent-3: #2563eb;
    --accent-4: #4f46e5;
    --accent-5: #7c3aed;
    --accent-6: #0d9488;
}</style>
  <rect x="0" y="0" width="1.92E+3" height="1.08E+3" fill="#252a34" stroke="none" id="programmatic_background"/>
  <line id="HEADER_DECOR" x1="960.0" x2="1080.0" y1="135.0" y2="135.0" stroke="var(--accent-1)" stroke-width="6" stroke-linecap="round"/>
  <defs>
    <pattern id="svg9a3b9f9c-napkin-hatch" patternUnits="userSpaceOnUse" width="12" height="12">
      <path d="M -3 12 L 12 -3 M 0 15 L 15 0" fill="none" stroke="var(--primary-text)" stroke-width="1" stroke-opacity="0.05"/>
    </pattern>
    <filter id="svg9a3b9f9c-shadow" x="-30%" y="-30%" width="160%" height="160%">
      <feDropShadow dx="0" dy="2" stdDeviation="3" flood-color="#000000" flood-opacity="0.08"/>
      <feDropShadow dx="0" dy="6" stdDeviation="10" flood-color="#000000" flood-opacity="0.12"/>
    </filter>
    <radialGradient id="svg9a3b9f9c-universal-edge-vignette" cx="50%" cy="50%" r="72%">
      <stop offset="0%" stop-color="var(--background)" stop-opacity="0"/>
      <stop offset="72%" stop-color="var(--background)" stop-opacity="0.12"/>
      <stop offset="100%" stop-color="var(--primary-text)" stop-opacity="0.08"/>
    </radialGradient>
    <linearGradient id="svg9a3b9f9c-universal-surface-sheen" x1="0%" y1="0%" x2="100%" y2="100%">
      <stop offset="0%" stop-color="var(--art-sheen)" stop-opacity="var(--art-sheen-opacity)"/>
      <stop offset="46%" stop-color="var(--art-sheen)" stop-opacity="0.035"/>
      <stop offset="100%" stop-color="var(--art-panel-tint)" stop-opacity="0.14"/>
    </linearGradient>
    <radialGradient id="svg9a3b9f9c-universal-icon-aura" cx="50%" cy="42%" r="64%">
      <stop offset="0%" stop-color="var(--art-glow)" stop-opacity="var(--art-glow-opacity)"/>
      <stop offset="100%" stop-color="var(--background)" stop-opacity="0"/>
    </radialGradient>
    <linearGradient id="svg9a3b9f9c-fact-card-sheen" x1="0%" y1="0%" x2="100%" y2="100%">
      <stop offset="0%" stop-color="var(--inverse-text)" stop-opacity="0.18"/>
      <stop offset="54%" stop-color="var(--inverse-text)" stop-opacity="0.04"/>
      <stop offset="100%" stop-color="var(--background)" stop-opacity="0.14"/>
    </linearGradient>
    <radialGradient id="svg9a3b9f9c-fact-icon-glow" cx="50%" cy="42%" r="62%">
      <stop offset="0%" stop-color="var(--inverse-text)" stop-opacity="0.22"/>
      <stop offset="100%" stop-color="var(--background)" stop-opacity="0"/>
    </radialGradient>
    <filter id="svg9a3b9f9c-text-glow" x="-20%" y="-20%" width="140%" height="140%">
      <feDropShadow dx="0" dy="0" stdDeviation="2" flood-color="#000000" flood-opacity="0.4"/>
    </filter>
    <marker id="svg9a3b9f9c-arrowhead" markerWidth="10" markerHeight="7" refX="9" refY="3.5" orient="auto" markerUnits="strokeWidth">
      <polygon points="0 0, 10 3.5, 0 7" fill="var(--muted-text)" opacity="0.6"/>
    </marker>
  </defs>
  <rect width="100%" height="100%" fill="var(--background)" id="CANVAS_BG"/>
  <rect width="100%" height="100%" fill="url(#svg9a3b9f9c-napkin-hatch)"/>
  <rect id="UNIVERSAL_EDGE_VIGNETTE" width="100%" height="100%" fill="url(#svg9a3b9f9c-universal-edge-vignette)" opacity="0.62"/>
  <line x1="960" y1="178" x2="960" y2="986" stroke="var(--muted-text)" stroke-width="5" stroke-opacity="0.10" stroke-linecap="round"/>
  <path d="M 360 178 C 620 152 1300 152 1560 178" fill="none" stroke="var(--primary-text)" stroke-width="2" stroke-opacity="0.12" stroke-linecap="round"/>
  <text id="TITLE" x="960.0" y="59" font-size="72" font-weight="800" fill="#f1f5f9" style="font-size: 60px; font-family: Inter, Segoe UI, Kalam, Roboto, Helvetica, Arial, sans-serif; font-weight: 700; letter-spacing:-1.2px;" text-anchor="middle" data-final-font-size="60">
    <tspan x="960.0" dy="68.00px">Spielberg's Post-9/11 Cinematic Shift</tspan>
  </text>
  <rect id="TITLE_FRAME" x="134" y="59" width="1652" height="103" fill="none"/>
  <g transform="translate(960.0, 220.0)">
    <rect id="ITEM_1_BG" x="-600" y="-64" width="1200" height="184" rx="18" fill="var(--accent-3)" stroke="var(--accent-1)" filter="url(#svg9a3b9f9c-shadow)" stroke-width="3" fill-opacity="0.4"/>
    <g transform="translate(-480.0, 0.0)">
      <circle r="45" fill="var(--background)" opacity="0.3"/>
      <circle id="ITEM_1_PAD" cx="0" cy="0" r="42" fill="var(--icon-pad-bg)" stroke="var(--primary-text)" opacity="0.9" fill-opacity="0.9" stroke-width="2"/>
      <circle id="ITEM_1_PAD_INNER" cx="0" cy="0" r="32.76" fill="var(--accent-3)" fill-opacity="0.22"/>
      <circle cx="0" cy="0" r="34" fill="none" stroke="var(--accent-1)" stroke-width="3" stroke-dasharray="6 4"/>
      <g id="ITEM_1_ICON" transform="translate(-34, -34)" data-icon-size="68" stroke-dasharray="6 4">
        <g transform="translate(-2.266666666666664,-2.2666666666666666) scale(0.5666666666666667)">
          <path fill="#885742" d="M118.89 75.13a15.7 15.7 0 0 0-7-7.33a22.6 22.6 0 0 0-6-2.63c1.53-5.6-.64-10.06-3.69-13.39c-4.51-4.88-9.2-5.59-9.2-5.59c1.62-3.07 2.11-6.61 1.36-10c-.77-3.69-3.08-6.86-6.36-8.72c-3.1-1.83-6.92-2.73-10.84-3.47c-1.88-.34-9.81-1.45-13.1-6c-2.65-3.69-2.73-10.33-3.45-12.32s-3.38-1.15-6.23.76C51.05 8.7 44.15 15.83 41.49 23a24.6 24.6 0 0 0-1.28 13.89c-2.14.35-4.23.97-6.21 1.85c-.16 0-.32.1-.49.17c-3 1.24-9.43 7-10 15.85c-.21 3.13.19 6.26 1.17 9.24c-2.19.57-4.3 1.43-6.26 2.57c-2.29.98-4.38 2.38-6.15 4.13c-1.95 2.41-3.37 5.2-4.15 8.2a27.6 27.6 0 0 0 2 19.77c1.8 3.47 4.06 6.67 6.74 9.52c8.55 8.79 23.31 12.11 35 14c14.19 2.34 29.05 1.52 42.33-4c19.92-8.22 25.22-21.44 26-25.17c1.73-8.25-.39-16.02-1.3-17.89"/>
          <path fill="#35220B" d="M87.45 92.89c-1.57.8-3.17 1.52-4.78 2.16q-1.62.645-3.27 1.17c-1.1.36-2.21.67-3.33 1c-2.24.56-4.52.97-6.82 1.21c-1.74.19-3.5.28-5.25.28c-4.62 0-9.22-.65-13.67-1.91l-1.46-.44a55 55 0 0 1-7.15-2.84l-1.39-.69a22.72 22.72 0 0 0 12.72 15.31c3.43 1.59 7.17 2.4 10.95 2.38c3.82.03 7.6-.75 11.09-2.31a21.87 21.87 0 0 0 12.58-15.44z"/>
          <path fill="#FFF" d="M85.19 90c-7 1.23-14.09 1.82-21.19 1.77c-7.1.04-14.19-.55-21.19-1.77a2.16 2.16 0 0 0-2.53 2.54v.25A51.6 51.6 0 0 0 64 98.66c1.75 0 3.51-.09 5.25-.28c2.3-.24 4.58-.65 6.82-1.21c1.12-.28 2.23-.59 3.33-1s2.19-.74 3.27-1.17c1.62-.67 3.21-1.39 4.78-2.16l.22-.12l.06-.27c.17-1.19-.66-2.29-1.86-2.46a2.2 2.2 0 0 0-.68.01"/>
          <circle cx="80.13" cy="69.49" r="12.4" fill="#FFF"/>
          <ellipse cx="80.13" cy="69.49" fill="#35220B" rx="5.73" ry="5.82"/>
          <circle cx="47.87" cy="69.49" r="12.4" fill="#FFF"/>
          <ellipse cx="47.87" cy="69.49" fill="#35220B" rx="5.73" ry="5.82"/>
        </g>
      </g>
    </g>
    <g transform="translate(-330, -34)">
      <text id="ITEM_1_HEAD" text-anchor="start" font-weight="bold" font-size="29" fill="var(--primary-text)" x="0.0" y="-10.0" data-bg-id="ITEM_1_BG" fill-opacity="1.0" stroke="none" style="font-size: 30px; font-family: Inter, Segoe UI, Kalam, Roboto, Helvetica, Arial, sans-serif; font-weight: 700; letter-spacing:-0.4px;" data-final-font-size="30">
        <tspan x="0.0" dy="33.03px">Atmospheric Parallels</tspan>
      </text>
      <rect id="ITEM_1_HEAD_FRAME" x="0" y="-10" width="846" height="42" fill="none"/>
      <text id="ITEM_1_BODY" text-anchor="start" font-size="21" fill="var(--primary-text)" x="0.0" y="30.0" data-bg-id="ITEM_1_BG" style="font-size: 26px; font-family: Inter, Segoe UI, Kalam, Roboto, Helvetica, Arial, sans-serif; font-weight: 400;" data-final-font-size="26">
        <tspan x="0.0" dy="42.18px">Visuals evoke dust and debris from sudden destruction</tspan>
      </text>
      <rect id="ITEM_1_BODY_FRAME" x="0" y="30" width="846" height="114" fill="none"/>
    </g>
  </g>
  <g transform="translate(960.0, 390.0)">
    <rect id="ITEM_2_BG" x="-600" y="-64" width="1200" height="184" rx="18" fill="var(--accent-4)" stroke="var(--accent-2)" filter="url(#svg9a3b9f9c-shadow)" stroke-width="3" fill-opacity="0.4"/>
    <g transform="translate(-480.0, 0.0)">
      <circle r="45" fill="var(--background)" opacity="0.3"/>
      <circle id="ITEM_2_PAD" cx="0" cy="0" r="42" fill="var(--icon-pad-bg)" stroke="var(--primary-text)" opacity="0.9" fill-opacity="0.9" stroke-width="2"/>
      <circle id="ITEM_2_PAD_INNER" cx="0" cy="0" r="32.76" fill="var(--accent-4)" fill-opacity="0.22"/>
      <circle cx="0" cy="0" r="34" fill="none" stroke="var(--accent-1)" stroke-width="3" stroke-dasharray="6 4"/>
      <g id="ITEM_2_ICON" transform="translate(-34, -34)" data-icon-size="68" stroke-dasharray="6 4">
        <g transform="translate(-2.571428571428572,-2.2857142857142856) scale(3.0476190476190474)" vector-effect="non-scaling-stroke" stroke-width="2.53" stroke-linecap="round" stroke-linejoin="round" stroke-opacity="1.0">
          <path d="M4.9 16.1C1 12.2 1 5.8 4.9 1.9" vector-effect="non-scaling-stroke" fill="none" stroke="#f1f5f9"/>
          <path d="M7.8 4.7a6.14 6.14 0 0 0-.8 7.5" vector-effect="non-scaling-stroke" fill="none" stroke="#f1f5f9"/>
          <circle cx="12" cy="9" r="2" vector-effect="non-scaling-stroke" fill="none" stroke="#f1f5f9"/>
          <path d="M16.2 4.8c2 2 2.26 5.11.8 7.47" vector-effect="non-scaling-stroke" fill="none" stroke="#f1f5f9"/>
          <path d="M19.1 1.9a9.96 9.96 0 0 1 0 14.1" vector-effect="non-scaling-stroke" fill="none" stroke="#f1f5f9"/>
          <path d="M9.5 18h5" vector-effect="non-scaling-stroke" fill="none" stroke="#f1f5f9"/>
          <path d="m8 22 4-11 4 11" vector-effect="non-scaling-stroke" fill="none" stroke="#f1f5f9"/>
        </g>
      </g>
    </g>
    <g transform="translate(-330, -34)">
      <text id="ITEM_2_HEAD" text-anchor="start" font-weight="bold" font-size="29" fill="var(--primary-text)" x="0.0" y="-10.0" data-bg-id="ITEM_2_BG" fill-opacity="1.0" stroke="none" style="font-size: 30px; font-family: Inter, Segoe UI, Kalam, Roboto, Helvetica, Arial, sans-serif; font-weight: 700; letter-spacing:-0.4px;" data-final-font-size="30">
        <tspan x="0.0" dy="33.03px">Communication Failure</tspan>
      </text>
      <rect id="ITEM_2_HEAD_FRAME" x="0" y="-10" width="846" height="42" fill="none"/>
      <text id="ITEM_2_BODY" text-anchor="start" font-size="21" fill="var(--primary-text)" x="0.0" y="30.0" data-bg-id="ITEM_2_BG" style="font-size: 26px; font-family: Inter, Segoe UI, Kalam, Roboto, Helvetica, Arial, sans-serif; font-weight: 400;" data-final-font-size="26">
        <tspan x="0.0" dy="42.18px">Incomplete information causes widespread public confusion and panic</tspan>
      </text>
      <rect id="ITEM_2_BODY_FRAME" x="0" y="30" width="846" height="114" fill="none"/>
    </g>
  </g>
  <g transform="translate(960.0, 560.0)">
    <rect id="ITEM_3_BG" x="-600" y="-64" width="1200" height="184" rx="18" fill="var(--accent-5)" stroke="var(--accent-3)" filter="url(#svg9a3b9f9c-shadow)" stroke-width="3" fill-opacity="0.4"/>
    <g transform="translate(-480.0, 0.0)">
      <circle r="45" fill="var(--background)" opacity="0.3"/>
      <circle id="ITEM_3_PAD" cx="0" cy="0" r="42" fill="var(--icon-pad-bg)" stroke="var(--primary-text)" opacity="0.9" fill-opacity="0.9" stroke-width="2"/>
      <circle id="ITEM_3_PAD_INNER" cx="0" cy="0" r="32.76" fill="var(--accent-5)" fill-opacity="0.22"/>
      <circle cx="0" cy="0" r="34" fill="none" stroke="var(--accent-2)" stroke-width="3" stroke-dasharray="6 4"/>
      <g id="ITEM_3_ICON" transform="translate(-34, -34)" data-icon-size="68" stroke-dasharray="6 4">
        <g transform="translate(-2.571428571428571,-5.142857142857142) scale(3.0476190476190474)">
          <circle cx="73.12" cy="97.81" r="6.37" style="fill:#1d8cc8;"/>
          <path d="M79.32,96.34L67.21,100.19L56.36,75.81L71.36,70.4L79.32,96.34Z" style="fill:#1d8cc8;fill-rule:nonzero;"/>
          <path d="M98.28,100.22L95.09,110.9L71.22,103.89L74.96,92.07L98.28,100.22Z" style="fill:#1d8cc8;fill-rule:nonzero;"/>
          <path d="M103.99,105.51L101.19,114.81C100.761,116.246 99.431,117.238 97.932,117.238C97.596,117.238 97.262,117.188 96.94,117.09L96.78,117.04C95.344,116.611 94.352,115.281 94.352,113.782C94.352,113.446 94.402,113.112 94.5,112.79L97.3,103.49C97.729,102.054 99.059,101.062 100.558,101.062C100.894,101.062 101.228,101.112 101.55,101.21L101.71,101.26C103.52,101.8 104.54,103.7 103.99,105.51Z" style="fill:#4568ad;fill-rule:nonzero;"/>
          <path d="M96.527,116.964L101.299,101.127L105.828,102.491L101.056,118.328L96.527,116.964Z" style="fill:#4568ad;fill-rule:nonzero;"/>
          <path d="M96.632,105.68L98.282,100.203L101.959,101.311L100.309,106.788L96.632,105.68Z" style="fill:#4568ad;fill-rule:nonzero;"/>
          <circle cx="48.73" cy="96.59" r="6.37" style="fill:#42ade7;"/>
          <path d="M53.08,101.15L43.56,92.74L58.89,70.91L71.25,81L53.08,101.15Z" style="fill:#42ade7;fill-rule:nonzero;"/>
          <path d="M40.48,121.27L30.77,115.78L43.1,93.58L53.79,99.86L40.48,121.27Z" style="fill:#42ade7;fill-rule:nonzero;"/>
          <path d="M34.02,125.55L25.57,120.75C24.505,120.145 23.845,119.01 23.845,117.785C23.845,117.194 23.998,116.614 24.29,116.1L24.37,115.95C24.975,114.885 26.11,114.225 27.335,114.225C27.926,114.225 28.506,114.378 29.02,114.67L37.47,119.47C38.535,120.075 39.195,121.21 39.195,122.435C39.195,123.026 39.042,123.606 38.75,124.12L38.67,124.27C37.744,125.895 35.647,126.472 34.02,125.55Z" style="fill:#4568ad;fill-rule:nonzero;"/>
          <path d="M24.515,115.706L38.893,123.88L36.555,127.992L22.177,119.818L24.515,115.706Z" style="fill:#4568ad;fill-rule:nonzero;"/>
          <path d="M35.489,118.315L40.461,121.142L38.563,124.48L33.591,121.653L35.489,118.315Z" style="fill:#4568ad;fill-rule:nonzero;"/>
          <circle cx="65.08" cy="75.96" r="7.97" style="fill:#42ade7;"/>
          <path d="M46.873,67.696L41.075,63.393L49.781,51.66L55.579,55.962L46.873,67.696Z" style="fill:#fbc11b;fill-rule:nonzero;"/>
          <circle cx="43.95" cy="65.53" r="3.66" style="fill:#fbc11b;"/>
          <path d="M45.41,54.57L54.63,61.16L61.45,51.62C63.209,49.153 62.632,45.676 60.17,43.91L59.94,43.75C57.473,41.991 53.996,42.568 52.23,45.03L45.41,54.57Z" style="fill:#bf3f0c;fill-rule:nonzero;"/>
          <path d="M32.207,70.402L31.471,63.22L43.777,61.96L44.513,69.142L32.207,70.402Z" style="fill:#fbc11b;fill-rule:nonzero;"/>
          <path d="M23.57,67.45L23.59,67.68C23.819,70.013 25.804,71.812 28.148,71.812C28.299,71.812 28.45,71.805 28.6,71.79L31.18,71.53C33.513,71.301 35.312,69.316 35.312,66.972C35.312,66.821 35.305,66.67 35.29,66.52L35.27,66.29C35.041,63.957 33.056,62.158 30.712,62.158C30.561,62.158 30.41,62.165 30.26,62.18L27.68,62.44C25.348,62.666 23.547,64.649 23.547,66.993C23.547,67.145 23.555,67.298 23.57,67.45Z" style="fill:#fbc11b;fill-rule:nonzero;"/>
          <path d="M57.78,30.92L60.37,41.08L52.86,43.98L45.02,24.7L57.78,30.92Z" style="fill:#fbc11b;fill-rule:nonzero;"/>
          <path d="M57.2,20.62L59.23,37.98L47.91,39.39C42.65,40.05 37.91,36.17 37.51,30.88L37.03,24.47C36.58,18.55 41.35,13.53 47.28,13.67L49.64,13.73C53.53,13.83 56.75,16.76 57.2,20.62Z" style="fill:#fbc11b;fill-rule:nonzero;"/>
          <path d="M41.69,27.99C41.77,28.76 41.31,29.44 40.67,29.5C40.03,29.56 39.45,28.99 39.38,28.22C39.3,27.45 39.76,26.77 40.4,26.71C41.04,26.64 41.61,27.22 41.69,27.99" style="fill:#444;fill-rule:nonzero;"/>
          <path d="M70.04,75.11L57.6,78.06C55.22,78.62 52.84,77.15 52.27,74.78L49.21,51.81C48.8,48.06 48.49,41.7 53.46,40.53L57.76,39.51C62.04,38.5 65.02,43.13 66.27,47.54L73.33,69.78C73.889,72.144 72.404,74.55 70.04,75.11Z" style="fill:#e65100;fill-rule:nonzero;"/>
          <path d="M79.703,55.924L76.1,62.182L63.437,54.892L67.039,48.635L79.703,55.924Z" style="fill:#fbc11b;fill-rule:nonzero;"/>
          <circle cx="77.89" cy="59.07" r="3.66" style="fill:#fbc11b;"/>
          <path d="M66.83,58.9L72.3,48.98L62.04,43.31C59.384,41.85 55.998,42.829 54.53,45.48L54.4,45.72C52.94,48.376 53.919,51.762 56.57,53.23L66.83,58.9Z" style="fill:#bf3f0c;fill-rule:nonzero;"/>
          <path d="M86.903,68.645L80.484,71.952L74.819,60.955L81.238,57.648L86.903,68.645Z" style="fill:#fbc11b;fill-rule:nonzero;"/>
          <path d="M87.3,77.76L87.5,77.66C89.03,76.879 89.996,75.3 89.996,73.582C89.996,72.855 89.822,72.137 89.49,71.49L88.31,69.19C87.529,67.66 85.95,66.694 84.232,66.694C83.505,66.694 82.787,66.868 82.14,67.2L81.94,67.3C80.41,68.081 79.444,69.66 79.444,71.378C79.444,72.105 79.618,72.823 79.95,73.47L81.13,75.77C82.28,78.004 85.061,78.901 87.3,77.76Z" style="fill:#fbc11b;fill-rule:nonzero;"/>
          <path d="M70.326,31.373C67.946,33.651 67.007,29.712 65.482,26.925C64.635,25.377 62.863,23.982 62.83,22.56C62.773,20.06 62.26,20.17 61.2,19.54C61.2,19.54 59.85,22.335 59.168,22.56C58.486,22.785 57.417,22.075 57.11,20.89L56.5,18.53C56.236,17.508 55.494,16.673 54.51,16.29C54.51,16.29 47.15,14.697 48.362,8.971C49.253,4.762 50.263,9.735 57.96,6.15C59.211,5.567 61.53,5.482 62.83,5.612C68.85,6.202 72.859,11.379 71.099,17.161C69.705,21.74 75.809,26.121 70.326,31.373Z" style="fill:#6d4c41;fill-rule:nonzero;"/>
        </g>
      </g>
    </g>
    <g transform="translate(-330, -34)">
      <text id="ITEM_3_HEAD" text-anchor="start" font-weight="bold" font-size="29" fill="var(--primary-text)" x="0.0" y="-10.0" data-bg-id="ITEM_3_BG" fill-opacity="1.0" stroke="none" style="font-size: 30px; font-family: Inter, Segoe UI, Kalam, Roboto, Helvetica, Arial, sans-serif; font-weight: 700; letter-spacing:-0.4px;" data-final-font-size="30">
        <tspan x="0.0" dy="33.03px">Disorientation Focus</tspan>
      </text>
      <rect id="ITEM_3_HEAD_FRAME" x="0" y="-10" width="846" height="42" fill="none"/>
      <text id="ITEM_3_BODY" text-anchor="start" font-size="21" fill="var(--primary-text)" x="0.0" y="30.0" data-bg-id="ITEM_3_BG" style="font-size: 26px; font-family: Inter, Segoe UI, Kalam, Roboto, Helvetica, Arial, sans-serif; font-weight: 400;" data-final-font-size="26">
        <tspan x="0.0" dy="42.18px">Ordinary people experience chaos rather than organized resistance</tspan>
      </text>
      <rect id="ITEM_3_BODY_FRAME" x="0" y="30" width="846" height="114" fill="none"/>
    </g>
  </g>
  <g transform="translate(960.0, 730.0)">
    <rect id="ITEM_4_BG" x="-600" y="-64" width="1200" height="184" rx="18" fill="var(--accent-6)" stroke="var(--accent-4)" filter="url(#svg9a3b9f9c-shadow)" stroke-width="3" fill-opacity="0.4"/>
    <g transform="translate(-480.0, 0.0)">
      <circle r="45" fill="var(--background)" opacity="0.3"/>
      <circle id="ITEM_4_PAD" cx="0" cy="0" r="42" fill="var(--icon-pad-bg)" stroke="var(--primary-text)" opacity="0.9" fill-opacity="0.9" stroke-width="2"/>
      <circle id="ITEM_4_PAD_INNER" cx="0" cy="0" r="32.76" fill="var(--accent-6)" fill-opacity="0.22"/>
      <circle cx="0" cy="0" r="34" fill="none" stroke="var(--accent-3)" stroke-width="3" stroke-dasharray="6 4"/>
      <g id="ITEM_4_ICON" transform="translate(-34, -34)" data-icon-size="68" stroke-dasharray="6 4">
        <g transform="translate(-1.6585365853658538,-1.6585365853658538) scale(5.05458768873403)" vector-effect="non-scaling-stroke" stroke-width="2.53" stroke-linecap="round" stroke-linejoin="round" stroke-opacity="1.0">
          <path id="Vector 1313" fill="none" d="M3.5148 5.72978v1.56669l3.54433 -1.99223 3.54437 1.99223V5.72978c0 -1.95748 -1.58689 -3.54433 -3.54437 -3.54433 -1.95748 0 -3.54433 1.58685 -3.54433 3.54433Z" vector-effect="non-scaling-stroke" stroke="#f1f5f9"/>
          <path id="Vector 1315" stroke="#f1f5f9" d="M3.5148 7.29646V5.72977c0 -1.95748 1.58685 -3.54433 3.54433 -3.54433 1.95748 0 3.54437 1.58685 3.54437 3.54433v1.56669" vector-effect="non-scaling-stroke" fill="none"/>
          <path id="Vector 1316" fill="none" d="M12.3756 13.2614H1.74265V8.83106l10.63295 -0.00001v4.43035Z" vector-effect="non-scaling-stroke" stroke="#f1f5f9"/>
          <path id="Vector 1314" fill="none" d="M13.2617 8.83104H0.856567L7.05915 5.28671l6.20255 3.54433Z" vector-effect="non-scaling-stroke" stroke="#f1f5f9"/>
          <path id="Vector 1317" stroke="#f1f5f9" d="M13.2617 8.83104H0.856567L7.05915 5.28671l6.20255 3.54433Z" vector-effect="non-scaling-stroke" fill="none"/>
          <path id="Vector 613" stroke="#f1f5f9" d="M0.856567 13.2615H13.2617" vector-effect="non-scaling-stroke" fill="none"/>
          <path id="Vector 614" stroke="#f1f5f9" d="M1.74265 8.83102v4.43038" vector-effect="non-scaling-stroke" fill="none"/>
          <path id="Vector 616" stroke="#f1f5f9" d="M4.40088 8.83102v4.43038" vector-effect="non-scaling-stroke" fill="none"/>
          <path id="Vector 1054" stroke="#f1f5f9" d="M7.05911 8.83102v4.43038" vector-effect="non-scaling-stroke" fill="none"/>
          <path id="Vector 617" stroke="#f1f5f9" d="M9.71735 8.83102v4.43038" vector-effect="non-scaling-stroke" fill="none"/>
          <path id="Vector 615" stroke="#f1f5f9" d="M12.3756 8.83102v4.43038" vector-effect="non-scaling-stroke" fill="none"/>
          <path id="Vector 1053" stroke="#f1f5f9" d="M7.05917 2.18545V0.856323" vector-effect="non-scaling-stroke" fill="none"/>
        </g>
      </g>
    </g>
    <g transform="translate(-330, -34)">
      <text id="ITEM_4_HEAD" text-anchor="start" font-weight="bold" font-size="29" fill="var(--primary-text)" x="0.0" y="-10.0" data-bg-id="ITEM_4_BG" fill-opacity="1.0" stroke="none" style="font-size: 30px; font-family: Inter, Segoe UI, Kalam, Roboto, Helvetica, Arial, sans-serif; font-weight: 700; letter-spacing:-0.4px;" data-final-font-size="30">
        <tspan x="0.0" dy="33.03px">Institutional Powerlessness</tspan>
      </text>
      <rect id="ITEM_4_HEAD_FRAME" x="0" y="-10" width="846" height="42" fill="none"/>
      <text id="ITEM_4_BODY" text-anchor="start" font-size="21" fill="var(--primary-text)" x="0.0" y="30.0" data-bg-id="ITEM_4_BG" style="font-size: 26px; font-family: Inter, Segoe UI, Kalam, Roboto, Helvetica, Arial, sans-serif; font-weight: 400;" data-final-font-size="26">
        <tspan x="0.0" dy="42.18px">Military and government entities remain at the story edge</tspan>
      </text>
      <rect id="ITEM_4_BODY_FRAME" x="0" y="30" width="846" height="114" fill="none"/>
    </g>
  </g>
  <g transform="translate(960.0, 900.0)">
    <rect id="ITEM_5_BG" x="-600" y="-64" width="1200" height="184" rx="18" fill="var(--accent-1)" stroke="var(--accent-5)" filter="url(#svg9a3b9f9c-shadow)" stroke-width="3" fill-opacity="0.4"/>
    <g transform="translate(-480.0, 0.0)">
      <circle r="45" fill="var(--background)" opacity="0.3"/>
      <circle id="ITEM_5_PAD" cx="0" cy="0" r="42" fill="var(--icon-pad-bg)" stroke="var(--primary-text)" opacity="0.9" fill-opacity="0.9" stroke-width="2"/>
      <circle id="ITEM_5_PAD_INNER" cx="0" cy="0" r="32.76" fill="var(--accent-1)" fill-opacity="0.22"/>
      <circle cx="0" cy="0" r="34" fill="none" stroke="var(--accent-4)" stroke-width="3" stroke-dasharray="6 4"/>
      <g id="ITEM_5_ICON" transform="translate(-34, -34)" data-icon-size="68" stroke-dasharray="6 4">
        <g transform="translate(-6.3749999999999964,-4.857142857142857) scale(2.4285714285714284)">
          <path d="M16.8701 25.9102L15.1301 24.9102L18.9501 18.3002L20.6801 19.3002L16.8701 25.9102Z" fill="#D3D3D3"/>
          <path d="M24.7601 10.8701L24.7301 10.8501L24.7201 10.8402L14.2001 2.91015L14.1801 2.89015L14.1401 2.86015C13.4101 2.33015 12.5001 2.01015 11.5301 2.00015C9.06009 1.98015 7.02009 4.00015 7.00009 6.47015C6.99009 8.09015 7.83009 9.51014 9.10009 10.3101L12.6801 12.5402C13.3701 12.9702 14.2001 13.1101 14.9901 12.9201L15.7301 12.7402C16.0801 12.6602 16.4501 12.7301 16.7501 12.9501L18.4754 14.3106L16.5101 17.7102C15.6001 19.2802 16.1401 21.3002 17.7201 22.2102C19.3001 23.1202 21.3201 22.5801 22.2201 21.0101L25.495 15.3205C25.8455 14.7965 26.0501 14.1668 26.0501 13.4902C26.0501 12.4302 25.5501 11.4801 24.7601 10.8701Z" fill="#9B9B9B"/>
          <path d="M14.0001 28.8901V25.4001C14.0055 24.3002 14.8989 23.4102 16.0001 23.4102C16.5307 23.4102 17.0131 23.6168 17.3711 23.954L17.3801 23.9501L21.5901 27.6501C21.8501 27.8801 22.1901 28.0101 22.5401 28.0001H23.0001C23.5501 28.0001 24.0001 28.4501 24.0001 29.0001C24.0001 29.5501 23.5501 30.0001 23.0001 30.0001H15.1101C14.5001 30.0001 14.0001 29.5101 14.0001 28.8901Z" fill="#9B9B9B"/>
          <path d="M11.5001 8.50014C12.5992 8.50014 13.4901 7.60919 13.4901 6.51014C13.4901 5.41109 12.5992 4.52014 11.5001 4.52014C10.4011 4.52014 9.51013 5.41109 9.51013 6.51014C9.51013 7.60919 10.4011 8.50014 11.5001 8.50014Z" fill="#D3D3D3"/>
          <path d="M22.7501 15.1101C23.6448 15.1101 24.3701 14.3848 24.3701 13.4901C24.3701 12.5954 23.6448 11.8701 22.7501 11.8701C21.8554 11.8701 21.1301 12.5954 21.1301 13.4901C21.1301 14.3848 21.8554 15.1101 22.7501 15.1101Z" fill="#D3D3D3"/>
          <path d="M16.7501 25.4102C16.7501 25.8244 16.4143 26.1602 16.0001 26.1602C15.5859 26.1602 15.2501 25.8244 15.2501 25.4102C15.2501 24.9959 15.5859 24.6602 16.0001 24.6602C16.4143 24.6602 16.7501 24.9959 16.7501 25.4102Z" fill="#D3D3D3"/>
          <path d="M17.9729 15.1799L18.4754 14.3106L16.9432 13.1024L16.9471 13.0975L20.9597 16.2615C21.2392 16.4723 21.6167 16.665 21.9975 16.805C22.3868 16.9481 22.7282 17.0173 22.9299 17.0173C23.8267 17.0173 24.5683 16.6458 25.1118 15.9863L24.0293 17.867C23.6896 17.9649 23.323 18.0173 22.9299 18.0173C22.5611 18.0173 22.0938 17.9058 21.6525 17.7435C21.2043 17.5788 20.7309 17.3426 20.3523 17.0559L20.3445 17.05L17.9729 15.1799Z" fill="#636363"/>
          <path d="M14.0001 25.4299V28H16C16.2344 28 16.336 27.5547 16 27.5C14.8656 27.3153 14.0103 26.526 14.0001 25.4299Z" fill="#636363"/>
        </g>
      </g>
    </g>
    <g transform="translate(-330, -34)">
      <text id="ITEM_5_HEAD" text-anchor="start" font-weight="bold" font-size="29" fill="var(--primary-text)" x="0.0" y="-10.0" data-bg-id="ITEM_5_BG" fill-opacity="1.0" stroke="none" style="font-size: 30px; font-family: Inter, Segoe UI, Kalam, Roboto, Helvetica, Arial, sans-serif; font-weight: 700; letter-spacing:-0.4px;" data-final-font-size="30">
        <tspan x="0.0" dy="33.03px">Unpredictable Threats</tspan>
      </text>
      <rect id="ITEM_5_HEAD_FRAME" x="0" y="-10" width="846" height="42" fill="none"/>
      <text id="ITEM_5_BODY" text-anchor="start" font-size="21" fill="var(--primary-text)" x="0.0" y="30.0" data-bg-id="ITEM_5_BG" style="font-size: 26px; font-family: Inter, Segoe UI, Kalam, Roboto, Helvetica, Arial, sans-serif; font-weight: 400;" data-final-font-size="26">
        <tspan x="0.0" dy="42.18px">Aliens represent fears impossible to predict or fully comprehend</tspan>
      </text>
      <rect id="ITEM_5_BODY_FRAME" x="0" y="30" width="846" height="114" fill="none"/>
    </g>
  </g>
</svg>
