<?xml version='1.0' encoding='utf-8'?>
<svg xmlns="http://www.w3.org/2000/svg" width="1920" height="1080" viewBox="0 0 1920 1080" data-theme="light">
  <style>
        @font-face {
            font-family: 'Inter';
            src: url('assets/fonts/Inter-Regular.ttf') format('truetype');
            font-weight: 400;
            font-style: normal;
            font-display: swap;
        }
        @font-face {
            font-family: 'Inter';
            src: url('assets/fonts/Inter-Bold.ttf') format('truetype');
            font-weight: 600;
            font-style: normal;
            font-display: swap;
        }
        @font-face {
            font-family: 'Inter';
            src: url('assets/fonts/Inter-Bold.ttf') format('truetype');
            font-weight: 800;
            font-style: normal;
            font-display: swap;
        }
        
:root {
    --background: #f8fafc;
    --panel: #ffffff;
    --primary-text: #0f172a;
    --muted-text: #64748b;
    --inverse-text: #ffffff;
    --border: #e2e8f0;
    --shadow-color: #000000;
    --icon-pad-bg: #1e293b;
    --art-glow: #0891b2;
    --art-glow-opacity: 0.10;
    --art-sheen: #ffffff;
    --art-sheen-opacity: 0.34;
    --art-shadow: #0f172a;
    --art-shadow-opacity: 0.14;
    --art-muted-line: #94a3b8;
    --art-panel-tint: #f1f5f9;
    --font-family: 'Inter', 'Segoe UI', 'Kalam', Roboto, Helvetica, Arial, sans-serif;
    --radius-xl: 16px;
    --font-family-headline: 'Inter', 'Segoe UI', 'Kalam', Roboto, Helvetica, Arial, sans-serif;
    --font-family-body: 'Inter', 'Segoe UI', 'Kalam', Roboto, Helvetica, Arial, sans-serif;
    --font-heading: 'Inter', 'Segoe UI', 'Kalam', Roboto, Helvetica, Arial, sans-serif;
    --font-body: 'Inter', 'Segoe UI', 'Kalam', Roboto, Helvetica, Arial, sans-serif;
    --font-size-h1: 56px;
    --font-size-h2: 40px;
    --font-size-h3: 28px;
    --font-size-body: 24px;
    --font-size-caption: 18px;
    --secondary-text: var(--muted-text);
    --panel-border: var(--border);
    --font-weight-normal: 400;
    --font-weight-medium: 500;
    --font-weight-semibold: 600;
    --font-weight-bold: 700;
    --spacing-gutter-pct: 0.07;
    --spacing-top-pct: 0.15;
    --spacing-bottom-pct: 0.07;
    --spacing-title-y-pct: 0.055;
    --accent-1: #0891b2;
    --accent-2: #db2777;
    --accent-3: #ca8a04;
    --accent-4: #65a30d;
    --accent-5: #ea580c;
    --accent-6: #9333ea;
}
:root[data-theme="dark"] {
    --background: #0f172a;
    --panel: #1e293b;
    --primary-text: #f1f5f9;
    --muted-text: #94a3b8;
    --inverse-text: #0f172a;
    --border: #334155;
    --shadow-color: #000000;
    --icon-pad-bg: #1e293b;
    --art-glow: #7dd3fc;
    --art-glow-opacity: 0.18;
    --art-sheen: #ffffff;
    --art-sheen-opacity: 0.18;
    --art-shadow: #000000;
    --art-shadow-opacity: 0.28;
    --art-muted-line: #64748b;
    --art-panel-tint: #1e293b;
    --accent-1: #22d3ee;
    --accent-2: #f472b6;
    --accent-3: #facc15;
    --accent-4: #a3e635;
    --accent-5: #fb923c;
    --accent-6: #c084fc;
}
:root[data-theme="light"] {
    --background: #f8fafc;
    --panel: #ffffff;
    --primary-text: #0f172a;
    --muted-text: #64748b;
    --inverse-text: #ffffff;
    --border: #e2e8f0;
    --shadow-color: #000000;
    --icon-pad-bg: #1e293b;
    --art-glow: #0891b2;
    --art-glow-opacity: 0.10;
    --art-sheen: #ffffff;
    --art-sheen-opacity: 0.34;
    --art-shadow: #0f172a;
    --art-shadow-opacity: 0.14;
    --art-muted-line: #94a3b8;
    --art-panel-tint: #f1f5f9;
    --accent-1: #0891b2;
    --accent-2: #db2777;
    --accent-3: #ca8a04;
    --accent-4: #65a30d;
    --accent-5: #ea580c;
    --accent-6: #9333ea;
}</style>
  <rect x="0" y="0" width="1.92E+3" height="1.08E+3" fill="#252a34" stroke="none" id="programmatic_background"/>
  <line id="HEADER_DECOR" x1="960.0" x2="1080.0" y1="135.0" y2="135.0" stroke="var(--accent-1)" stroke-width="6" stroke-linecap="round"/>
  <defs>
    <pattern id="svg5db0644c-napkin-hatch" patternUnits="userSpaceOnUse" width="12" height="12">
      <path d="M -3 12 L 12 -3 M 0 15 L 15 0" fill="none" stroke="var(--primary-text)" stroke-width="1" stroke-opacity="0.05"/>
    </pattern>
    <filter id="svg5db0644c-shadow" x="-30%" y="-30%" width="160%" height="160%">
      <feDropShadow dx="0" dy="3" stdDeviation="4" flood-color="#000000" flood-opacity="0.10"/>
      <feDropShadow dx="0" dy="10" stdDeviation="16" flood-color="#000000" flood-opacity="0.12"/>
    </filter>
    <radialGradient id="svg5db0644c-universal-edge-vignette" cx="50%" cy="50%" r="72%">
      <stop offset="0%" stop-color="var(--background)" stop-opacity="0"/>
      <stop offset="72%" stop-color="var(--background)" stop-opacity="0.12"/>
      <stop offset="100%" stop-color="var(--primary-text)" stop-opacity="0.08"/>
    </radialGradient>
    <linearGradient id="svg5db0644c-universal-surface-sheen" x1="0%" y1="0%" x2="100%" y2="100%">
      <stop offset="0%" stop-color="var(--art-sheen)" stop-opacity="var(--art-sheen-opacity)"/>
      <stop offset="46%" stop-color="var(--art-sheen)" stop-opacity="0.035"/>
      <stop offset="100%" stop-color="var(--art-panel-tint)" stop-opacity="0.14"/>
    </linearGradient>
    <radialGradient id="svg5db0644c-universal-icon-aura" cx="50%" cy="42%" r="64%">
      <stop offset="0%" stop-color="var(--art-glow)" stop-opacity="var(--art-glow-opacity)"/>
      <stop offset="100%" stop-color="var(--background)" stop-opacity="0"/>
    </radialGradient>
    <filter id="svg5db0644c-text-glow" x="-20%" y="-20%" width="140%" height="140%">
      <feDropShadow dx="0" dy="0" stdDeviation="2" flood-color="#000000" flood-opacity="0.4"/>
    </filter>
    <marker id="svg5db0644c-arrowhead" markerWidth="10" markerHeight="7" refX="9" refY="3.5" orient="auto" markerUnits="strokeWidth">
      <polygon points="0 0, 10 3.5, 0 7" fill="var(--muted-text)" opacity="0.6"/>
    </marker>
  </defs>
  <rect id="CANVAS_BG" width="100%" height="100%" fill="var(--background)"/>
  <rect width="100%" height="100%" fill="url(#svg5db0644c-napkin-hatch)"/>
  <rect id="UNIVERSAL_EDGE_VIGNETTE" width="100%" height="100%" fill="url(#svg5db0644c-universal-edge-vignette)" opacity="0.62"/>
  <text id="TITLE" x="960.0" y="59" text-anchor="middle" font-weight="800" font-size="56" fill="#0f172a" style="font-size: 60px; font-family: Inter, Segoe UI, Kalam, Roboto, Helvetica, Arial, sans-serif; font-weight: 700; letter-spacing:-1.2px;" data-final-font-size="60">
    <tspan x="960.0" dy="68.00px">The Mothership's Emotional Design</tspan>
  </text>
  <rect id="TITLE_FRAME" x="134" y="59" width="1652" height="103" fill="none"/>
  <g id="FIELD">
    <rect x="190" y="250" width="650" height="270" rx="34" fill="var(--accent-1)" fill-opacity="0.08" stroke="var(--accent-1)" stroke-width="2" stroke-opacity="0.22"/>
    <rect x="1080" y="250" width="650" height="270" rx="34" fill="var(--accent-2)" fill-opacity="0.08" stroke="var(--accent-2)" stroke-width="2" stroke-opacity="0.22"/>
    <rect x="190" y="680" width="650" height="270" rx="34" fill="var(--accent-4)" fill-opacity="0.08" stroke="var(--accent-4)" stroke-width="2" stroke-opacity="0.18"/>
    <rect x="1080" y="680" width="650" height="270" rx="34" fill="var(--accent-5)" fill-opacity="0.08" stroke="var(--accent-5)" stroke-width="2" stroke-opacity="0.18"/>
    <line x1="960" y1="226" x2="960" y2="974" stroke="var(--primary-text)" stroke-width="11" stroke-opacity="0.20"/>
    <line x1="176" y1="600" x2="1744" y2="600" stroke="var(--primary-text)" stroke-width="11" stroke-opacity="0.20"/>
    <path d="M 960 534 L 1028 600 L 960 666 L 892 600 Z" fill="var(--panel)" fill-opacity="0.94" stroke="var(--primary-text)" stroke-width="4" stroke-opacity="0.28"/>
    <circle cx="960" cy="600" r="38" fill="var(--background)" stroke="var(--primary-text)" stroke-width="4"/>
    <g transform="translate(490, 384)">
      <rect id="ITEM_1_BG" x="-280" y="-110" width="560" height="220" rx="30" fill="var(--panel)" fill-opacity="0.95" stroke="var(--accent-1)" stroke-width="3" filter="url(#svg5db0644c-shadow)"/>
      <rect x="-280" y="-110" width="560" height="220" rx="18" fill="url(#svg5db0644c-universal-surface-sheen)" opacity="0.84"/>
      <rect x="226" y="-82" width="16" height="164" rx="8" fill="var(--accent-1)" fill-opacity="0.22"/>
      <circle cx="198" cy="-16" r="78" fill="none" stroke="var(--accent-1)" stroke-width="2.5" stroke-opacity="0.14"/>
      <text id="ITEM_1_HEAD" x="-220.0" y="-82.0" text-anchor="start" font-weight="700" font-size="29" fill="var(--primary-text)" data-bg-id="ITEM_1_BG" fill-opacity="1.0" style="font-size: 30px; font-family: Inter, Segoe UI, Kalam, Roboto, Helvetica, Arial, sans-serif; font-weight: 700; letter-spacing:-0.4px;" data-final-font-size="30">
        <tspan x="-220.0" dy="29.91px">Visual Ecosystem</tspan>
      </text>
      <rect id="ITEM_1_HEAD_FRAME" x="-220" y="-82" width="350" height="38" fill="none"/>
      <text id="ITEM_1_BODY" x="-220.0" y="-2.0" text-anchor="start" font-size="20" fill="var(--primary-text)" data-bg-id="ITEM_1_BG" style="font-size: 26px; font-family: Inter, Segoe UI, Kalam, Roboto, Helvetica, Arial, sans-serif; font-weight: 400;" data-final-font-size="26">
        <tspan x="-220.0" dy="32.10px">A glowing city structure</tspan>
        <tspan x="-220.0" dy="29.90px">resembles a living habitat</tspan>
      </text>
      <rect id="ITEM_1_BODY_FRAME" x="-220" y="-2" width="360" height="102" fill="none"/>
      <circle id="ITEM_1_PAD" cx="198" cy="-16" r="48" fill="var(--icon-pad-bg)" opacity="0.96" fill-opacity="0.9" stroke-width="2" stroke="var(--primary-text)"/>
      <circle id="ITEM_1_PAD_INNER" cx="198" cy="-16" r="37.44" fill="var(--accent-4)" fill-opacity="0.22"/>
      <circle cx="198" cy="-16" r="38" fill="none" stroke="var(--accent-1)" stroke-width="2.5" stroke-dasharray="6 4"/>
      <g id="ITEM_1_ICON" transform="translate(160, -54)" data-icon-size="76" stroke-dasharray="6 4">
        <g transform="translate(-7.037037037037036,-9.148148148148145) scale(3.753086419753086)" vector-effect="non-scaling-stroke" stroke-width="2.62" stroke-linecap="round" stroke-linejoin="round" stroke-opacity="1.0">
          <path d="M4 21v-15c0 -1 1 -2 2 -2h5c1 0 2 1 2 2v15" vector-effect="non-scaling-stroke" fill="none" stroke="#f1f5f9"/>
          <path d="M16 8h2c1 0 2 1 2 2v11" vector-effect="non-scaling-stroke" fill="none" stroke="#f1f5f9"/>
          <path d="M3 21h18" vector-effect="non-scaling-stroke" fill="none" stroke="#f1f5f9"/>
          <path d="M10 12v0" vector-effect="non-scaling-stroke" fill="none" stroke="#f1f5f9"/>
          <path d="M10 16v0" vector-effect="non-scaling-stroke" fill="none" stroke="#f1f5f9"/>
          <path d="M10 8v0" vector-effect="non-scaling-stroke" fill="none" stroke="#f1f5f9"/>
          <path d="M7 12v0" vector-effect="non-scaling-stroke" fill="none" stroke="#f1f5f9"/>
          <path d="M7 16v0" vector-effect="non-scaling-stroke" fill="none" stroke="#f1f5f9"/>
          <path d="M7 8v0" vector-effect="non-scaling-stroke" fill="none" stroke="#f1f5f9"/>
          <path d="M17 12v0" vector-effect="non-scaling-stroke" fill="none" stroke="#f1f5f9"/>
          <path d="M17 16v0" vector-effect="non-scaling-stroke" fill="none" stroke="#f1f5f9"/>
        </g>
      </g>
    </g>
    <g transform="translate(1430, 384)">
      <rect id="ITEM_2_BG" x="-280" y="-110" width="560" height="220" rx="30" fill="var(--panel)" fill-opacity="0.95" stroke="var(--accent-2)" stroke-width="3" filter="url(#svg5db0644c-shadow)"/>
      <rect x="-280" y="-110" width="560" height="220" rx="18" fill="url(#svg5db0644c-universal-surface-sheen)" opacity="0.84"/>
      <rect x="-242" y="-82" width="16" height="164" rx="8" fill="var(--accent-2)" fill-opacity="0.22"/>
      <circle cx="-198" cy="-16" r="78" fill="none" stroke="var(--accent-2)" stroke-width="2.5" stroke-opacity="0.14"/>
      <text id="ITEM_2_HEAD" x="220.0" y="-82.0" text-anchor="end" font-weight="700" font-size="29" fill="var(--primary-text)" data-bg-id="ITEM_2_BG" fill-opacity="1.0" style="font-size: 30px; font-family: Inter, Segoe UI, Kalam, Roboto, Helvetica, Arial, sans-serif; font-weight: 700; letter-spacing:-0.4px;" data-final-font-size="30">
        <tspan x="220.0" dy="29.91px">Sonic Presence</tspan>
      </text>
      <rect id="ITEM_2_HEAD_FRAME" x="-130" y="-82" width="350" height="38" fill="none"/>
      <text id="ITEM_2_BODY" x="220.0" y="-2.0" text-anchor="end" font-size="20" fill="var(--primary-text)" data-bg-id="ITEM_2_BG" style="font-size: 26px; font-family: Inter, Segoe UI, Kalam, Roboto, Helvetica, Arial, sans-serif; font-weight: 400;" data-final-font-size="26">
        <tspan x="220.0" dy="32.10px">The craft speaks through</tspan>
        <tspan x="220.0" dy="29.90px">presence before using language</tspan>
      </text>
      <rect id="ITEM_2_BODY_FRAME" x="-140" y="-2" width="360" height="102" fill="none"/>
      <circle id="ITEM_2_PAD" cx="-198" cy="-16" r="48" fill="var(--icon-pad-bg)" opacity="0.96" fill-opacity="0.9" stroke-width="2" stroke="var(--primary-text)"/>
      <circle id="ITEM_2_PAD_INNER" cx="-198" cy="-16" r="37.44" fill="var(--accent-5)" fill-opacity="0.22"/>
      <circle cx="-198" cy="-16" r="38" fill="none" stroke="var(--accent-2)" stroke-width="2.5" stroke-dasharray="6 4"/>
      <g id="ITEM_2_ICON" transform="translate(-236, -54)" data-icon-size="76" stroke-dasharray="6 4">
        <g transform="translate(-7.037037037037036,-8.092592592592588) scale(3.753086419753086)" vector-effect="non-scaling-stroke" fill="#f1f5f9" fill-opacity="1.0" stroke="none">
          <path fill="#f1f5f9" d="M20 12c-1.39 0-2.78-.47-4-1.33c-2.44 1.71-5.56 1.71-8 0C6.78 11.53 5.39 12 4 12H2v2h2c1.37 0 2.74-.35 4-1c2.5 1.3 5.5 1.3 8 0c1.26.65 2.62 1 4 1h2v-2" vector-effect="non-scaling-stroke" stroke="none"/>
        </g>
      </g>
    </g>
    <g transform="translate(960, 600)">
      <rect id="ITEM_3_BG" x="-310" y="-108" width="620" height="216" rx="32" fill="var(--panel)" fill-opacity="0.96" stroke="var(--accent-3)" stroke-width="3" filter="url(#svg5db0644c-shadow)"/>
      <rect x="-248" y="-76" width="496" height="12" rx="6" fill="var(--accent-3)" fill-opacity="0.18"/>
      <circle cx="0" cy="-18" r="86" fill="none" stroke="var(--accent-3)" stroke-width="2.5" stroke-opacity="0.14"/>
      <text id="ITEM_3_HEAD" x="0.0" y="-78.0" text-anchor="middle" font-weight="700" font-size="30" fill="var(--accent-6)" data-bg-id="ITEM_3_BG" fill-opacity="1.0" style="font-size: 30px; font-family: Inter, Segoe UI, Kalam, Roboto, Helvetica, Arial, sans-serif; font-weight: 700; letter-spacing:-0.4px;" data-final-font-size="30">
        <tspan x="0.0" dy="29.91px">Benign Mass</tspan>
      </text>
      <rect id="ITEM_3_HEAD_FRAME" x="-250" y="-78" width="500" height="38" fill="none"/>
      <text id="ITEM_3_BODY" x="0.0" y="2.0" text-anchor="middle" font-size="20" fill="var(--primary-text)" data-bg-id="ITEM_3_BG" style="font-size: 26px; font-family: Inter, Segoe UI, Kalam, Roboto, Helvetica, Arial, sans-serif; font-weight: 400;" data-final-font-size="26">
        <tspan x="0.0" dy="31.18px">Design goals emphasize a harmless</tspan>
        <tspan x="0.0" dy="29.90px">but immense organism</tspan>
      </text>
      <rect id="ITEM_3_BODY_FRAME" x="-250" y="2" width="500" height="98" fill="none"/>
      <circle id="ITEM_3_PAD" cx="0" cy="-18" r="50" fill="var(--icon-pad-bg)" opacity="0.96" fill-opacity="0.9" stroke-width="2" stroke="var(--primary-text)"/>
      <circle id="ITEM_3_PAD_INNER" cx="0" cy="-18" r="39.00" fill="var(--accent-6)" fill-opacity="0.22"/>
      <circle cx="0" cy="-18" r="40" fill="none" stroke="var(--accent-3)" stroke-width="2.5" stroke-dasharray="6 4"/>
      <g id="ITEM_3_ICON" transform="translate(-40, -58)" data-icon-size="80" stroke-dasharray="6 4">
        <g transform="translate(-3.130434782608692,-4.173913043478261) scale(2.782608695652174)">
          <path d="M24.0391 6.50785C27.0078 9.50004 29 12.9532 29 16.4688C29 22.8896 27.0502 26.86 22.3519 28.7834C21.7423 28.6957 21.1938 28.5899 20.7 28.4651L20.6875 29.047C20.5833 29.6095 20.2031 30.3994 19.0625 29.7501C18.2234 29.2723 16.9509 28.1995 16.7334 25.4686C16.2218 24.198 16.1162 22.5598 16 20.5001C15.8357 17.5891 12.9219 16.6095 11 16.5001C9.16066 16.3955 2.68432 16.0332 2.13144 16.0022C2.11443 15.6318 2.11085 15.261 2.12109 14.8907C2.12109 12.2307 5.48437 9.99005 7.83372 9.99005H14.3837C17.8437 9.99005 20.6537 12.8001 20.6537 16.2601C20.4844 18.672 24.0267 19.6662 24.4737 17.0401C24.9665 14.1449 23.8828 10.8753 22.0391 8.5471C21.8438 8.50002 21.7307 8.50039 21.5938 8.59377C20.3359 9.85159 19.4337 9.90584 17.7422 9.50784C17.6686 9.46055 17.5846 9.43217 17.5033 9.40471C17.2752 9.32763 17.0682 9.25769 17.1719 8.7969C17.3125 8.1719 18.2969 7.07815 18.2969 7.07815C19.0703 6.1719 20.0547 5.96877 20.5234 6.02346C20.9249 6.0703 21.0378 5.95464 21.1029 5.88787C21.1138 5.87667 21.1234 5.86685 21.1328 5.8594C21.1981 5.80752 21.2656 5.4219 21.2656 5.4219C21.1016 4.5469 21.3088 3.74389 21.8125 3.03909C21.8125 3.03909 22.6953 1.77349 23.5 1.69536C24.2193 1.62553 24.3028 2.06462 24.3786 2.46259C24.3875 2.50982 24.3964 2.55654 24.4062 2.6017C24.7401 4.13697 24.5763 4.50402 24.1912 5.36709C24.1256 5.51407 24.0536 5.67543 23.9766 5.8594C23.8479 6.16667 23.9186 6.29282 24.0145 6.46374C24.0225 6.47808 24.0308 6.49274 24.0391 6.50785Z" fill="#00A6ED"/>
          <path d="M8.21875 29.9375C6.48438 29.9375 4.57812 27.5 5.10937 24.0156C5.42187 24.2156 7.72396 26.0677 8.85937 27.1562C9.1875 28 8.96875 29.9375 8.21875 29.9375Z" fill="#00A6ED"/>
          <path d="M15.517 15.0001C15.1867 15.0001 14.9127 14.7261 14.9127 14.3958V13.6384C14.9127 13.3081 15.1867 13.0342 15.517 13.0342C15.8473 13.0342 16.1213 13.3081 16.1213 13.6384V14.3958C16.1213 14.7342 15.8473 15.0001 15.517 15.0001Z" fill="#1C1C1C"/>
          <path d="M20.7055 28.2075C21.204 28.3938 21.7654 28.5777 22.398 28.7644C21.8378 28.9962 21.2383 29.1987 20.5981 29.3725C20.6394 29.2632 20.6682 29.1512 20.6875 29.047L20.7055 28.2075Z" fill="#AEDDFF"/>
          <path d="M16.7329 23.7396C16.626 22.9685 16.5756 22.0687 16.5157 20.9994L16.5 20.7188C16.3357 17.8077 12.7344 16.1094 10.8125 16C8.97415 15.8954 2.67537 15.9909 2.13131 15.9994C2.4697 23.3988 8.16521 30.6385 16.0164 30.0947C17.0934 30.0201 18.0947 29.8982 19.0234 29.7276C18.0237 29.1453 16.4592 27.7214 16.7329 23.7396Z" fill="#AEDDFF"/>
        </g>
      </g>
    </g>
    <g transform="translate(490, 816)">
      <rect id="ITEM_4_BG" x="-280" y="-110" width="560" height="220" rx="30" fill="var(--panel)" fill-opacity="0.95" stroke="var(--accent-4)" stroke-width="3" filter="url(#svg5db0644c-shadow)"/>
      <rect x="-280" y="-110" width="560" height="220" rx="18" fill="url(#svg5db0644c-universal-surface-sheen)" opacity="0.84"/>
      <rect x="226" y="-82" width="16" height="164" rx="8" fill="var(--accent-4)" fill-opacity="0.22"/>
      <circle cx="198" cy="-16" r="78" fill="none" stroke="var(--accent-4)" stroke-width="2.5" stroke-opacity="0.14"/>
      <text id="ITEM_4_HEAD" x="-220.0" y="-82.0" text-anchor="start" font-weight="700" font-size="29" fill="var(--primary-text)" data-bg-id="ITEM_4_BG" fill-opacity="1.0" style="font-size: 30px; font-family: Inter, Segoe UI, Kalam, Roboto, Helvetica, Arial, sans-serif; font-weight: 700; letter-spacing:-0.4px;" data-final-font-size="30">
        <tspan x="-220.0" dy="29.91px">Curiosity Factor</tspan>
      </text>
      <rect id="ITEM_4_HEAD_FRAME" x="-220" y="-82" width="350" height="38" fill="none"/>
      <text id="ITEM_4_BODY" x="-220.0" y="-2.0" text-anchor="start" font-size="20" fill="var(--primary-text)" data-bg-id="ITEM_4_BG" style="font-size: 26px; font-family: Inter, Segoe UI, Kalam, Roboto, Helvetica, Arial, sans-serif; font-weight: 400;" data-final-font-size="26">
        <tspan x="-220.0" dy="26.12px">Resonant and playful tones</tspan>
        <tspan x="-220.0" dy="29.90px">replace aggressive</tspan>
        <tspan x="-220.0" dy="29.90px">military noises</tspan>
      </text>
      <rect id="ITEM_4_BODY_FRAME" x="-220" y="-2" width="360" height="102" fill="none"/>
      <circle id="ITEM_4_PAD" cx="198" cy="-16" r="48" fill="var(--icon-pad-bg)" opacity="0.96" fill-opacity="0.9" stroke-width="2" stroke="var(--primary-text)"/>
      <circle id="ITEM_4_PAD_INNER" cx="198" cy="-16" r="37.44" fill="var(--accent-1)" fill-opacity="0.22"/>
      <circle cx="198" cy="-16" r="38" fill="none" stroke="var(--accent-4)" stroke-width="2.5" stroke-dasharray="6 4"/>
      <g id="ITEM_4_ICON" transform="translate(160, -54)" data-icon-size="76" stroke-dasharray="6 4">
        <g transform="translate(-5.428571428571427,-5.428571428571429) scale(2.7142857142857144)">
          <path d="M12.5 27.5C12.9484 28.9419 14.3375 30 16 30C17.6625 30 19.0516 28.9419 19.5 27.5H12.5Z" fill="#FF822D"/>
          <path d="M16 6.55C15.31 6.55 14.75 5.99 14.75 5.3V3.25C14.75 2.56 15.31 2 16 2C16.69 2 17.25 2.56 17.25 3.25V5.3C17.25 5.99 16.69 6.55 16 6.55Z" fill="#FFB02E"/>
          <path d="M27.6 22.8428C26.64 22.0702 26.06 20.9164 25.82 19.6923L24.09 10.7926C23.32 6.8495 19.94 4.01003 16 4C12.06 4.01003 8.68 6.8495 7.91 10.7926L6.18 19.6923C5.94 20.9164 5.36 22.0702 4.4 22.8428C3.55 23.5351 3 24.5886 3 25.7926V27.0268C3 27.5686 3.43 28 3.95 28H16H28.05C28.58 28 29 27.5686 29 27.0268V25.7926C29 24.5886 28.45 23.5351 27.6 22.8428Z" fill="#F9C23C"/>
        </g>
      </g>
    </g>
    <g transform="translate(1430, 816)">
      <rect id="ITEM_5_BG" x="-280" y="-110" width="560" height="220" rx="30" fill="var(--panel)" fill-opacity="0.95" stroke="var(--accent-5)" stroke-width="3" filter="url(#svg5db0644c-shadow)"/>
      <rect x="-280" y="-110" width="560" height="220" rx="18" fill="url(#svg5db0644c-universal-surface-sheen)" opacity="0.84"/>
      <rect x="-242" y="-82" width="16" height="164" rx="8" fill="var(--accent-5)" fill-opacity="0.22"/>
      <circle cx="-198" cy="-16" r="78" fill="none" stroke="var(--accent-5)" stroke-width="2.5" stroke-opacity="0.14"/>
      <text id="ITEM_5_HEAD" x="220.0" y="-82.0" text-anchor="end" font-weight="700" font-size="29" fill="var(--accent-2)" data-bg-id="ITEM_5_BG" fill-opacity="1.0" style="font-size: 30px; font-family: Inter, Segoe UI, Kalam, Roboto, Helvetica, Arial, sans-serif; font-weight: 700; letter-spacing:-0.4px;" data-final-font-size="30">
        <tspan x="220.0" dy="29.91px">Wonder over Fear</tspan>
      </text>
      <rect id="ITEM_5_HEAD_FRAME" x="-130" y="-82" width="350" height="38" fill="none"/>
      <text id="ITEM_5_BODY" x="220.0" y="-2.0" text-anchor="end" font-size="20" fill="var(--primary-text)" data-bg-id="ITEM_5_BG" style="font-size: 26px; font-family: Inter, Segoe UI, Kalam, Roboto, Helvetica, Arial, sans-serif; font-weight: 400;" data-final-font-size="26">
        <tspan x="220.0" dy="32.10px">The soundscape reassures humans</tspan>
        <tspan x="220.0" dy="29.90px">that contact is peaceful</tspan>
      </text>
      <rect id="ITEM_5_BODY_FRAME" x="-140" y="-2" width="360" height="102" fill="none"/>
      <circle id="ITEM_5_PAD" cx="-198" cy="-16" r="48" fill="var(--icon-pad-bg)" opacity="0.96" fill-opacity="0.9" stroke-width="2" stroke="var(--primary-text)"/>
      <circle id="ITEM_5_PAD_INNER" cx="-198" cy="-16" r="37.44" fill="var(--accent-2)" fill-opacity="0.22"/>
      <circle cx="-198" cy="-16" r="38" fill="none" stroke="var(--accent-5)" stroke-width="2.5" stroke-dasharray="6 4"/>
      <g id="ITEM_5_ICON" transform="translate(-236, -54)" data-icon-size="76" stroke-dasharray="6 4">
        <g transform="translate(-5.380530973451328,-5.0442477876106215) scale(2.690265486725664)">
          <path d="M24.6178 18H29.0278C29.5778 18 30.0278 18.45 30.0278 19V20C30.0278 26 24.8978 30 20.0378 30C19.4778 30 19.0278 29.55 19.0278 29V27.11C19.0278 26.5 18.5278 26 17.9178 26H13.7878C8.39779 26 4.02779 21.63 4.02779 16.24V12.8013L3.24706 11.468L4.05573 9.99572C4.3064 7.74781 6.21299 6 8.52779 6C9.52319 6 10.4431 6.32319 11.1883 6.87035L11.5778 6.07991C12.9878 3.21991 16.0578 1.63991 19.1578 2.06991C19.6678 2.13991 20.0378 2.57991 20.0378 3.08991L20.0366 4.94982L21.0078 3.99C22.2978 2.71 24.0378 2 25.8478 2H27.7878C28.4678 2 29.0278 2.55 29.0278 3.24V7.02C29.0278 11.15 27.4178 15.07 24.6178 18Z" fill="#9B9B9B"/>
          <path d="M23.8948 17.3091L22.2789 19H29.0278V20C29.0278 25.3766 24.4193 29 20.0378 29C20.0349 29 20.0326 28.9996 20.0326 28.9996L20.0309 28.9991L20.0278 28.997V27.11C20.0278 25.9477 19.0801 25 17.9178 25H13.7878C8.95006 25 5.02777 21.0777 5.02777 16.24V11.5093L5.05462 10.0635C5.26885 8.33694 6.74286 7 8.52777 7C9.8367 7 10.9792 7.71807 11.5806 8.78655L11.5971 8.81585L12.5612 10.2879L12.568 10.2982C13.2754 11.3497 14.7905 11.5485 15.7224 10.6196L15.7249 10.6171L21.7107 4.70125L21.7121 4.69985C22.8134 3.6071 24.2997 3 25.8478 3H27.7878C27.9207 3 28.0278 3.10753 28.0278 3.24V7.02C28.0278 10.8889 26.5196 14.5625 23.8948 17.3091Z" fill="white"/>
          <path d="M2.53777 8C2.25777 8 2.03777 8.22 2.03777 8.5L2.02777 15.22C2.02777 16.33 2.61777 17.37 3.57777 17.93L5.08575 18.8022L4.38777 19.2699C3.53777 19.8299 3.02777 20.7899 3.02777 21.8199V23.5699C3.02777 23.9099 3.40777 24.1099 3.68777 23.9199L4.65777 23.2699C5.50777 22.7099 6.02777 21.7499 6.02777 20.7199V19.3471L8.12822 20.562C8.09522 20.7026 8.07776 20.8493 8.07776 21C8.07776 22.0548 8.93289 22.91 9.98776 22.91C10.1602 22.91 10.3273 22.8871 10.4862 22.8443L10.4878 22.85L11.8478 22.48C12.1178 22.4 12.2778 22.13 12.2078 21.86L11.8378 20.5L11.8321 20.5015C11.6129 19.6884 10.8702 19.09 9.98776 19.09C9.44363 19.09 8.95264 19.3175 8.60476 19.6826L4.08777 17.07C4.04976 17.0478 4.01256 17.0244 3.97623 17H5.19777C6.22777 17 7.18777 16.49 7.75777 15.63L8.40777 14.66C8.59777 14.38 8.38777 14 8.04777 14H6.29777C5.26777 14 4.30777 14.51 3.74777 15.37L3.23466 16.1357C3.10101 15.8535 3.02777 15.5412 3.02777 15.22L3.03777 8.5C3.03777 8.22 2.80777 8 2.53777 8Z" fill="#44911B"/>
          <path d="M8.02777 12C8.58006 12 9.02777 11.5523 9.02777 11C9.02777 10.4477 8.58006 10 8.02777 10C7.47549 10 7.02777 10.4477 7.02777 11C7.02777 11.5523 7.47549 12 8.02777 12Z" fill="#212121"/>
          <path d="M4.05651 9.98853L2.20778 11.1099C1.97778 11.2499 1.97778 11.5799 2.20778 11.7199L4.02777 12.808V10.4999C4.02777 10.327 4.03752 10.1564 4.05651 9.98853Z" fill="#F9C23C"/>
        </g>
      </g>
    </g>
  </g>
</svg>
