<?xml version='1.0' encoding='utf-8'?>
<svg xmlns="http://www.w3.org/2000/svg" width="1920" height="1080" viewBox="0 0 1920 1080" data-theme="dark">
  <style>
        @font-face {
            font-family: 'Inter';
            src: url('assets/fonts/Inter-Regular.ttf') format('truetype');
            font-weight: 400;
            font-style: normal;
            font-display: swap;
        }
        @font-face {
            font-family: 'Inter';
            src: url('assets/fonts/Inter-Bold.ttf') format('truetype');
            font-weight: 600;
            font-style: normal;
            font-display: swap;
        }
        @font-face {
            font-family: 'Inter';
            src: url('assets/fonts/Inter-Bold.ttf') format('truetype');
            font-weight: 800;
            font-style: normal;
            font-display: swap;
        }
        
:root {
    --background: #0f172a;
    --panel: #1e293b;
    --primary-text: #f1f5f9;
    --muted-text: #94a3b8;
    --inverse-text: #0f172a;
    --border: #334155;
    --shadow-color: #000000;
    --icon-pad-bg: #1e293b;
    --art-glow: #7dd3fc;
    --art-glow-opacity: 0.18;
    --art-sheen: #ffffff;
    --art-sheen-opacity: 0.18;
    --art-shadow: #000000;
    --art-shadow-opacity: 0.28;
    --art-muted-line: #64748b;
    --art-panel-tint: #1e293b;
    --font-family: 'Inter', 'Segoe UI', 'Kalam', Roboto, Helvetica, Arial, sans-serif;
    --radius-xl: 16px;
    --font-family-headline: 'Inter', 'Segoe UI', 'Kalam', Roboto, Helvetica, Arial, sans-serif;
    --font-family-body: 'Inter', 'Segoe UI', 'Kalam', Roboto, Helvetica, Arial, sans-serif;
    --font-heading: 'Inter', 'Segoe UI', 'Kalam', Roboto, Helvetica, Arial, sans-serif;
    --font-body: 'Inter', 'Segoe UI', 'Kalam', Roboto, Helvetica, Arial, sans-serif;
    --font-size-h1: 56px;
    --font-size-h2: 40px;
    --font-size-h3: 28px;
    --font-size-body: 24px;
    --font-size-caption: 18px;
    --secondary-text: var(--muted-text);
    --panel-border: var(--border);
    --font-weight-normal: 400;
    --font-weight-medium: 500;
    --font-weight-semibold: 600;
    --font-weight-bold: 700;
    --spacing-gutter-pct: 0.07;
    --spacing-top-pct: 0.15;
    --spacing-bottom-pct: 0.07;
    --spacing-title-y-pct: 0.055;
    --accent-1: #60a5fa;
    --accent-2: #4ade80;
    --accent-3: #f97316;
    --accent-4: #a78bfa;
    --accent-5: #38bdf8;
    --accent-6: #94a3b8;
}
:root[data-theme="dark"] {
    --background: #0f172a;
    --panel: #1e293b;
    --primary-text: #f1f5f9;
    --muted-text: #94a3b8;
    --inverse-text: #0f172a;
    --border: #334155;
    --shadow-color: #000000;
    --icon-pad-bg: #1e293b;
    --art-glow: #7dd3fc;
    --art-glow-opacity: 0.18;
    --art-sheen: #ffffff;
    --art-sheen-opacity: 0.18;
    --art-shadow: #000000;
    --art-shadow-opacity: 0.28;
    --art-muted-line: #64748b;
    --art-panel-tint: #1e293b;
    --accent-1: #60a5fa;
    --accent-2: #4ade80;
    --accent-3: #f97316;
    --accent-4: #a78bfa;
    --accent-5: #38bdf8;
    --accent-6: #94a3b8;
}
:root[data-theme="light"] {
    --background: #f8fafc;
    --panel: #ffffff;
    --primary-text: #0f172a;
    --muted-text: #64748b;
    --inverse-text: #ffffff;
    --border: #e2e8f0;
    --shadow-color: #000000;
    --icon-pad-bg: #1e293b;
    --art-glow: #0891b2;
    --art-glow-opacity: 0.10;
    --art-sheen: #ffffff;
    --art-sheen-opacity: 0.34;
    --art-shadow: #0f172a;
    --art-shadow-opacity: 0.14;
    --art-muted-line: #94a3b8;
    --art-panel-tint: #f1f5f9;
    --accent-1: #2563eb;
    --accent-2: #16a34a;
    --accent-3: #ea580c;
    --accent-4: #7c3aed;
    --accent-5: #0284c7;
    --accent-6: #475569;
}</style>
  <rect x="0" y="0" width="1.92E+3" height="1.08E+3" fill="#252a34" stroke="none" id="programmatic_background"/>
  <line id="HEADER_DECOR" x1="960.0" x2="1080.0" y1="135.0" y2="135.0" stroke="var(--accent-1)" stroke-width="6" stroke-linecap="round"/>
  <defs>
    <pattern id="svg24e523e1-napkin-hatch" patternUnits="userSpaceOnUse" width="12" height="12">
      <path d="M -3 12 L 12 -3 M 0 15 L 15 0" fill="none" stroke="var(--primary-text)" stroke-width="1" stroke-opacity="0.05"/>
    </pattern>
    <filter id="svg24e523e1-shadow" x="-30%" y="-30%" width="160%" height="160%">
      <feDropShadow dx="0" dy="2" stdDeviation="3" flood-color="#000000" flood-opacity="0.08"/>
      <feDropShadow dx="0" dy="6" stdDeviation="10" flood-color="#000000" flood-opacity="0.12"/>
    </filter>
    <marker id="svg24e523e1-arrowhead" markerWidth="10" markerHeight="10" refX="9" refY="5" orient="auto">
      <path d="M 0 0 L 10 5 L 0 10 Z" fill="var(--accent-1)"/>
    </marker>
    <filter id="svg24e523e1-text-glow" x="-20%" y="-20%" width="140%" height="140%">
      <feDropShadow dx="0" dy="0" stdDeviation="2" flood-color="#000000" flood-opacity="0.4"/>
    </filter>
    <radialGradient id="svg24e523e1-universal-edge-vignette" cx="50%" cy="50%" r="72%">
      <stop offset="0%" stop-color="var(--background)" stop-opacity="0"/>
      <stop offset="72%" stop-color="var(--background)" stop-opacity="0.12"/>
      <stop offset="100%" stop-color="var(--primary-text)" stop-opacity="0.08"/>
    </radialGradient>
    <linearGradient id="svg24e523e1-universal-surface-sheen" x1="0%" y1="0%" x2="100%" y2="100%">
      <stop offset="0%" stop-color="var(--art-sheen)" stop-opacity="var(--art-sheen-opacity)"/>
      <stop offset="46%" stop-color="var(--art-sheen)" stop-opacity="0.035"/>
      <stop offset="100%" stop-color="var(--art-panel-tint)" stop-opacity="0.14"/>
    </linearGradient>
    <radialGradient id="svg24e523e1-universal-icon-aura" cx="50%" cy="42%" r="64%">
      <stop offset="0%" stop-color="var(--art-glow)" stop-opacity="var(--art-glow-opacity)"/>
      <stop offset="100%" stop-color="var(--background)" stop-opacity="0"/>
    </radialGradient>
    <radialGradient id="svg24e523e1-funnel-leak-art-glow" cx="50%" cy="52%" r="68%">
      <stop offset="0%" stop-color="var(--inverse-text)" stop-opacity="0.14"/>
      <stop offset="100%" stop-color="var(--background)" stop-opacity="0"/>
    </radialGradient>
    <linearGradient id="svg24e523e1-funnel-leak-art-sheen" x1="16%" y1="0%" x2="86%" y2="100%">
      <stop offset="0%" stop-color="var(--inverse-text)" stop-opacity="0.22"/>
      <stop offset="52%" stop-color="var(--inverse-text)" stop-opacity="0.035"/>
      <stop offset="100%" stop-color="var(--background)" stop-opacity="0.14"/>
    </linearGradient>
  </defs>
  <rect width="100%" height="100%" fill="var(--background)" id="CANVAS_BG"/>
  <rect width="100%" height="100%" fill="url(#svg24e523e1-napkin-hatch)"/>
  <ellipse id="FUNNEL-LEAK_ART_GLOW" cx="960" cy="600" rx="650" ry="340" fill="url(#svg24e523e1-funnel-leak-art-glow)" opacity="0.84"/>
  <rect id="UNIVERSAL_EDGE_VIGNETTE" width="100%" height="100%" fill="url(#svg24e523e1-universal-edge-vignette)" opacity="0.62"/>
  <text id="TITLE" x="960.0" y="59" font-size="63" font-weight="700" fill="#f1f5f9" style="font-size: 60px; font-family: Inter, Segoe UI, Kalam, Roboto, Helvetica, Arial, sans-serif; font-weight: 700; letter-spacing:-1.2px;" text-anchor="middle" data-final-font-size="60">
    <tspan x="960.0" dy="68.00px">Barriers to UAP Reporting</tspan>
  </text>
  <rect id="TITLE_FRAME" x="134" y="59" width="1652" height="103" fill="none"/>
  <g transform="translate(960, 333.0)">
    <path id="FUNNEL_1_BG" d="M -600.0 -63.0 L 600.0 -63.0 L 510.0 63.0 L -510.0 63.0 Z" fill="var(--accent-2)" fill-opacity="0.1" stroke="var(--accent-1)" stroke-width="2"/>
    <path d="M -50 0 Q -600.0 0 -700.0 -45" fill="none" stroke="var(--accent-1)" stroke-width="2" stroke-dasharray="3 3"/>
    <circle cx="-700.0" cy="-45" r="9" fill="var(--accent-1)"/>
    <g transform="translate(-720.0, -45)">
      <rect id="ITEM_1_TEXT_BG" x="-258" y="-14" width="416" height="198.5" rx="22" fill="var(--panel)" fill-opacity="0.94" stroke="var(--accent-1)" stroke-width="2"/>
      <text id="ITEM_1_HEAD" x="80.0" y="0.0" text-anchor="end" font-weight="bold" font-size="30" fill="var(--accent-2)" data-bg-id="ITEM_1_TEXT_BG" fill-opacity="1.0" stroke="none" style="font-size: 30px; font-family: Inter, Segoe UI, Kalam, Roboto, Helvetica, Arial, sans-serif; font-weight: 700; letter-spacing:-0.4px;" data-final-font-size="30">
        <tspan x="80.0" dy="28.25px">Professional Risk</tspan>
      </text>
      <rect id="ITEM_1_HEAD_FRAME" x="-200" y="0" width="280" height="40" fill="none"/>
      <text id="ITEM_1_BODY" x="140.0" y="46.5" text-anchor="end" font-size="21" fill="var(--primary-text)" data-bg-id="ITEM_1_TEXT_BG" style="font-size: 26px; font-family: Inter, Segoe UI, Kalam, Roboto, Helvetica, Arial, sans-serif; font-weight: 400;" data-final-font-size="26">
        <tspan x="140.0" dy="32.84px">Fear of losing career status</tspan>
        <tspan x="140.0" dy="29.90px">or reputation impacts honesty</tspan>
      </text>
      <rect id="ITEM_1_BODY_FRAME" x="-240" y="46.5" width="380" height="120" fill="none"/>
    </g>
    <circle id="FUNNEL-LEAK_ART_ICON_AURA_1" cx="0" cy="0" r="72" fill="url(#svg24e523e1-universal-icon-aura)" opacity="0.78"/>
    <circle id="ITEM_1_PAD" cx="0" cy="0" r="58" fill="var(--icon-pad-bg)" stroke="var(--primary-text)" opacity="0.9" fill-opacity="0.9" stroke-width="2"/>
    <circle id="ITEM_1_PAD_INNER" cx="0" cy="0" r="45.24" fill="var(--accent-2)" fill-opacity="0.22"/>
    <circle cx="0" cy="0" r="46.4" fill="none" stroke="var(--accent-1)" stroke-width="3" stroke-dasharray="6 4"/>
    <g id="ITEM_1_ICON" transform="translate(-45.0, -45.0)" data-icon-size="90" stroke-dasharray="6 4">
      <g transform="translate(-8.617777777777782,-8.61777777777778) scale(4.468148148148148)" vector-effect="non-scaling-stroke" stroke-width="2.79" stroke-linecap="round" stroke-linejoin="round" stroke-opacity="1.0">
        <path d="M5 3m0 3a3 3 0 0 1 3 -3h8a3 3 0 0 1 3 3v12a3 3 0 0 1 -3 3h-8a3 3 0 0 1 -3 -3z" vector-effect="non-scaling-stroke" fill="none" stroke="#f1f5f9"/>
        <path d="M12 13m-2 0a2 2 0 1 0 4 0a2 2 0 1 0 -4 0" vector-effect="non-scaling-stroke" fill="none" stroke="#f1f5f9"/>
        <path d="M10 6h4" vector-effect="non-scaling-stroke" fill="none" stroke="#f1f5f9"/>
        <path d="M9 18h6" vector-effect="non-scaling-stroke" fill="none" stroke="#f1f5f9"/>
      </g>
    </g>
  </g>
  <g transform="translate(960, 459.0)">
    <path id="FUNNEL_2_BG" d="M -510.0 -63.0 L 510.0 -63.0 L 420.0 63.0 L -420.0 63.0 Z" fill="var(--accent-3)" fill-opacity="0.1" stroke="var(--accent-2)" stroke-width="2"/>
    <path d="M 50 0 Q 510.0 0 610.0 -45" fill="none" stroke="var(--accent-2)" stroke-width="2" stroke-dasharray="3 3"/>
    <circle cx="610.0" cy="-45" r="9" fill="var(--accent-2)"/>
    <g transform="translate(630.0, -45)">
      <rect id="ITEM_2_TEXT_BG" x="-98" y="-14" width="416" height="198.5" rx="22" fill="var(--panel)" fill-opacity="0.94" stroke="var(--accent-2)" stroke-width="2"/>
      <text id="ITEM_2_HEAD" x="0.0" y="0.0" text-anchor="start" font-weight="bold" font-size="30" fill="var(--accent-3)" data-bg-id="ITEM_2_TEXT_BG" fill-opacity="1.0" stroke="none" style="font-size: 30px; font-family: Inter, Segoe UI, Kalam, Roboto, Helvetica, Arial, sans-serif; font-weight: 700; letter-spacing:-0.4px;" data-final-font-size="30">
        <tspan x="0.0" dy="28.25px">Social Stigma</tspan>
      </text>
      <rect id="ITEM_2_HEAD_FRAME" x="0" y="0" width="280" height="40" fill="none"/>
      <text id="ITEM_2_BODY" x="-80.0" y="46.5" text-anchor="start" font-size="21" fill="var(--primary-text)" data-bg-id="ITEM_2_TEXT_BG" style="font-size: 26px; font-family: Inter, Segoe UI, Kalam, Roboto, Helvetica, Arial, sans-serif; font-weight: 400;" data-final-font-size="26">
        <tspan x="-80.0" dy="26.86px">Negative perceptions</tspan>
        <tspan x="-80.0" dy="29.90px">discourage individuals from</tspan>
        <tspan x="-80.0" dy="29.90px">documenting unusual sightings</tspan>
      </text>
      <rect id="ITEM_2_BODY_FRAME" x="-80" y="46.5" width="380" height="120" fill="none"/>
    </g>
    <circle id="FUNNEL-LEAK_ART_ICON_AURA_2" cx="0" cy="0" r="72" fill="url(#svg24e523e1-universal-icon-aura)" opacity="0.78"/>
    <circle id="ITEM_2_PAD" cx="0" cy="0" r="58" fill="var(--icon-pad-bg)" stroke="var(--primary-text)" opacity="0.9" fill-opacity="0.9" stroke-width="2"/>
    <circle id="ITEM_2_PAD_INNER" cx="0" cy="0" r="45.24" fill="var(--accent-3)" fill-opacity="0.22"/>
    <circle cx="0" cy="0" r="46.4" fill="none" stroke="var(--accent-2)" stroke-width="3" stroke-dasharray="6 4"/>
    <g id="ITEM_2_ICON" transform="translate(-45.0, -45.0)" data-icon-size="90" stroke-dasharray="6 4">
      <g transform="translate(-6.7028571428571455,-13.16571428571429) scale(3.2314285714285718)">
        <path d="M3.42688 18.2601C3.42688 18.2601 6.03688 15.1802 15.9269 14.5902C25.8169 14.0002 28.5669 18.3102 28.5669 18.3102C28.5669 18.3102 23.8769 21.6302 15.9669 21.8802C15.9669 21.8802 11.0169 22.6101 3.42688 18.2601Z" fill="#533566"/>
        <path d="M15.9969 17.52C21.1552 17.52 25.3369 16.5619 25.3369 15.38C25.3369 14.1981 21.1552 13.24 15.9969 13.24C10.8385 13.24 6.65686 14.1981 6.65686 15.38C6.65686 16.5619 10.8385 17.52 15.9969 17.52Z" fill="#F4F4F4"/>
        <path d="M26.3969 11.86L29.8869 17.35C30.0792 17.6566 30.0176 17.9983 29.82 18.2236L29.6468 18.5699C27.3768 23.1899 21.8268 27.8099 16.6768 27.8099H15.3268C10.1768 27.8099 4.62684 23.1799 2.32684 18.5699L2.12684 18.1699C2.11731 18.1509 2.10963 18.1316 2.10369 18.1124C1.97352 17.8931 1.95301 17.6068 2.11687 17.35L5.56687 11.93C5.80687 11.43 6.57687 10.39 6.57687 10.39C7.84687 8.92998 9.70687 8 11.7969 8C13.3769 8 14.8369 8.52998 15.9969 9.41998C17.1669 8.52998 18.6169 8 20.1969 8C22.2769 8 24.1469 8.92998 25.4169 10.39C25.4169 10.39 26.1769 11.41 26.3969 11.86ZM3.94878 18.0969L6.02684 18.7299C12.5168 20.6999 19.4468 20.6999 25.9468 18.7299L28.0302 18.0953L23.3269 16.5C18.5769 14.89 13.4169 14.89 8.65687 16.5L3.94878 18.0969Z" fill="#F92F60"/>
      </g>
    </g>
  </g>
  <g transform="translate(960, 585.0)">
    <path id="FUNNEL_3_BG" d="M -420.0 -63.0 L 420.0 -63.0 L 330.0 63.0 L -330.0 63.0 Z" fill="var(--accent-4)" fill-opacity="0.1" stroke="var(--accent-3)" stroke-width="2"/>
    <path d="M -50 0 Q -420.0 0 -520.0 -45" fill="none" stroke="var(--accent-3)" stroke-width="2" stroke-dasharray="3 3"/>
    <circle cx="-520.0" cy="-45" r="9" fill="var(--accent-3)"/>
    <g transform="translate(-540.0, -45)">
      <rect id="ITEM_3_TEXT_BG" x="-398" y="-14" width="416" height="198.5" rx="22" fill="var(--panel)" fill-opacity="0.94" stroke="var(--accent-3)" stroke-width="2"/>
      <text id="ITEM_3_HEAD" x="0.0" y="0.0" text-anchor="end" font-weight="bold" font-size="30" fill="var(--accent-4)" data-bg-id="ITEM_3_TEXT_BG" fill-opacity="1.0" stroke="none" style="font-size: 30px; font-family: Inter, Segoe UI, Kalam, Roboto, Helvetica, Arial, sans-serif; font-weight: 700; letter-spacing:-0.4px;" data-final-font-size="30">
        <tspan x="0.0" dy="28.25px">Institutional Barriers</tspan>
      </text>
      <rect id="ITEM_3_HEAD_FRAME" x="-375" y="0" width="375" height="40" fill="none"/>
      <text id="ITEM_3_BODY" x="0.0" y="46.5" text-anchor="end" font-size="21" fill="var(--primary-text)" data-bg-id="ITEM_3_TEXT_BG" style="font-size: 26px; font-family: Inter, Segoe UI, Kalam, Roboto, Helvetica, Arial, sans-serif; font-weight: 400;" data-final-font-size="26">
        <tspan x="0.0" dy="26.86px">Organizational structures can</tspan>
        <tspan x="0.0" dy="29.90px">prevent documentation of</tspan>
        <tspan x="0.0" dy="29.90px">anomalous observations</tspan>
      </text>
      <rect id="ITEM_3_BODY_FRAME" x="-380" y="46.5" width="380" height="120" fill="none"/>
    </g>
    <circle id="FUNNEL-LEAK_ART_ICON_AURA_3" cx="0" cy="0" r="72" fill="url(#svg24e523e1-universal-icon-aura)" opacity="0.78"/>
    <circle id="ITEM_3_PAD" cx="0" cy="0" r="58" fill="var(--icon-pad-bg)" stroke="var(--primary-text)" opacity="0.9" fill-opacity="0.9" stroke-width="2"/>
    <circle id="ITEM_3_PAD_INNER" cx="0" cy="0" r="45.24" fill="var(--accent-4)" fill-opacity="0.22"/>
    <circle cx="0" cy="0" r="46.4" fill="none" stroke="var(--accent-3)" stroke-width="3" stroke-dasharray="6 4"/>
    <g id="ITEM_3_ICON" transform="translate(-45.0, -45.0)" data-icon-size="90" stroke-dasharray="6 4">
      <g transform="translate(-6.702857142857146,-8.318571428571431) scale(0.20196428571428574)" vector-effect="non-scaling-stroke" fill="#f1f5f9" fill-opacity="1.0" stroke="none">
        <path fill="#f1f5f9" d="M105 41v398h302v-62H247V231h32v-55c0-38 36.5-57 73-57c20.5 0 41 6 55 18V41zm247 96c-27.5 0-55 13-55 39v55h110v-55c0-26-27.5-39-55-39m-192 78c18.1 0 33 14.9 33 33s-14.9 33-33 33s-33-14.9-33-33s14.9-33 33-33m0 18c-8.4 0-15 6.6-15 15s6.6 15 15 15s15-6.6 15-15s-6.6-15-15-15m105 16v110h174V249zm87 23a16 16 0 0 1 16 16a16 16 0 0 1-10.9 15.2L368 336h-32l10.9-32.8A16 16 0 0 1 336 288a16 16 0 0 1 16-16M73 457v30h366v-30z" vector-effect="non-scaling-stroke" stroke="none"/>
      </g>
    </g>
  </g>
  <g transform="translate(960, 711.0)">
    <path id="FUNNEL_4_BG" d="M -330.0 -63.0 L 330.0 -63.0 L 240.0 63.0 L -240.0 63.0 Z" fill="var(--accent-5)" fill-opacity="0.1" stroke="var(--accent-4)" stroke-width="2"/>
    <path d="M 50 0 Q 330.0 0 430.0 -45" fill="none" stroke="var(--accent-4)" stroke-width="2" stroke-dasharray="3 3"/>
    <circle cx="430.0" cy="-45" r="9" fill="var(--accent-4)"/>
    <g transform="translate(450.0, -45)">
      <rect id="ITEM_4_TEXT_BG" x="-18" y="-14" width="416" height="198.5" rx="22" fill="var(--panel)" fill-opacity="0.94" stroke="var(--accent-4)" stroke-width="2"/>
      <text id="ITEM_4_HEAD" x="0.0" y="0.0" text-anchor="start" font-weight="bold" font-size="30" fill="var(--accent-5)" data-bg-id="ITEM_4_TEXT_BG" fill-opacity="1.0" stroke="none" style="font-size: 30px; font-family: Inter, Segoe UI, Kalam, Roboto, Helvetica, Arial, sans-serif; font-weight: 700; letter-spacing:-0.4px;" data-final-font-size="30">
        <tspan x="0.0" dy="28.25px">Credibility Paradox</tspan>
      </text>
      <rect id="ITEM_4_HEAD_FRAME" x="0" y="0" width="375" height="40" fill="none"/>
      <text id="ITEM_4_BODY" x="0.0" y="46.5" text-anchor="start" font-size="21" fill="var(--primary-text)" data-bg-id="ITEM_4_TEXT_BG" style="font-size: 26px; font-family: Inter, Segoe UI, Kalam, Roboto, Helvetica, Arial, sans-serif; font-weight: 400;" data-final-font-size="26">
        <tspan x="0.0" dy="26.86px">Most reliable witnesses have</tspan>
        <tspan x="0.0" dy="29.90px">strongest incentives to</tspan>
        <tspan x="0.0" dy="29.90px">remain silent</tspan>
      </text>
      <rect id="ITEM_4_BODY_FRAME" x="0" y="46.5" width="380" height="120" fill="none"/>
    </g>
    <circle id="FUNNEL-LEAK_ART_ICON_AURA_4" cx="0" cy="0" r="72" fill="url(#svg24e523e1-universal-icon-aura)" opacity="0.78"/>
    <circle id="ITEM_4_PAD" cx="0" cy="0" r="58" fill="var(--icon-pad-bg)" stroke="var(--primary-text)" opacity="0.9" fill-opacity="0.9" stroke-width="2"/>
    <circle id="ITEM_4_PAD_INNER" cx="0" cy="0" r="45.24" fill="var(--accent-5)" fill-opacity="0.22"/>
    <circle cx="0" cy="0" r="46.4" fill="none" stroke="var(--accent-4)" stroke-width="3" stroke-dasharray="6 4"/>
    <g id="ITEM_4_ICON" transform="translate(-45.0, -45.0)" data-icon-size="90" stroke-dasharray="6 4">
      <g transform="translate(-6.7028571428571455,-8.318571428571435) scale(3.2314285714285718)">
        <path d="M22.5247 17.94C26.6502 17.94 29.9947 14.5956 29.9947 10.47C29.9947 6.34443 26.6502 3 22.5247 3C18.3991 3 15.0547 6.34443 15.0547 10.47C15.0547 14.5956 18.3991 17.94 22.5247 17.94Z" fill="#533566"/>
        <path d="M2.64445 29.2101C1.81445 28.3301 1.78446 26.9601 2.56446 26.0401L15.1045 11.3401L21.2145 17.8201L5.80445 29.4801C4.84445 30.2101 3.47445 30.0901 2.64445 29.2101Z" fill="#9B9B9B"/>
        <path d="M18.9958 4.00515L28.9358 14.5552C29.5958 15.2552 29.5658 16.3552 28.8658 17.0051C28.1658 17.6651 27.0758 17.6352 26.4158 16.9352L16.4758 6.38515C15.8158 5.68515 15.8458 4.59517 16.5458 3.93517C17.2458 3.27517 18.3358 3.30515 18.9958 4.00515ZM15.4146 18.5302C15.4146 19.342 14.7565 20.0002 13.9446 20.0002C13.1328 20.0002 12.4746 19.342 12.4746 18.5302C12.4746 17.7183 13.1328 17.0602 13.9446 17.0602C14.7565 17.0602 15.4146 17.7183 15.4146 18.5302Z" fill="#BEBEBE"/>
      </g>
    </g>
  </g>
  <g transform="translate(960, 837.0)">
    <path id="FUNNEL_5_BG" d="M -240.0 -63.0 L 240.0 -63.0 L 150.0 63.0 L -150.0 63.0 Z" fill="var(--accent-6)" fill-opacity="0.1" stroke="var(--accent-5)" stroke-width="2"/>
    <path d="M -50 0 Q -240.0 0 -340.0 -45" fill="none" stroke="var(--accent-5)" stroke-width="2" stroke-dasharray="3 3"/>
    <circle cx="-340.0" cy="-45" r="9" fill="var(--accent-5)"/>
    <g transform="translate(-360.0, -45)">
      <rect id="ITEM_5_TEXT_BG" x="-398" y="-14" width="416" height="198.5" rx="22" fill="var(--panel)" fill-opacity="0.94" stroke="var(--accent-5)" stroke-width="2"/>
      <text id="ITEM_5_HEAD" x="0.0" y="0.0" text-anchor="end" font-weight="bold" font-size="30" fill="var(--accent-6)" data-bg-id="ITEM_5_TEXT_BG" fill-opacity="1.0" stroke="none" style="font-size: 30px; font-family: Inter, Segoe UI, Kalam, Roboto, Helvetica, Arial, sans-serif; font-weight: 700; letter-spacing:-0.4px;" data-final-font-size="30">
        <tspan x="0.0" dy="28.25px">Data Attrition</tspan>
      </text>
      <rect id="ITEM_5_HEAD_FRAME" x="-375" y="0" width="375" height="40" fill="none"/>
      <text id="ITEM_5_BODY" x="0.0" y="46.5" text-anchor="end" font-size="21" fill="var(--primary-text)" data-bg-id="ITEM_5_TEXT_BG" style="font-size: 26px; font-family: Inter, Segoe UI, Kalam, Roboto, Helvetica, Arial, sans-serif; font-weight: 400;" data-final-font-size="26">
        <tspan x="0.0" dy="26.86px">Silenced reports result</tspan>
        <tspan x="0.0" dy="29.90px">in lower quality available</tspan>
        <tspan x="0.0" dy="29.90px">data sets</tspan>
      </text>
      <rect id="ITEM_5_BODY_FRAME" x="-380" y="46.5" width="380" height="120" fill="none"/>
    </g>
    <circle id="FUNNEL-LEAK_ART_ICON_AURA_5" cx="0" cy="0" r="72" fill="url(#svg24e523e1-universal-icon-aura)" opacity="0.78"/>
    <circle id="ITEM_5_PAD" cx="0" cy="0" r="58" fill="var(--icon-pad-bg)" stroke="var(--primary-text)" opacity="0.9" fill-opacity="0.9" stroke-width="2"/>
    <circle id="ITEM_5_PAD_INNER" cx="0" cy="0" r="45.24" fill="var(--accent-6)" fill-opacity="0.22"/>
    <circle cx="0" cy="0" r="46.4" fill="none" stroke="var(--accent-5)" stroke-width="3" stroke-dasharray="6 4"/>
    <g id="ITEM_5_ICON" transform="translate(-45.0, -45.0)" data-icon-size="90" stroke-dasharray="6 4">
      <g transform="translate(-15.320000000000002,-15.320000000000002) scale(0.47125)" vector-effect="non-scaling-stroke" stroke-width="2.79" stroke-linecap="round" stroke-linejoin="round" stroke-opacity="1.0">
        <circle cx="128" cy="128" r="88" fill="none" stroke="#f1f5f9" vector-effect="non-scaling-stroke"/>
        <line x1="208" y1="40" x2="48" y2="216" fill="none" stroke="#f1f5f9" vector-effect="non-scaling-stroke"/>
      </g>
    </g>
  </g>
</svg>
