<?xml version='1.0' encoding='utf-8'?>
<svg xmlns="http://www.w3.org/2000/svg" width="1920" height="1080" viewBox="0 0 1920 1080" data-theme="dark">
  <style>
        @font-face {
            font-family: 'Inter';
            src: url('assets/fonts/Inter-Regular.ttf') format('truetype');
            font-weight: 400;
            font-style: normal;
            font-display: swap;
        }
        @font-face {
            font-family: 'Inter';
            src: url('assets/fonts/Inter-Bold.ttf') format('truetype');
            font-weight: 600;
            font-style: normal;
            font-display: swap;
        }
        @font-face {
            font-family: 'Inter';
            src: url('assets/fonts/Inter-Bold.ttf') format('truetype');
            font-weight: 800;
            font-style: normal;
            font-display: swap;
        }
        
:root {
    --background: #0f172a;
    --panel: #1e293b;
    --primary-text: #f1f5f9;
    --muted-text: #94a3b8;
    --inverse-text: #0f172a;
    --border: #334155;
    --shadow-color: #000000;
    --icon-pad-bg: #1e293b;
    --art-glow: #7dd3fc;
    --art-glow-opacity: 0.18;
    --art-sheen: #ffffff;
    --art-sheen-opacity: 0.18;
    --art-shadow: #000000;
    --art-shadow-opacity: 0.28;
    --art-muted-line: #64748b;
    --art-panel-tint: #1e293b;
    --font-family: 'Inter', 'Segoe UI', 'Kalam', Roboto, Helvetica, Arial, sans-serif;
    --radius-xl: 16px;
    --font-family-headline: 'Inter', 'Segoe UI', 'Kalam', Roboto, Helvetica, Arial, sans-serif;
    --font-family-body: 'Inter', 'Segoe UI', 'Kalam', Roboto, Helvetica, Arial, sans-serif;
    --font-heading: 'Inter', 'Segoe UI', 'Kalam', Roboto, Helvetica, Arial, sans-serif;
    --font-body: 'Inter', 'Segoe UI', 'Kalam', Roboto, Helvetica, Arial, sans-serif;
    --font-size-h1: 56px;
    --font-size-h2: 40px;
    --font-size-h3: 28px;
    --font-size-body: 24px;
    --font-size-caption: 18px;
    --secondary-text: var(--muted-text);
    --panel-border: var(--border);
    --font-weight-normal: 400;
    --font-weight-medium: 500;
    --font-weight-semibold: 600;
    --font-weight-bold: 700;
    --spacing-gutter-pct: 0.07;
    --spacing-top-pct: 0.15;
    --spacing-bottom-pct: 0.07;
    --spacing-title-y-pct: 0.055;
    --accent-1: #60a5fa;
    --accent-2: #4ade80;
    --accent-3: #f97316;
    --accent-4: #a78bfa;
    --accent-5: #38bdf8;
    --accent-6: #94a3b8;
}
:root[data-theme="dark"] {
    --background: #0f172a;
    --panel: #1e293b;
    --primary-text: #f1f5f9;
    --muted-text: #94a3b8;
    --inverse-text: #0f172a;
    --border: #334155;
    --shadow-color: #000000;
    --icon-pad-bg: #1e293b;
    --art-glow: #7dd3fc;
    --art-glow-opacity: 0.18;
    --art-sheen: #ffffff;
    --art-sheen-opacity: 0.18;
    --art-shadow: #000000;
    --art-shadow-opacity: 0.28;
    --art-muted-line: #64748b;
    --art-panel-tint: #1e293b;
    --accent-1: #60a5fa;
    --accent-2: #4ade80;
    --accent-3: #f97316;
    --accent-4: #a78bfa;
    --accent-5: #38bdf8;
    --accent-6: #94a3b8;
}
:root[data-theme="light"] {
    --background: #f8fafc;
    --panel: #ffffff;
    --primary-text: #0f172a;
    --muted-text: #64748b;
    --inverse-text: #ffffff;
    --border: #e2e8f0;
    --shadow-color: #000000;
    --icon-pad-bg: #1e293b;
    --art-glow: #0891b2;
    --art-glow-opacity: 0.10;
    --art-sheen: #ffffff;
    --art-sheen-opacity: 0.34;
    --art-shadow: #0f172a;
    --art-shadow-opacity: 0.14;
    --art-muted-line: #94a3b8;
    --art-panel-tint: #f1f5f9;
    --accent-1: #2563eb;
    --accent-2: #16a34a;
    --accent-3: #ea580c;
    --accent-4: #7c3aed;
    --accent-5: #0284c7;
    --accent-6: #475569;
}</style>
  <rect x="0" y="0" width="1.92E+3" height="1.08E+3" fill="#252a34" stroke="none" id="programmatic_background"/>
  <line id="HEADER_DECOR" x1="960.0" x2="1080.0" y1="123.0" y2="123.0" stroke="var(--accent-1)" stroke-width="6" stroke-linecap="round"/>
  <defs>
    <pattern id="svgde8b8902-napkin-hatch" patternUnits="userSpaceOnUse" width="12" height="12">
      <path d="M -3 12 L 12 -3 M 0 15 L 15 0" fill="none" stroke="var(--primary-text)" stroke-width="1" stroke-opacity="0.05"/>
    </pattern>
    <filter id="svgde8b8902-shadow" x="-30%" y="-30%" width="160%" height="160%">
      <feDropShadow dx="0" dy="3" stdDeviation="6" flood-color="#000000" flood-opacity="0.10"/>
      <feDropShadow dx="0" dy="8" stdDeviation="12" flood-color="#000000" flood-opacity="0.16"/>
    </filter>
    <radialGradient id="svgde8b8902-universal-edge-vignette" cx="50%" cy="50%" r="72%">
      <stop offset="0%" stop-color="var(--background)" stop-opacity="0"/>
      <stop offset="72%" stop-color="var(--background)" stop-opacity="0.12"/>
      <stop offset="100%" stop-color="var(--primary-text)" stop-opacity="0.08"/>
    </radialGradient>
    <linearGradient id="svgde8b8902-universal-surface-sheen" x1="0%" y1="0%" x2="100%" y2="100%">
      <stop offset="0%" stop-color="var(--art-sheen)" stop-opacity="var(--art-sheen-opacity)"/>
      <stop offset="46%" stop-color="var(--art-sheen)" stop-opacity="0.035"/>
      <stop offset="100%" stop-color="var(--art-panel-tint)" stop-opacity="0.14"/>
    </linearGradient>
    <radialGradient id="svgde8b8902-universal-icon-aura" cx="50%" cy="42%" r="64%">
      <stop offset="0%" stop-color="var(--art-glow)" stop-opacity="var(--art-glow-opacity)"/>
      <stop offset="100%" stop-color="var(--background)" stop-opacity="0"/>
    </radialGradient>
    <filter id="svgde8b8902-text-glow" x="-20%" y="-20%" width="140%" height="140%">
      <feDropShadow dx="0" dy="0" stdDeviation="2" flood-color="#000000" flood-opacity="0.4"/>
    </filter>
    <marker id="svgde8b8902-arrowhead" markerWidth="10" markerHeight="7" refX="9" refY="3.5" orient="auto" markerUnits="strokeWidth">
      <polygon points="0 0, 10 3.5, 0 7" fill="var(--muted-text)" opacity="0.6"/>
    </marker>
  </defs>
  <rect width="100%" height="100%" fill="var(--background)" id="CANVAS_BG"/>
  <rect width="100%" height="100%" fill="url(#svgde8b8902-napkin-hatch)"/>
  <rect id="UNIVERSAL_EDGE_VIGNETTE" width="100%" height="100%" fill="url(#svgde8b8902-universal-edge-vignette)" opacity="0.62"/>
  <text id="TITLE" x="960.0" y="59" text-anchor="middle" font-size="58" font-weight="800" fill="#f1f5f9" style="font-size: 60px; font-family: Inter, Segoe UI, Kalam, Roboto, Helvetica, Arial, sans-serif; font-weight: 700; letter-spacing:-1.2px;" data-final-font-size="60">
    <tspan x="960.0" dy="68.00px">Evolution of 1950s Alien Cinema</tspan>
  </text>
  <rect id="TITLE_FRAME" x="134" y="57" width="1652" height="98" fill="none"/>
  <rect x="140" y="150" width="1640" height="850" rx="40" fill="var(--panel)" fill-opacity="0.24" stroke="var(--muted-text)" stroke-width="2.4" opacity="0.96"/>
  <line x1="960" y1="220" x2="960" y2="940" stroke="var(--muted-text)" stroke-width="14" stroke-linecap="round" opacity="0.18"/>
  <line x1="960" y1="220" x2="960" y2="940" stroke="var(--border)" stroke-width="4" stroke-linecap="round" opacity="0.88"/>
  <g id="DIAGRAM_MAIN">
    <g filter="url(#svgde8b8902-shadow)">
      <line x1="934" y1="255.0" x2="624.0" y2="255.0" stroke="var(--accent-1)" stroke-width="3.5" opacity="0.84"/>
      <circle cx="960" cy="255.0" r="20" fill="var(--background)" stroke="var(--accent-1)" stroke-width="3.2"/>
      <text x="960" y="261.0" text-anchor="middle" font-size="14" font-weight="800" fill="var(--primary-text)">1</text>
      <rect id="ITEM_1_BG" x="170" y="171.0" width="490" height="168" rx="22" fill="var(--panel)" fill-opacity="0.97" stroke="var(--accent-1)" stroke-width="3.2"/>
      <rect x="170" y="171.0" width="490" height="16" rx="8" fill="var(--accent-1)" fill-opacity="0.55"/>
      <circle id="ITEM_1_PAD" cx="588.0" cy="255.0" r="40" fill="var(--icon-pad-bg)" opacity="0.95" fill-opacity="0.9" stroke-width="2" stroke="var(--primary-text)"/>
      <circle id="ITEM_1_PAD_INNER" cx="588.0" cy="255.0" r="31.20" fill="var(--accent-2)" fill-opacity="0.22"/>
      <circle cx="588.0" cy="255.0" r="32" fill="none" stroke="var(--accent-1)" stroke-width="3" stroke-dasharray="6 4"/>
      <g id="ITEM_1_ICON" transform="translate(558.0, 225.0)" data-icon-size="60" stroke-dasharray="6 4">
        <g transform="translate(-4.542857142857143,-5.65714285714286) scale(2.2285714285714286)">
          <path d="M23.3688 2.55538C23.5492 3.28261 24.5766 3.30002 24.7816 2.57932C24.9025 2.15402 25.3704 1.93259 25.776 2.1087L26.3615 2.36293C26.7671 2.53904 26.9247 3.03206 26.6965 3.41079C26.3099 4.05257 27.024 4.79136 27.6785 4.42671C28.0648 4.21153 28.5522 4.38578 28.7144 4.79708L28.9487 5.39092C29.1109 5.80221 28.8738 6.26228 28.4447 6.36875C27.7175 6.54917 27.7001 7.57653 28.4207 7.7815C28.846 7.90246 29.0674 8.37031 28.8913 8.77588L28.6371 9.36137C28.461 9.76696 27.968 9.9246 27.5892 9.69643C26.9474 9.30978 26.2086 10.0239 26.5733 10.6785C26.7885 11.0648 26.6142 11.5522 26.2029 11.7144L25.6091 11.9487C25.1978 12.1109 24.7377 11.8738 24.6312 11.4446C24.4508 10.7174 23.4234 10.7 23.2185 11.4207C23.0975 11.846 22.6297 12.0674 22.2241 11.8913L21.6386 11.637C21.233 11.4609 21.0754 10.9679 21.3035 10.5892C21.6902 9.94739 20.976 9.20861 20.3215 9.57327C19.9352 9.78846 19.4478 9.6142 19.2856 9.20289L19.0513 8.6091C18.8891 8.19779 19.1262 7.73771 19.5554 7.63123C20.2826 7.45081 20.3 6.42343 19.5793 6.21846C19.154 6.0975 18.9326 5.62965 19.1087 5.22408L19.363 4.63856C19.5391 4.23299 20.0321 4.07535 20.4108 4.30351C21.0526 4.69015 21.7914 3.976 21.4267 3.32147C21.2115 2.93521 21.3858 2.44783 21.7971 2.28557L22.3909 2.05133C22.8022 1.88907 23.2623 2.12622 23.3688 2.55538Z" fill="#FF822D"/>
          <path d="M25.2071 5.79289C25.5976 6.18342 25.5976 6.81658 25.2071 7.20711L22.2071 10.2071C21.8166 10.5976 21.1834 10.5976 20.7929 10.2071C20.4024 9.81658 20.4024 9.18342 20.7929 8.79289L23.7929 5.79289C24.1834 5.40237 24.8166 5.40237 25.2071 5.79289Z" fill="#F4F4F4"/>
          <path d="M26 18C26 24.6274 20.6274 30 14 30C7.37258 30 2 24.6274 2 18C2 11.3726 7.37258 6 14 6C20.6274 6 26 11.3726 26 18Z" fill="#533566"/>
          <path d="M12 26.9999C18.0751 26.9999 23 22.075 23 15.9999C23 14.8677 22.8289 13.7754 22.5113 12.7476C23.4552 14.274 24 16.0733 24 17.9998C24 23.5227 19.5229 27.9998 14 27.9998C12.0736 27.9998 10.2744 27.4551 8.74808 26.5113C9.77583 26.8289 10.8679 26.9999 12 26.9999Z" fill="#6B438B"/>
        </g>
      </g>
      <text id="ITEM_1_HEAD" x="346.0" y="189.0" text-anchor="middle" font-weight="800" font-size="24" fill="var(--accent-2)" data-bg-id="ITEM_1_BG" fill-opacity="1.0" stroke="none" style="font-size: 28px; font-family: Inter, Segoe UI, Kalam, Roboto, Helvetica, Arial, sans-serif; font-weight: 700; letter-spacing:-0.4px;" data-final-font-size="28">
        <tspan x="346.0" dy="23.30px">Early Atomic Anxiety</tspan>
      </text>
      <rect id="ITEM_1_HEAD_FRAME" x="206.0" y="189.0" width="280" height="34" fill="none"/>
      <text id="ITEM_1_BODY" x="362.0" y="229.0" text-anchor="middle" font-size="18" fill="var(--primary-text)" data-bg-id="ITEM_1_BG" style="font-size: 19px; font-family: Inter, Segoe UI, Kalam, Roboto, Helvetica, Arial, sans-serif; font-weight: 400;" data-final-font-size="19">
        <tspan x="362.0" dy="19.70px">Nuclear weapons development fuels</tspan>
        <tspan x="362.0" dy="23.75px">fears of sudden destruction</tspan>
      </text>
      <rect id="ITEM_1_BODY_FRAME" x="202.0" y="229.0" width="320" height="70" fill="none"/>
    </g>
    <g filter="url(#svgde8b8902-shadow)">
      <line x1="986" y1="471.7" x2="1316.0" y2="471.7" stroke="var(--accent-2)" stroke-width="3.5" opacity="0.84"/>
      <circle cx="960" cy="471.7" r="20" fill="var(--background)" stroke="var(--accent-2)" stroke-width="3.2"/>
      <text x="960" y="477.7" text-anchor="middle" font-size="14" font-weight="800" fill="var(--primary-text)">2</text>
      <rect id="ITEM_2_BG" x="1280" y="387.7" width="490" height="168" rx="22" fill="var(--panel)" fill-opacity="0.97" stroke="var(--accent-2)" stroke-width="3.2"/>
      <rect x="1280" y="387.7" width="490" height="16" rx="8" fill="var(--accent-2)" fill-opacity="0.55"/>
      <circle id="ITEM_2_PAD" cx="1352.0" cy="471.7" r="40" fill="var(--icon-pad-bg)" opacity="0.95" fill-opacity="0.9" stroke-width="2" stroke="var(--primary-text)"/>
      <circle id="ITEM_2_PAD_INNER" cx="1352.0" cy="471.7" r="31.20" fill="var(--accent-3)" fill-opacity="0.22"/>
      <circle cx="1352.0" cy="471.7" r="32" fill="none" stroke="var(--accent-2)" stroke-width="3" stroke-dasharray="6 4"/>
      <g id="ITEM_2_ICON" transform="translate(1322.0, 441.7)" data-icon-size="60" stroke-dasharray="6 4">
        <g transform="translate(-2.990163934426236,-2.7344262295082036) scale(0.5114754098360657)">
          <path fill="#FFF" d="M106.13 42.46c-.07 1.32.89 2.47 2.24 2.43c1.2-.04 1.99-1.41 1.95-2.3s-1.08-1.97-2.14-2.03c-1.05-.08-2 1.1-2.05 1.9m-70.96-38c-.84.93-.57 2.31.21 2.82s1.95.46 2.52-.24c.51-.63.57-1.89-.21-2.67c-.67-.68-1.98-.51-2.52.09" opacity=".5"/>
          <path fill="#FFF" d="M113.6 95.23s1.15-3.3 1.84-3.34s1.69 3.3 1.69 3.3s3.42.04 3.65.54c.3.64-2.19 2.8-2.19 2.8s.81 3.23.42 3.61c-.42.42-3.38-1.27-3.38-1.27s-3.03 2.11-3.69 1.54c-.57-.5.61-3.92.61-3.92s-2.84-2.07-2.69-2.65c.23-.8 3.74-.61 3.74-.61m2.35-58.65c-.17 2 1.26 3.7 3.31 3.58c1.83-.11 3.28-1.65 3.07-3.56c-.23-2.06-1.57-2.93-3.18-2.99s-3.1 1.76-3.2 2.97M25.23 16.26c-.23 1.76.92 3.21 2.75 3.21c1.67 0 2.98-1.6 2.87-3.27c-.12-1.8-1.4-2.73-2.93-2.6c-1.42.12-2.56 1.6-2.69 2.66"/>
          <path fill="#FFF" d="M81.04 109.17c-.16 1.87 1.17 3.45 3.09 3.34c1.7-.1 3.06-1.54 2.86-3.32c-.21-1.93-1.46-2.74-2.96-2.79s-2.89 1.64-2.99 2.77" opacity=".5"/>
          <path fill="url(#SVGO3NbHdWj)" d="m36.85 74.12l-20.86 39.06l16.42 13.76h28.41l9.76-42.17z"/>
          <path fill="#848484" d="M19.36 66.25C18.27 65 12.64 55.62 9.83 48.59S4.21 31.87 4.21 31.87l45.16 5l74.07 41.56s-7.5 4.53-17.5 9.06s-15 5.63-16.09 5.94s-15.03.8-38.28-8.28c-22.83-8.9-32.21-18.9-32.21-18.9"/>
          <path fill="#9A9A9A" d="m16.3 30.12l-9.79-.92s-1.29 0-2.03.83s-.28 1.85-.28 1.85s20 18.21 55.94 32.51c38.69 15.39 63.29 14.06 63.29 14.06s1.08-.54 1.08-1.63s-.87-1.83-.87-1.83L62.73 46.71z"/>
          <path fill="#B0B0B0" d="M72.02 30.05c-15.98-6.85-27.35-5.47-32.35-5.31S6.52 29.2 6.52 29.2s23.47 19.76 55.81 31.95s61.31 13.83 61.31 13.83s-12.56-15.86-20.21-23.83c-10.28-10.7-17.19-15.01-31.41-21.1"/>
          <path fill="#E3E3DF" d="M31.86 27.89c-1.43-.83-13.07 1.27-13.07 5.05c0 2.81 6.09 6.17 12.03 9.3c5.21 2.75 14.11 6.49 14.51 4.09c.47-2.81-9.38-5.45-12.43-10.58c-2.24-3.77.88-6.73-1.04-7.86"/>
          <path fill="#9A9A9A" d="M103.38 54.91c-1.89.09-2.08 3.37-6.82 4.81s-14.86-1.22-16.11.25c-2.41 2.81 24.94 12.19 30.39 7.86c4.05-3.22-5.7-13-7.46-12.92"/>
          <path fill="#4B7179" d="M44.81 23.22s-1.48 2.48-1.2 4.25c.46 2.95 6 8.77 23.63 15.42c18.26 6.88 27.79 5.26 28.99 3.6c.87-1.21.83-3.88.83-3.88L69.82 30.05z"/>
          <path fill="#64DAC1" d="M44.81 23.22s12.3-21.77 36.06-12.95c21.52 7.99 16.19 32.34 16.19 32.34s-28.32-6.52-29.87-7.46c-1.56-.93-22.38-11.93-22.38-11.93"/>
          <path fill="#53B4A0" d="M68.72 38.73c-22.39-8.74-23.91-15.51-23.91-15.51s8.76-1.64 27.79 5.45C92.9 36.24 97.06 42.6 97.06 42.6s-9.42 3.51-28.34-3.87"/>
          <path fill="#53B4A0" d="M70.84 29.03s1.44-3.29 1.11-4.8c-.55-2.49-2.14-4.91-1.11-7.29c1.48-3.42 4.57-4.3 8.59-2.77c3.88 1.48 4.7 5.17 3.6 7.57c-1.48 3.23-3.78 2.77-5.45 4.25c-1.42 1.26-2.49 4.71-2.49 4.71z"/>
          <path fill="#9CFCEC" d="M51.23 27.74c2.41.97 4.2-3.92 8.89-8.44c5.57-5.37 13.66-7.13 13.11-8.7c-.63-1.86-10.74-.97-17.33 4.72c-6.23 5.39-7.35 11.33-4.67 12.42m36.53 12.21c-.13 1.92 3.65 2.62 5.69 1.02c2.73-2.13 2.5-7.02.45-7.23c-1.92-.19-1.66 2.43-2.94 3.58s-3.1 1.2-3.2 2.63"/>
          <ellipse cx="33.98" cy="66.89" fill="url(#SVG0ULPsbkS)" rx="9.78" ry="9.99"/>
          <ellipse cx="54.9" cy="77.63" fill="url(#SVGPuX3Pcww)" rx="11.02" ry="10.6"/>
          <ellipse cx="75.74" cy="84.05" fill="url(#SVGAAT19yaX)" rx="9.26" ry="9.2"/>
          <path fill="url(#SVG4SXfnfoJ)" d="M104.76 82.53c1.35 4.63-1.45 9.52-6.27 10.93s-9.82-1.2-11.17-5.83s1.45-9.52 6.27-10.93c4.81-1.41 9.81 1.2 11.17 5.83"/>
          <ellipse cx="20.3" cy="54.06" fill="none" stroke="url(#SVGxTkt4dzL)" stroke-miterlimit="10" rx="9.78" ry="9.99"/>
          <path fill="#53B4A0" d="M31.43 64.13c-1.76 1.86-1.72 4.82.47 6.44c2.12 1.57 4.48.63 5.57-.71s1.26-4.24-.47-5.73c-1.72-1.49-4.24-1.41-5.57 0"/>
          <path fill="#9CFCEC" d="M32.76 65.94c-.74.8-.83 2 .16 2.91c.94.86 2.43.55 2.98-.24c.67-.96.47-2.36-.39-2.91s-1.88-.71-2.75.24"/>
          <path fill="#53B4A0" d="M50.2 76.69c-.94 2.28.63 4.79 3.53 5.5c2.54.62 4.87-.63 5.42-2.91c.51-2.13-.59-4.61-3.3-5.26c-2.28-.55-4.61.15-5.65 2.67"/>
          <path fill="#9CFCEC" d="M53.18 76.58c-.74.79-.83 1.98.16 2.87c.94.85 2.43.54 2.98-.23c.67-.94.47-2.33-.39-2.87c-.87-.55-1.89-.7-2.75.23"/>
          <path fill="#53B4A0" d="M73.17 81.03c-1.82 1.6-1.82 4.46.06 6.3c1.64 1.6 4.02 1.49 5.54-.27c1.42-1.65 1.76-4.29.01-6c-1.48-1.44-3.59-1.8-5.61-.03"/>
          <path fill="#9CFCEC" d="M77.27 82.65c-.76-.78-1.92-.91-2.83.07c-.87.94-.61 2.49.13 3.08c.91.72 2.28.56 2.84-.32c.57-.86.75-1.91-.14-2.83"/>
          <path fill="#53B4A0" d="M97.34 80.83c-2.37-.42-4.65 1.28-4.96 3.8c-.27 2.2 1.27 3.93 3.59 4.02c2.17.09 4.47-1.22 4.76-3.56c.23-1.98-.76-3.8-3.39-4.26"/>
          <path fill="#9CFCEC" d="M94.49 84.65c-.03 1.1.69 2.04 2.04 2.02c1.3-.02 2.23-1.28 2.14-2.24c-.12-1.17-1.19-2.06-2.22-1.86s-1.92.79-1.96 2.08"/>
          <path fill="url(#SVG0FBToc8P)" d="M25.49 46.34c4.62 3.01 5.98 9.12 3.03 13.64s-9.08 5.75-13.7 2.74s-5.98-9.12-3.03-13.64s9.07-5.75 13.7-2.74"/>
          <path fill="#53B4A0" d="M18.79 50.62c-2.36.98-3.12 3.32-2.2 5.57c.86 2.12 3.06 3.06 5.18 2.36s3.53-3.14 2.36-5.65c-1.15-2.45-3.46-3.06-5.34-2.28"/>
          <path fill="#9CFCEC" d="M19.15 52.63c-.99.64-1.2 1.98-.49 3.04s2.19.99 2.97.35s.99-2.12.21-3.04s-1.89-.87-2.69-.35"/>
        </g>
      </g>
      <text id="ITEM_2_HEAD" x="1570.0" y="405.7" text-anchor="middle" font-weight="800" font-size="24" fill="var(--accent-3)" data-bg-id="ITEM_2_BG" fill-opacity="1.0" stroke="none" style="font-size: 30px; font-family: Inter, Segoe UI, Kalam, Roboto, Helvetica, Arial, sans-serif; font-weight: 700; letter-spacing:-0.4px;" data-final-font-size="30">
        <tspan x="1570.0" dy="25.25px">Flying Saucer Rise</tspan>
      </text>
      <rect id="ITEM_2_HEAD_FRAME" x="1430.0" y="405.7" width="280" height="34" fill="none"/>
      <text id="ITEM_2_BODY" x="1580.0" y="445.7" text-anchor="middle" font-size="18" fill="var(--primary-text)" data-bg-id="ITEM_2_BG" style="font-size: 23px; font-family: Inter, Segoe UI, Kalam, Roboto, Helvetica, Arial, sans-serif; font-weight: 400;" data-final-font-size="23">
        <tspan x="1580.0" dy="21.82px">UFO sightings become central</tspan>
        <tspan x="1580.0" dy="26.45px">cultural symbols of threat</tspan>
      </text>
      <rect id="ITEM_2_BODY_FRAME" x="1420.0" y="445.7" width="320" height="70" fill="none"/>
    </g>
    <g filter="url(#svgde8b8902-shadow)">
      <line x1="934" y1="688.3" x2="624.0" y2="688.3" stroke="var(--accent-3)" stroke-width="3.5" opacity="0.84"/>
      <circle cx="960" cy="688.3" r="20" fill="var(--background)" stroke="var(--accent-3)" stroke-width="3.2"/>
      <text x="960" y="694.3" text-anchor="middle" font-size="14" font-weight="800" fill="var(--primary-text)">3</text>
      <rect id="ITEM_3_BG" x="170" y="604.3" width="490" height="168" rx="22" fill="var(--panel)" fill-opacity="0.97" stroke="var(--accent-3)" stroke-width="3.2"/>
      <rect x="170" y="604.3" width="490" height="16" rx="8" fill="var(--accent-3)" fill-opacity="0.55"/>
      <circle id="ITEM_3_PAD" cx="588.0" cy="688.3" r="40" fill="var(--icon-pad-bg)" opacity="0.95" fill-opacity="0.9" stroke-width="2" stroke="var(--primary-text)"/>
      <circle id="ITEM_3_PAD_INNER" cx="588.0" cy="688.3" r="31.20" fill="var(--accent-4)" fill-opacity="0.22"/>
      <circle cx="588.0" cy="688.3" r="32" fill="none" stroke="var(--accent-3)" stroke-width="3" stroke-dasharray="6 4"/>
      <g id="ITEM_3_ICON" transform="translate(558.0, 658.3)" data-icon-size="60" stroke-dasharray="6 4">
        <g transform="translate(-3.821848739495801,-3.821848739495801) scale(0.13109243697478992)" vector-effect="non-scaling-stroke" fill="#f1f5f9" fill-opacity="1.0" stroke="none">
          <path fill="#f1f5f9" d="M84.438 20.78c-.414.005-.824.01-1.25.032c-2.273.113-4.742.477-7.376 1.094C65.28 24.373 52.858 31.236 42.094 42C31.33 52.763 24.467 65.186 22 75.72c-2.467 10.532-.738 18.23 3.75 22.718c3.93 3.93 10.33 5.763 18.938 4.5c-1.82-5.496-1.757-11.592-.407-17.282c2.182-9.194 7.5-18.247 15.314-26.062s16.836-13.13 26.03-15.313c2.3-.544 4.695-.876 7.064-.968c3.515-.135 7.022.307 10.312 1.407c1.3-8.664-.52-15.082-4.47-19.032c-3.154-3.156-7.896-4.97-14.093-4.907zm9.937 41.126c-.332-.006-.694.01-1.063.032c-.98.06-2.08.23-3.343.53c-5.057 1.2-11.542 4.728-17.157 10.344c-5.616 5.617-9.145 12.1-10.344 17.157c-1.2 5.054-.25 7.718 1.03 9l.344.343l.312.406l41.344 51.25c4.423-9.226 10.846-18.254 19.03-26.44c8.186-8.183 17.214-14.607 26.44-19.03L99.72 64.156l-.407-.312l-.344-.344c-.84-.84-2.273-1.552-4.595-1.594zm85.22 55.344a31 31 0 0 0-2.376.03c-2.168.115-4.54.465-7.064 1.064c-10.095 2.394-22.042 9.042-32.406 19.406s-17.012 22.31-19.406 32.406s-.727 17.367 3.5 21.594l.344.375l.312.375l3.75 4.625c.046-.207.076-.418.125-.625c3.576-15.268 12.593-30.935 26.125-44.47c13.467-13.468 29.05-22.452 44.25-26.06l-4.25-3.44l-.375-.343l-.375-.343c-2.774-2.775-6.828-4.448-12.156-4.594zm31.186 25.656c-2.895-.01-6.086.374-9.56 1.188c-11.122 2.604-24.185 9.838-35.5 21.156c-11.318 11.318-18.552 24.378-21.157 35.5c-2.117 9.036-1.316 16.178 1.656 21.125l.093.156l48.375 59.94c6.217-18.252 17.894-36.74 34.218-53.064c16.332-16.33 34.835-28.003 53.094-34.22L219.75 144.5c-2.557-1.017-5.562-1.583-8.97-1.594zm99.25 65.344c-.697.007-1.41.027-2.124.063c-3.814.188-7.85.798-12.125 1.812c-17.098 4.056-36.72 15.005-53.686 31.97c-16.965 16.963-27.913 36.586-31.97 53.686c-4.055 17.102-1.384 30.74 6.94 39.064l.342.344l.313.406l.31.406a93 93 0 0 1 1.907-11c5.25-22.406 18.652-45.87 38.907-66.125s43.718-33.658 66.125-38.906c3.702-.87 7.4-1.513 11.06-1.907l-.436-.344l-.406-.314l-.344-.344c-5.853-5.852-14.346-8.918-24.813-8.812zm35.22 27.97c-4.95-.034-10.325.6-16.03 1.936c-18.262 4.278-39.118 15.898-57.158 33.938s-29.66 38.896-33.937 57.156c-3.19 13.618-2.38 25.28 1.97 34.063l55.874 69.28c.46-3.185 1.058-6.378 1.81-9.593c6.32-26.98 22.565-55.408 47.126-79.97c24.56-24.56 52.96-40.773 79.938-47.092c2.055-.482 4.108-.89 6.156-1.25l-67.53-54.5h-.033c-5.132-2.575-11.256-3.924-18.187-3.97zm103.094 75.5c-.947.005-1.907.017-2.875.06c-5.166.236-10.637 1.008-16.345 2.345c-22.832 5.348-48.686 19.78-71.03 42.125c-22.347 22.345-36.778 48.2-42.126 71.03c-5.35 22.833-1.77 41.703 9.905 53.376c7.86 7.862 18.996 12.047 32.406 12.313a47 47 0 0 1-2-1.876c-13.45-13.452-16.224-33.735-11.5-53.906c4.726-20.172 16.757-41.163 34.908-59.313c18.15-18.15 39.172-30.213 59.343-34.938c5.044-1.18 10.086-1.898 15.033-2.093c14.84-.586 28.754 3.505 38.843 13.594a43 43 0 0 1 1.938 2.062c-.245-13.438-4.44-24.595-12.313-32.47c-8.207-8.207-19.98-12.4-34.186-12.31zm8.28 47.717c-.65.005-1.3.032-1.968.063c-3.564.167-7.37.687-11.375 1.625c-16.024 3.754-34.44 14.003-50.374 29.938c-7.822 7.822-14.263 16.238-19.25 24.687a91 91 0 0 1 5.438-5.938c17.012-17.01 38.125-24.96 53.22-21.5c-5.877 2.765-11.803 6.865-17.158 12.22c-16.19 16.19-21.17 37.454-11.125 47.5c7.735 7.733 22.152 6.587 35.75-1.75c-3.07 4.568-6.748 9.03-10.967 13.25c-18.512 18.51-41.876 26.32-57.063 20.343c7.814 6.11 19.617 7.906 34.156 4.5c16.025-3.754 34.44-14.003 50.375-29.938s26.185-34.35 29.94-50.375c3.752-16.024 1.195-28.71-6.5-36.406c-5.413-5.41-13.32-8.293-23.095-8.22z" vector-effect="non-scaling-stroke" stroke="none"/>
        </g>
      </g>
      <text id="ITEM_3_HEAD" x="346.0" y="622.3" text-anchor="middle" font-weight="800" font-size="24" fill="var(--accent-4)" data-bg-id="ITEM_3_BG" fill-opacity="1.0" stroke="none" style="font-size: 23px; font-family: Inter, Segoe UI, Kalam, Roboto, Helvetica, Arial, sans-serif; font-weight: 700; letter-spacing:-0.4px;" data-final-font-size="23">
        <tspan x="346.0" dy="22.18px">Invasion Narrative Shift</tspan>
      </text>
      <rect id="ITEM_3_HEAD_FRAME" x="206.0" y="622.3" width="280" height="34" fill="none"/>
      <text id="ITEM_3_BODY" x="362.0" y="662.3" text-anchor="middle" font-size="18" fill="var(--primary-text)" data-bg-id="ITEM_3_BG" style="font-size: 20px; font-family: Inter, Segoe UI, Kalam, Roboto, Helvetica, Arial, sans-serif; font-weight: 400;" data-final-font-size="20">
        <tspan x="362.0" dy="20.00px">Stories move from external</tspan>
        <tspan x="362.0" dy="25.00px">attacks to internal infiltration</tspan>
      </text>
      <rect id="ITEM_3_BODY_FRAME" x="202.0" y="662.3" width="320" height="70" fill="none"/>
    </g>
    <g filter="url(#svgde8b8902-shadow)">
      <line x1="986" y1="905.0" x2="1316.0" y2="905.0" stroke="var(--accent-4)" stroke-width="3.5" opacity="0.84"/>
      <circle cx="960" cy="905.0" r="20" fill="var(--background)" stroke="var(--accent-4)" stroke-width="3.2"/>
      <text x="960" y="911.0" text-anchor="middle" font-size="14" font-weight="800" fill="var(--primary-text)">4</text>
      <rect id="ITEM_4_BG" x="1280" y="821.0" width="490" height="168" rx="22" fill="var(--panel)" fill-opacity="0.97" stroke="var(--accent-4)" stroke-width="3.2"/>
      <rect x="1280" y="821.0" width="490" height="16" rx="8" fill="var(--accent-4)" fill-opacity="0.55"/>
      <circle id="ITEM_4_PAD" cx="1352.0" cy="905.0" r="40" fill="var(--icon-pad-bg)" opacity="0.95" fill-opacity="0.9" stroke-width="2" stroke="var(--primary-text)"/>
      <circle id="ITEM_4_PAD_INNER" cx="1352.0" cy="905.0" r="31.20" fill="var(--accent-5)" fill-opacity="0.22"/>
      <circle cx="1352.0" cy="905.0" r="32" fill="none" stroke="var(--accent-4)" stroke-width="3" stroke-dasharray="6 4"/>
      <g id="ITEM_4_ICON" transform="translate(1322.0, 875.0)" data-icon-size="60" stroke-dasharray="6 4">
        <g transform="translate(-3.5596638655462227,-3.2974789915966416) scale(2.796638655462185)" vector-effect="non-scaling-stroke" stroke-width="2.43" stroke-linecap="round" stroke-linejoin="round" stroke-opacity="1.0">
          <path d="M4.9 16.1C1 12.2 1 5.8 4.9 1.9" vector-effect="non-scaling-stroke" fill="none" stroke="#f1f5f9"/>
          <path d="M7.8 4.7a6.14 6.14 0 0 0-.8 7.5" vector-effect="non-scaling-stroke" fill="none" stroke="#f1f5f9"/>
          <circle cx="12" cy="9" r="2" vector-effect="non-scaling-stroke" fill="none" stroke="#f1f5f9"/>
          <path d="M16.2 4.8c2 2 2.26 5.11.8 7.47" vector-effect="non-scaling-stroke" fill="none" stroke="#f1f5f9"/>
          <path d="M19.1 1.9a9.96 9.96 0 0 1 0 14.1" vector-effect="non-scaling-stroke" fill="none" stroke="#f1f5f9"/>
          <path d="M9.5 18h5" vector-effect="non-scaling-stroke" fill="none" stroke="#f1f5f9"/>
          <path d="m8 22 4-11 4 11" vector-effect="non-scaling-stroke" fill="none" stroke="#f1f5f9"/>
        </g>
      </g>
      <text id="ITEM_4_HEAD" x="1570.0" y="839.0" text-anchor="middle" font-weight="800" font-size="24" fill="var(--accent-5)" data-bg-id="ITEM_4_BG" fill-opacity="1.0" stroke="none" style="font-size: 26px; font-family: Inter, Segoe UI, Kalam, Roboto, Helvetica, Arial, sans-serif; font-weight: 700; letter-spacing:-0.4px;" data-final-font-size="26">
        <tspan x="1570.0" dy="22.85px">Modern Spielberg Shift</tspan>
      </text>
      <rect id="ITEM_4_HEAD_FRAME" x="1430.0" y="839.0" width="280" height="34" fill="none"/>
      <text id="ITEM_4_BODY" x="1580.0" y="879.0" text-anchor="middle" font-size="18" fill="var(--primary-text)" data-bg-id="ITEM_4_BG" style="font-size: 20px; font-family: Inter, Segoe UI, Kalam, Roboto, Helvetica, Arial, sans-serif; font-weight: 400;" data-final-font-size="20">
        <tspan x="1580.0" dy="20.00px">Transition from hostile invasion</tspan>
        <tspan x="1580.0" dy="25.00px">to wonder and communication</tspan>
      </text>
      <rect id="ITEM_4_BODY_FRAME" x="1420.0" y="879.0" width="320" height="70" fill="none"/>
    </g>
  </g>
</svg>
