<?xml version='1.0' encoding='utf-8'?>
<svg xmlns="http://www.w3.org/2000/svg" width="1920" height="1080" viewBox="0 0 1920 1080" data-theme="dark">
  <style>
        @font-face {
            font-family: 'Inter';
            src: url('assets/fonts/Inter-Regular.ttf') format('truetype');
            font-weight: 400;
            font-style: normal;
            font-display: swap;
        }
        @font-face {
            font-family: 'Inter';
            src: url('assets/fonts/Inter-Bold.ttf') format('truetype');
            font-weight: 600;
            font-style: normal;
            font-display: swap;
        }
        @font-face {
            font-family: 'Inter';
            src: url('assets/fonts/Inter-Bold.ttf') format('truetype');
            font-weight: 800;
            font-style: normal;
            font-display: swap;
        }
        
:root {
    --background: #0f172a;
    --panel: #1e293b;
    --primary-text: #f1f5f9;
    --muted-text: #94a3b8;
    --inverse-text: #0f172a;
    --border: #334155;
    --shadow-color: #000000;
    --icon-pad-bg: #1e293b;
    --art-glow: #7dd3fc;
    --art-glow-opacity: 0.18;
    --art-sheen: #ffffff;
    --art-sheen-opacity: 0.18;
    --art-shadow: #000000;
    --art-shadow-opacity: 0.28;
    --art-muted-line: #64748b;
    --art-panel-tint: #1e293b;
    --font-family: 'Inter', 'Segoe UI', 'Kalam', Roboto, Helvetica, Arial, sans-serif;
    --radius-xl: 16px;
    --font-family-headline: 'Inter', 'Segoe UI', 'Kalam', Roboto, Helvetica, Arial, sans-serif;
    --font-family-body: 'Inter', 'Segoe UI', 'Kalam', Roboto, Helvetica, Arial, sans-serif;
    --font-heading: 'Inter', 'Segoe UI', 'Kalam', Roboto, Helvetica, Arial, sans-serif;
    --font-body: 'Inter', 'Segoe UI', 'Kalam', Roboto, Helvetica, Arial, sans-serif;
    --font-size-h1: 56px;
    --font-size-h2: 40px;
    --font-size-h3: 28px;
    --font-size-body: 24px;
    --font-size-caption: 18px;
    --secondary-text: var(--muted-text);
    --panel-border: var(--border);
    --font-weight-normal: 400;
    --font-weight-medium: 500;
    --font-weight-semibold: 600;
    --font-weight-bold: 700;
    --spacing-gutter-pct: 0.07;
    --spacing-top-pct: 0.15;
    --spacing-bottom-pct: 0.07;
    --spacing-title-y-pct: 0.055;
    --accent-1: #22d3ee;
    --accent-2: #38bdf8;
    --accent-3: #60a5fa;
    --accent-4: #818cf8;
    --accent-5: #a78bfa;
    --accent-6: #2dd4bf;
}
:root[data-theme="dark"] {
    --background: #0f172a;
    --panel: #1e293b;
    --primary-text: #f1f5f9;
    --muted-text: #94a3b8;
    --inverse-text: #0f172a;
    --border: #334155;
    --shadow-color: #000000;
    --icon-pad-bg: #1e293b;
    --art-glow: #7dd3fc;
    --art-glow-opacity: 0.18;
    --art-sheen: #ffffff;
    --art-sheen-opacity: 0.18;
    --art-shadow: #000000;
    --art-shadow-opacity: 0.28;
    --art-muted-line: #64748b;
    --art-panel-tint: #1e293b;
    --accent-1: #22d3ee;
    --accent-2: #38bdf8;
    --accent-3: #60a5fa;
    --accent-4: #818cf8;
    --accent-5: #a78bfa;
    --accent-6: #2dd4bf;
}
:root[data-theme="light"] {
    --background: #f8fafc;
    --panel: #ffffff;
    --primary-text: #0f172a;
    --muted-text: #64748b;
    --inverse-text: #ffffff;
    --border: #e2e8f0;
    --shadow-color: #000000;
    --icon-pad-bg: #1e293b;
    --art-glow: #0891b2;
    --art-glow-opacity: 0.10;
    --art-sheen: #ffffff;
    --art-sheen-opacity: 0.34;
    --art-shadow: #0f172a;
    --art-shadow-opacity: 0.14;
    --art-muted-line: #94a3b8;
    --art-panel-tint: #f1f5f9;
    --accent-1: #0891b2;
    --accent-2: #0284c7;
    --accent-3: #2563eb;
    --accent-4: #4f46e5;
    --accent-5: #7c3aed;
    --accent-6: #0d9488;
}</style>
  <rect x="0" y="0" width="1.92E+3" height="1.08E+3" fill="#252a34" stroke="none" id="programmatic_background"/>
  <line id="HEADER_DECOR" x1="960.0" x2="1080.0" y1="135.0" y2="135.0" stroke="var(--accent-1)" stroke-width="6" stroke-linecap="round"/>
  <defs>
    <pattern id="svg407c8a8e-napkin-hatch" patternUnits="userSpaceOnUse" width="12" height="12">
      <path d="M -3 12 L 12 -3 M 0 15 L 15 0" fill="none" stroke="var(--primary-text)" stroke-width="1" stroke-opacity="0.05"/>
    </pattern>
    <radialGradient id="svg407c8a8e-universal-edge-vignette" cx="50%" cy="50%" r="72%">
      <stop offset="0%" stop-color="var(--background)" stop-opacity="0"/>
      <stop offset="72%" stop-color="var(--background)" stop-opacity="0.12"/>
      <stop offset="100%" stop-color="var(--primary-text)" stop-opacity="0.08"/>
    </radialGradient>
    <linearGradient id="svg407c8a8e-universal-surface-sheen" x1="0%" y1="0%" x2="100%" y2="100%">
      <stop offset="0%" stop-color="var(--art-sheen)" stop-opacity="var(--art-sheen-opacity)"/>
      <stop offset="46%" stop-color="var(--art-sheen)" stop-opacity="0.035"/>
      <stop offset="100%" stop-color="var(--art-panel-tint)" stop-opacity="0.14"/>
    </linearGradient>
    <radialGradient id="svg407c8a8e-universal-icon-aura" cx="50%" cy="42%" r="64%">
      <stop offset="0%" stop-color="var(--art-glow)" stop-opacity="var(--art-glow-opacity)"/>
      <stop offset="100%" stop-color="var(--background)" stop-opacity="0"/>
    </radialGradient>
    <filter id="svg407c8a8e-text-glow" x="-20%" y="-20%" width="140%" height="140%">
      <feDropShadow dx="0" dy="0" stdDeviation="2" flood-color="#000000" flood-opacity="0.4"/>
    </filter>
    <filter id="svg407c8a8e-shadow" x="-30%" y="-30%" width="160%" height="160%">
      <feDropShadow dx="0" dy="2" stdDeviation="3" flood-color="#000000" flood-opacity="0.08"/>
      <feDropShadow dx="0" dy="6" stdDeviation="10" flood-color="#000000" flood-opacity="0.12"/>
    </filter>
    <marker id="svg407c8a8e-arrowhead" markerWidth="10" markerHeight="7" refX="9" refY="3.5" orient="auto" markerUnits="strokeWidth">
      <polygon points="0 0, 10 3.5, 0 7" fill="var(--muted-text)" opacity="0.6"/>
    </marker>
  </defs>
  <rect width="100%" height="100%" fill="var(--background)" id="CANVAS_BG"/>
  <rect width="100%" height="100%" fill="url(#svg407c8a8e-napkin-hatch)"/>
  <rect id="UNIVERSAL_EDGE_VIGNETTE" width="100%" height="100%" fill="url(#svg407c8a8e-universal-edge-vignette)" opacity="0.62"/>
  <text id="TITLE" x="960.0" y="59" text-anchor="middle" font-weight="700" font-size="63" fill="#f1f5f9" style="font-size: 60px; font-family: Inter, Segoe UI, Kalam, Roboto, Helvetica, Arial, sans-serif; font-weight: 700; letter-spacing:-1.2px;" data-final-font-size="60">
    <tspan x="960.0" dy="68.00px">The E.T. Production Design Elements</tspan>
  </text>
  <rect id="TITLE_FRAME" x="134" y="59" width="1652" height="103" fill="none"/>
  <g id="DIAGRAM_SCALER" transform="translate(50.3, 36.5) scale(0.95)">
    <g transform="translate(345.0, 330.0)">
      <rect id="ITEM_1_BG" x="-270" y="-120" width="540" height="240" rx="22" fill="var(--accent-4)" stroke="var(--accent-1)" stroke-width="2" fill-opacity="0.4"/>
      <circle cx="-165" cy="0" r="50" fill="var(--accent-1)" opacity="0.15"/>
      <g transform="translate(-30.0, -30.0)">
        <text id="ITEM_1_HEAD" text-anchor="start" font-weight="bold" font-size="36" fill="var(--primary-text)" x="-100.0" y="-58.0" data-bg-id="ITEM_1_BG" fill-opacity="1.0" stroke="none" style="font-size: 30px; font-family: Inter, Segoe UI, Kalam, Roboto, Helvetica, Arial, sans-serif; font-weight: 700; letter-spacing:-0.4px;" data-final-font-size="30">
          <tspan x="-100.0" dy="32.25px">Child Eye Level</tspan>
        </text>
        <rect id="ITEM_1_HEAD_FRAME" x="-100" y="-58" width="380" height="48" fill="none"/>
        <text id="ITEM_1_BODY" text-anchor="start" font-size="24" fill="var(--primary-text)" x="-88.0" y="-4.0" data-bg-id="ITEM_1_BG" style="font-size: 26px; font-family: Inter, Segoe UI, Kalam, Roboto, Helvetica, Arial, sans-serif; font-weight: 400;" data-final-font-size="26">
          <tspan x="-88.0" dy="33.24px">Camera placement mimics</tspan>
          <tspan x="-88.0" dy="29.90px">a child's physical perspective</tspan>
        </text>
        <rect id="ITEM_1_BODY_FRAME" x="-88" y="-4" width="392" height="122" fill="none"/>
      </g>
      <circle id="ITEM_1_PAD" cx="-172" cy="0.0" r="46" fill="var(--icon-pad-bg)" stroke="var(--primary-text)" opacity="0.9" fill-opacity="0.9" stroke-width="2"/>
      <circle id="ITEM_1_PAD_INNER" cx="-172" cy="0.0" r="35.88" fill="var(--accent-4)" fill-opacity="0.22"/>
      <circle cx="-172" cy="0.0" r="36" fill="none" stroke="var(--accent-1)" stroke-width="3" stroke-dasharray="6 4"/>
      <g id="ITEM_1_ICON" transform="translate(-210, -38)" data-icon-size="76" stroke-dasharray="6 4">
        <g transform="translate(-5.428571428571429,-17.642857142857146) scale(2.7142857142857144)">
          <path d="M5.5 11C5.22386 11 5 11.2239 5 11.5V13H9V11.5C9 11.2239 8.77614 11 8.5 11H5.5Z" fill="#D3D3D3"/>
          <path d="M21.5 11C21.2239 11 21 11.2239 21 11.5V13H27V11.5C27 11.2239 26.7761 11 26.5 11H21.5Z" fill="#D3D3D3"/>
          <path d="M2 14C2 12.8954 2.89543 12 4 12H28C29.1046 12 30 12.8954 30 14V16.5L28 22L30 27.5V28C30 29.1046 29.1046 30 28 30H4C2.89543 30 2 29.1046 2 28V27.5L3.5 22L2 16.5V14Z" fill="#E6E6E6"/>
          <path d="M2 16.5C2 16.2239 2.22386 16 2.5 16H29.5C29.7761 16 30 16.2239 30 16.5V27.5C30 27.7761 29.7761 28 29.5 28H2.5C2.22386 28 2 27.7761 2 27.5V16.5Z" fill="#533566"/>
          <path d="M22 22C22 25.3137 19.3137 28 16 28C12.6863 28 10 25.3137 10 22C10 18.6863 12.6863 16 16 16C19.3137 16 22 18.6863 22 22Z" fill="#321B41"/>
          <path d="M16 27C18.7614 27 21 24.7614 21 22C21 19.2386 18.7614 17 16 17C13.2386 17 11 19.2386 11 22C11 24.7614 13.2386 27 16 27ZM16 29C12.134 29 9 25.866 9 22C9 18.134 12.134 15 16 15C19.866 15 23 18.134 23 22C23 25.866 19.866 29 16 29Z" fill="#9B9B9B"/>
          <path d="M18.5 22C18.5 23.3807 17.3807 24.5 16 24.5C14.6193 24.5 13.5 23.3807 13.5 22C13.5 20.6193 14.6193 19.5 16 19.5C17.3807 19.5 18.5 20.6193 18.5 22Z" fill="#433B6B"/>
          <path d="M19.0825 19.875C19.4967 20.5924 19.4448 21.3979 18.9665 21.674C18.4882 21.9501 17.7647 21.5924 17.3505 20.875C16.9363 20.1575 16.9882 19.3521 17.4665 19.0759C17.9448 18.7998 18.6683 19.1575 19.0825 19.875Z" fill="white"/>
        </g>
      </g>
    </g>
    <g transform="translate(960.0, 330.0)">
      <rect id="ITEM_2_BG" x="-270" y="-120" width="540" height="240" rx="22" fill="var(--accent-5)" stroke="var(--accent-2)" stroke-width="2" fill-opacity="0.4"/>
      <circle cx="-165" cy="0" r="50" fill="var(--accent-1)" opacity="0.15"/>
      <g transform="translate(-30.0, -30.0)">
        <text id="ITEM_2_HEAD" text-anchor="start" font-weight="bold" font-size="36" fill="var(--primary-text)" x="-100.0" y="-58.0" data-bg-id="ITEM_2_BG" fill-opacity="1.0" stroke="none" style="font-size: 30px; font-family: Inter, Segoe UI, Kalam, Roboto, Helvetica, Arial, sans-serif; font-weight: 700; letter-spacing:-0.4px;" data-final-font-size="30">
          <tspan x="-100.0" dy="32.25px">Daily Scene Cards</tspan>
        </text>
        <rect id="ITEM_2_HEAD_FRAME" x="-100" y="-58" width="380" height="48" fill="none"/>
        <text id="ITEM_2_BODY" text-anchor="start" font-size="24" fill="var(--primary-text)" x="-88.0" y="-4.0" data-bg-id="ITEM_2_BG" style="font-size: 26px; font-family: Inter, Segoe UI, Kalam, Roboto, Helvetica, Arial, sans-serif; font-weight: 400;" data-final-font-size="26">
          <tspan x="-88.0" dy="33.24px">Melissa Mathison provided cards</tspan>
          <tspan x="-88.0" dy="29.90px">for present-focused filming</tspan>
        </text>
        <rect id="ITEM_2_BODY_FRAME" x="-88" y="-4" width="392" height="122" fill="none"/>
      </g>
      <circle id="ITEM_2_PAD" cx="-172" cy="0.0" r="46" fill="var(--icon-pad-bg)" stroke="var(--primary-text)" opacity="0.9" fill-opacity="0.9" stroke-width="2"/>
      <circle id="ITEM_2_PAD_INNER" cx="-172" cy="0.0" r="35.88" fill="var(--accent-5)" fill-opacity="0.22"/>
      <circle cx="-172" cy="0.0" r="36" fill="none" stroke="var(--accent-2)" stroke-width="3" stroke-dasharray="6 4"/>
      <g id="ITEM_2_ICON" transform="translate(-210, -38)" data-icon-size="76" stroke-dasharray="6 4">
        <g transform="translate(-3.931034482758621,-2.6206896551724137) scale(2.6206896551724137)">
          <path d="M8.45445 15H23.5456C24.9217 15 26 13.858 26 12.5088V3.49124C26 2.14197 24.9217 1 23.5456 1H8.45445C7.07832 1 6 2.14197 6 3.49124V12.5088C6 13.858 7.07832 15 8.45445 15Z" fill="#CDC4D6"/>
          <path d="M28.32 10.98H28H25.22H6.78H4H3.68C2.75 10.98 2 11.73 2 12.65V16.8C2 17.73 2.75 18.48 3.68 18.48H4V26.86C4 28.58 5.4 29.98 7.12 29.98H24.88C26.6 29.98 28 28.58 28 26.86V18.48H28.32C29.25 18.48 30 17.73 30 16.8V12.65C30 11.73 29.25 10.98 28.32 10.98Z" fill="#635994"/>
          <path d="M8.45445 14H23.5456C24.346 14 25 13.3294 25 12.5088V3.49124C25 2.67056 24.346 2 23.5456 2H8.45445C7.65401 2 7 2.67056 7 3.49124V12.5088C7 13.3294 7.65401 14 8.45445 14Z" fill="#F3EEF8"/>
          <path d="M8.45445 27H23.5456C24.346 27 25 26.3394 25 25.5088V16.4912C25 15.6706 24.346 15 23.5456 15H8.45445C7.65401 15 7 15.6706 7 16.4912V25.5088C7 26.3294 7.65401 27 8.45445 27Z" fill="#F3EEF8"/>
          <path d="M11 12.72C11 12.4438 10.7761 12.22 10.5 12.22C10.2239 12.22 10 12.4438 10 12.72V16.75C10 17.0261 10.2239 17.25 10.5 17.25C10.7761 17.25 11 17.0261 11 16.75V12.72Z" fill="#321B41"/>
          <path d="M22 12.72C22 12.4438 21.7761 12.22 21.5 12.22C21.2239 12.22 21 12.4438 21 12.72V16.75C21 17.0261 21.2239 17.25 21.5 17.25C21.7761 17.25 22 17.0261 22 16.75V12.72Z" fill="#321B41"/>
          <path d="M14.2538 11H9.74617C9.32709 11 9 10.6662 9 10.2616V4.73844C9 4.33382 9.32709 4 9.74617 4H14.2538C14.6627 4 15 4.3237 15 4.73844V10.2616C14.9898 10.6662 14.6627 11 14.2538 11Z" fill="#00A6ED"/>
          <path d="M17.5601 4C17.2839 4 17.0601 4.22386 17.0601 4.5C17.0601 4.77614 17.2839 5 17.5601 5H22.4001C22.6762 5 22.9001 4.77614 22.9001 4.5C22.9001 4.22386 22.6762 4 22.4001 4H17.5601Z" fill="#998EA4"/>
          <path d="M17.5601 8C17.2839 8 17.0601 8.22386 17.0601 8.5C17.0601 8.77614 17.2839 9 17.5601 9H22.4001C22.6762 9 22.9001 8.77614 22.9001 8.5C22.9001 8.22386 22.6762 8 22.4001 8H17.5601Z" fill="#998EA4"/>
          <path d="M17.0601 6.5C17.0601 6.22386 17.2839 6 17.5601 6H22.4001C22.6762 6 22.9001 6.22386 22.9001 6.5C22.9001 6.77614 22.6762 7 22.4001 7H17.5601C17.2839 7 17.0601 6.77614 17.0601 6.5Z" fill="#998EA4"/>
          <path d="M17.5601 10C17.2839 10 17.0601 10.2239 17.0601 10.5C17.0601 10.7761 17.2839 11 17.5601 11H22.4001C22.6762 11 22.9001 10.7761 22.9001 10.5C22.9001 10.2239 22.6762 10 22.4001 10H17.5601Z" fill="#998EA4"/>
        </g>
      </g>
    </g>
    <g transform="translate(1575.0, 330.0)">
      <rect id="ITEM_3_BG" x="-270" y="-120" width="540" height="240" rx="22" fill="var(--accent-6)" stroke="var(--accent-3)" stroke-width="2" fill-opacity="0.4"/>
      <circle cx="-165" cy="0" r="50" fill="var(--accent-1)" opacity="0.15"/>
      <g transform="translate(-30.0, -30.0)">
        <text id="ITEM_3_HEAD" text-anchor="start" font-weight="bold" font-size="36" fill="var(--primary-text)" x="-100.0" y="-58.0" data-bg-id="ITEM_3_BG" fill-opacity="1.0" stroke="none" style="font-size: 30px; font-family: Inter, Segoe UI, Kalam, Roboto, Helvetica, Arial, sans-serif; font-weight: 700; letter-spacing:-0.4px;" data-final-font-size="30">
          <tspan x="-100.0" dy="32.25px">Sophisticated Animatronics</tspan>
        </text>
        <rect id="ITEM_3_HEAD_FRAME" x="-100" y="-58" width="380" height="48" fill="none"/>
        <text id="ITEM_3_BODY" text-anchor="start" font-size="24" fill="var(--primary-text)" x="-88.0" y="-4.0" data-bg-id="ITEM_3_BG" style="font-size: 26px; font-family: Inter, Segoe UI, Kalam, Roboto, Helvetica, Arial, sans-serif; font-weight: 400;" data-final-font-size="26">
          <tspan x="-88.0" dy="27.26px">Highly engineered puppets</tspan>
          <tspan x="-88.0" dy="29.90px">required precise technical</tspan>
          <tspan x="-88.0" dy="29.90px">coordination</tspan>
        </text>
        <rect id="ITEM_3_BODY_FRAME" x="-88" y="-4" width="392" height="122" fill="none"/>
      </g>
      <circle id="ITEM_3_PAD" cx="-172" cy="0.0" r="46" fill="var(--icon-pad-bg)" stroke="var(--primary-text)" opacity="0.9" fill-opacity="0.9" stroke-width="2"/>
      <circle id="ITEM_3_PAD_INNER" cx="-172" cy="0.0" r="35.88" fill="var(--accent-6)" fill-opacity="0.22"/>
      <circle cx="-172" cy="0.0" r="36" fill="none" stroke="var(--accent-3)" stroke-width="3" stroke-dasharray="6 4"/>
      <g id="ITEM_3_ICON" transform="translate(-210, -38)" data-icon-size="76" stroke-dasharray="6 4">
        <g transform="translate(-2.533333333333333,-2.533333333333333) scale(0.15833333333333333)" vector-effect="non-scaling-stroke" fill="#f1f5f9" fill-opacity="1.0" stroke="none">
          <path fill="#f1f5f9" d="M257.406 17.188c-25.61 0-46.22 20.72-46.22 46.593c0 25.875 20.61 46.595 46.22 46.595s46.25-20.72 46.25-46.594c0-25.872-20.64-46.593-46.25-46.593zm122.78 37.937l-78.31 58.625c2.665 5.776 4.776 12.026 6.25 18.656l69-51.656l3.062-25.625zm-255.342 1.28l8.875 27.407l64.186 39.376c2.513-5.943 5.514-11.462 8.938-16.47zM398.47 59.47l-3.095 26.28l41.438 52.625a45.75 45.75 0 0 1 16.312-9.47zm-291.94 1l-51.718 80c6.345 1.322 12.192 3.976 17.282 7.655l41.844-64.72l-7.407-22.936zm111.94 55.5c-7.12 10.803-12.285 24.91-13.907 40.686c-2 19.438 1.785 37.464 9.062 50.563c7.277 13.098 17.574 20.998 29.28 22.218c11.708 1.22 23.405-4.372 33.19-15.688c9.783-11.316 17.156-28.218 19.155-47.656c1.74-16.923-.89-32.787-6.406-45.25c-9.327 5.225-20.04 8.22-31.438 8.22c-14.59 0-28.083-4.874-38.937-13.095zm248.75 29.374c-14.947 0-26.876 11.93-26.876 26.875s11.93 26.874 26.875 26.874s26.842-11.93 26.842-26.875c0-14.947-11.897-26.876-26.843-26.876zM45.56 158.22c-14.946 0-26.874 11.896-26.874 26.843s11.928 26.875 26.875 26.875s26.843-11.93 26.843-26.875c0-14.947-11.897-26.844-26.844-26.844zm166.94 71.81c-10.02 7.32-16.327 17.48-16.53 27.532c-.185 9.06 3.95 16.745 11.655 22.625s19.014 9.51 32.03 8.75c26.036-1.52 46.228-20.007 46.595-38.125c.148-7.302-2.523-13.71-7.594-19c-10.786 8.85-23.713 13.758-37.28 12.344c-11.08-1.154-20.883-6.343-28.876-14.125zm69.906 62.5c-9.156 6.97-20.466 11.91-32.72 14.033l47.783 81.125l15.874-13.625l-30.938-81.532zm-81.687 5.564l-9.595 91.78l18.53 13.345l24.532-95.5c-12.492-.33-24.01-3.736-33.468-9.626zm125.124 89.844l-15.72 13.5l65.22 51.03c2.495-9.733 8.156-18.518 16.156-24.78zm-142.47 19.375l-55.905 29.75c4.933 6.162 8.355 13.66 9.53 22c.09.648.156 1.29.22 1.937l64.56-40.406l-18.405-13.28zM419.28 436.75a27.2 27.2 0 0 0-7.686 1.188c-14.29 4.384-22.197 19.273-17.813 33.562c4.385 14.29 19.275 22.197 33.564 17.813s22.196-19.274 17.812-33.563c-3.596-11.72-14.268-19.132-25.875-19zm-327 1.78a28 28 0 0 0-4.124.283c-14.8 2.084-24.928 15.543-22.844 30.343c2.085 14.8 15.544 24.928 30.344 22.844s24.928-15.544 22.844-30.344c-1.824-12.95-12.355-22.316-24.875-23.062c-.447-.027-.892-.058-1.344-.063z" vector-effect="non-scaling-stroke" stroke="none"/>
        </g>
      </g>
    </g>
    <g transform="translate(345.0, 690.0)">
      <rect id="ITEM_4_BG" x="-270" y="-120" width="540" height="240" rx="22" fill="var(--accent-1)" stroke="var(--accent-4)" stroke-width="2" fill-opacity="0.4"/>
      <circle cx="-165" cy="0" r="50" fill="var(--accent-1)" opacity="0.15"/>
      <g transform="translate(-30.0, -30.0)">
        <text id="ITEM_4_HEAD" text-anchor="start" font-weight="bold" font-size="36" fill="var(--primary-text)" x="-100.0" y="-58.0" data-bg-id="ITEM_4_BG" fill-opacity="1.0" stroke="none" style="font-size: 30px; font-family: Inter, Segoe UI, Kalam, Roboto, Helvetica, Arial, sans-serif; font-weight: 700; letter-spacing:-0.4px;" data-final-font-size="30">
          <tspan x="-100.0" dy="32.25px">Improvised Dialogue</tspan>
        </text>
        <rect id="ITEM_4_HEAD_FRAME" x="-100" y="-58" width="380" height="48" fill="none"/>
        <text id="ITEM_4_BODY" text-anchor="start" font-size="24" fill="var(--primary-text)" x="-88.0" y="-4.0" data-bg-id="ITEM_4_BG" style="font-size: 26px; font-family: Inter, Segoe UI, Kalam, Roboto, Helvetica, Arial, sans-serif; font-weight: 400;" data-final-font-size="26">
          <tspan x="-88.0" dy="27.26px">Incorporating unscripted lines</tspan>
          <tspan x="-88.0" dy="29.90px">from young performers like</tspan>
          <tspan x="-88.0" dy="29.90px">Drew Barrymore</tspan>
        </text>
        <rect id="ITEM_4_BODY_FRAME" x="-88" y="-4" width="392" height="122" fill="none"/>
      </g>
      <circle id="ITEM_4_PAD" cx="-172" cy="0.0" r="46" fill="var(--icon-pad-bg)" stroke="var(--primary-text)" opacity="0.9" fill-opacity="0.9" stroke-width="2"/>
      <circle id="ITEM_4_PAD_INNER" cx="-172" cy="0.0" r="35.88" fill="var(--accent-1)" fill-opacity="0.22"/>
      <circle cx="-172" cy="0.0" r="36" fill="none" stroke="var(--accent-4)" stroke-width="3" stroke-dasharray="6 4"/>
      <g id="ITEM_4_ICON" transform="translate(-210, -38)" data-icon-size="76" stroke-dasharray="6 4">
        <g transform="translate(-5.428571428571429,-6.785714285714288) scale(2.7142857142857144)">
          <path d="M22.5247 17.94C26.6502 17.94 29.9947 14.5956 29.9947 10.47C29.9947 6.34443 26.6502 3 22.5247 3C18.3991 3 15.0547 6.34443 15.0547 10.47C15.0547 14.5956 18.3991 17.94 22.5247 17.94Z" fill="#533566"/>
          <path d="M2.64445 29.2101C1.81445 28.3301 1.78446 26.9601 2.56446 26.0401L15.1045 11.3401L21.2145 17.8201L5.80445 29.4801C4.84445 30.2101 3.47445 30.0901 2.64445 29.2101Z" fill="#9B9B9B"/>
          <path d="M18.9958 4.00515L28.9358 14.5552C29.5958 15.2552 29.5658 16.3552 28.8658 17.0051C28.1658 17.6651 27.0758 17.6352 26.4158 16.9352L16.4758 6.38515C15.8158 5.68515 15.8458 4.59517 16.5458 3.93517C17.2458 3.27517 18.3358 3.30515 18.9958 4.00515ZM15.4146 18.5302C15.4146 19.342 14.7565 20.0002 13.9446 20.0002C13.1328 20.0002 12.4746 19.342 12.4746 18.5302C12.4746 17.7183 13.1328 17.0602 13.9446 17.0602C14.7565 17.0602 15.4146 17.7183 15.4146 18.5302Z" fill="#BEBEBE"/>
        </g>
      </g>
    </g>
    <g transform="translate(960.0, 690.0)">
      <rect id="ITEM_5_BG" x="-270" y="-120" width="540" height="240" rx="22" fill="var(--accent-2)" stroke="var(--accent-5)" stroke-width="2" fill-opacity="0.4"/>
      <circle cx="-165" cy="0" r="50" fill="var(--accent-1)" opacity="0.15"/>
      <g transform="translate(-30.0, -30.0)">
        <text id="ITEM_5_HEAD" text-anchor="start" font-weight="bold" font-size="36" fill="var(--primary-text)" x="-100.0" y="-58.0" data-bg-id="ITEM_5_BG" fill-opacity="1.0" stroke="none" style="font-size: 30px; font-family: Inter, Segoe UI, Kalam, Roboto, Helvetica, Arial, sans-serif; font-weight: 700; letter-spacing:-0.4px;" data-final-font-size="30">
          <tspan x="-100.0" dy="32.25px">Restricted Adult Views</tspan>
        </text>
        <rect id="ITEM_5_HEAD_FRAME" x="-100" y="-58" width="380" height="48" fill="none"/>
        <text id="ITEM_5_BODY" text-anchor="start" font-size="24" fill="var(--primary-text)" x="-88.0" y="-4.0" data-bg-id="ITEM_5_BG" style="font-size: 26px; font-family: Inter, Segoe UI, Kalam, Roboto, Helvetica, Arial, sans-serif; font-weight: 400;" data-final-font-size="26">
          <tspan x="-88.0" dy="33.24px">Limiting audience visibility</tspan>
          <tspan x="-88.0" dy="29.90px">of adults to center children</tspan>
        </text>
        <rect id="ITEM_5_BODY_FRAME" x="-88" y="-4" width="392" height="122" fill="none"/>
      </g>
      <circle id="ITEM_5_PAD" cx="-172" cy="0.0" r="46" fill="var(--icon-pad-bg)" stroke="var(--primary-text)" opacity="0.9" fill-opacity="0.9" stroke-width="2"/>
      <circle id="ITEM_5_PAD_INNER" cx="-172" cy="0.0" r="35.88" fill="var(--accent-2)" fill-opacity="0.22"/>
      <circle cx="-172" cy="0.0" r="36" fill="none" stroke="var(--accent-5)" stroke-width="3" stroke-dasharray="6 4"/>
      <g id="ITEM_5_ICON" transform="translate(-210, -38)" data-icon-size="76" stroke-dasharray="6 4">
        <g transform="translate(-3.2203389830508473,-3.2203389830508473) scale(3.4350282485875705)" vector-effect="non-scaling-stroke" stroke-width="2.62" stroke-linecap="round" stroke-linejoin="round" stroke-opacity="1.0">
          <line x1="22" x2="2" y1="6" y2="6" vector-effect="non-scaling-stroke" fill="none" stroke="#f1f5f9"/>
          <line x1="22" x2="2" y1="18" y2="18" vector-effect="non-scaling-stroke" fill="none" stroke="#f1f5f9"/>
          <line x1="6" x2="6" y1="2" y2="22" vector-effect="non-scaling-stroke" fill="none" stroke="#f1f5f9"/>
          <line x1="18" x2="18" y1="2" y2="22" vector-effect="non-scaling-stroke" fill="none" stroke="#f1f5f9"/>
        </g>
      </g>
    </g>
    <g transform="translate(1575.0, 690.0)">
      <rect id="ITEM_6_BG" x="-270" y="-120" width="540" height="240" rx="22" fill="var(--accent-3)" stroke="var(--accent-6)" stroke-width="2" fill-opacity="0.4"/>
      <circle cx="-165" cy="0" r="50" fill="var(--accent-1)" opacity="0.15"/>
      <g transform="translate(-30.0, -30.0)">
        <text id="ITEM_6_HEAD" text-anchor="start" font-weight="bold" font-size="36" fill="var(--primary-text)" x="-100.0" y="-58.0" data-bg-id="ITEM_6_BG" fill-opacity="1.0" stroke="none" style="font-size: 30px; font-family: Inter, Segoe UI, Kalam, Roboto, Helvetica, Arial, sans-serif; font-weight: 700; letter-spacing:-0.4px;" data-final-font-size="30">
          <tspan x="-100.0" dy="32.25px">Preserved Illusion</tspan>
        </text>
        <rect id="ITEM_6_HEAD_FRAME" x="-100" y="-58" width="380" height="48" fill="none"/>
        <text id="ITEM_6_BODY" text-anchor="start" font-size="24" fill="var(--primary-text)" x="-88.0" y="-4.0" data-bg-id="ITEM_6_BG" style="font-size: 26px; font-family: Inter, Segoe UI, Kalam, Roboto, Helvetica, Arial, sans-serif; font-weight: 400;" data-final-font-size="26">
          <tspan x="-88.0" dy="27.26px">Limiting behind-the-scenes</tspan>
          <tspan x="-88.0" dy="29.90px">exposure to maintain emotional</tspan>
          <tspan x="-88.0" dy="29.90px">connection</tspan>
        </text>
        <rect id="ITEM_6_BODY_FRAME" x="-88" y="-4" width="392" height="122" fill="none"/>
      </g>
      <circle id="ITEM_6_PAD" cx="-172" cy="0.0" r="46" fill="var(--icon-pad-bg)" stroke="var(--primary-text)" opacity="0.9" fill-opacity="0.9" stroke-width="2"/>
      <circle id="ITEM_6_PAD_INNER" cx="-172" cy="0.0" r="35.88" fill="var(--accent-3)" fill-opacity="0.22"/>
      <circle cx="-172" cy="0.0" r="36" fill="none" stroke="var(--accent-6)" stroke-width="3" stroke-dasharray="6 4"/>
      <g id="ITEM_6_ICON" transform="translate(-210, -38)" data-icon-size="76" stroke-dasharray="6 4">
        <g transform="translate(-5.428571428571429,-5.428571428571427) scale(2.7142857142857144)">
          <path d="M4 11H3V14.7294C2.62984 15.0537 2.34087 15.4691 2.17 15.94C2.165 15.95 2.1625 15.96 2.16 15.97C2.15749 15.98 2.15499 15.99 2.14999 16C2.07999 16.2 2.04 16.41 2.02 16.63L2.01999 16.6301C2.01 16.7301 2 16.83 2 16.93V29H30V16.93C30 16.78 29.99 16.63 29.96 16.49C29.94 16.32 29.9 16.15 29.85 16C29.845 15.99 29.8425 15.98 29.84 15.97C29.8375 15.96 29.835 15.95 29.83 15.94C29.42 14.81 28.34 14 27.07 14H27V11H26V14H23V11H22V14H20V12H19V14H13V12H12V14H8V11H7V14H4.92999C4.60585 14 4.29296 14.0536 4 14.1525V11Z" fill="#9B9B9B"/>
          <path d="M11.959 12H20.041C20.5704 12 21 11.57 21 11.04V6.96C21 6.43 20.5704 6 20.041 6H11.959C11.4296 6 11 6.43 11 6.96V11.04C11 11.57 11.4296 12 11.959 12ZM13 22.9933C13 21.337 14.34 20 16 20C17.66 20 19 21.337 19 22.9933V29H13V22.9933ZM4 24.9915C4 23.3362 5.34 22 7 22C8.65 22 10 23.3462 10 24.9915V29H4V24.9915ZM25 22C23.34 22 22 23.3381 22 24.9957V29H28V24.9957C28 23.3481 26.65 22 25 22Z" fill="#212121"/>
          <path d="M30 16.94V17.01H2V16.94C2 16.84 2.01 16.74 2.02 16.64C2.04 16.42 2.07999 16.21 2.14999 16.01H29.85C29.9 16.16 29.94 16.33 29.96 16.5C29.99 16.64 30 16.79 30 16.94Z" fill="#F8312F"/>
          <path d="M5.96997 3.52002C5.96997 3.79616 5.74611 4.02002 5.46997 4.02002C5.19383 4.02002 4.96997 3.79616 4.96997 3.52002C4.96997 3.24388 5.19383 3.02002 5.46997 3.02002C5.74611 3.02002 5.96997 3.24388 5.96997 3.52002ZM19.5051 8H18.495C18.2222 8 18 7.77551 18 7.5C18 7.22449 18.2222 7 18.495 7H19.5051C19.7778 7 20 7.22449 20 7.5C20 7.77551 19.7778 8 19.5051 8ZM3 10.4132V11.5551C3 11.8756 3.39933 12.086 3.76871 11.9658L5.71547 11.3447C6.09484 11.2245 6.09484 10.7938 5.71547 10.6736L3.70881 10.0225C3.36938 9.9324 3 10.1227 3 10.4132ZM7 10.4132V11.5551C7 11.8756 7.39934 12.086 7.76872 11.9658L9.71547 11.3447C10.0948 11.2245 10.0948 10.7938 9.71547 10.6736L7.70881 10.0225C7.36938 9.9324 7 10.1227 7 10.4132ZM22 11.5511V10.4067C22 10.113 22.3694 9.92062 22.7088 10.032L24.7155 10.6801C25.0948 10.8017 25.0948 11.227 24.7155 11.3485L22.7687 11.9663C22.3993 12.0878 22 11.865 22 11.5511ZM26 10.4117V11.5547C26 11.8755 26.3993 12.086 26.7687 11.9657L28.7155 11.3541C29.0948 11.2338 29.0948 10.8127 28.7155 10.6824L26.7088 10.0307C26.3694 9.92043 26 10.121 26 10.4117ZM19 10.5C19 10.7755 19.2245 11 19.5 11C19.7755 11 20 10.7755 20 10.5C20 10.2245 19.7755 10 19.5 10C19.2245 10 19 10.2245 19 10.5ZM23.49 9.02002C23.7661 9.02002 23.99 8.79616 23.99 8.52002C23.99 8.24388 23.7661 8.02002 23.49 8.02002C23.2138 8.02002 22.99 8.24388 22.99 8.52002C22.99 8.79616 23.2138 9.02002 23.49 9.02002ZM27.9399 3.53003C27.9399 3.80617 27.7161 4.03003 27.4399 4.03003C27.1638 4.03003 26.9399 3.80617 26.9399 3.53003C26.9399 3.25389 27.1638 3.03003 27.4399 3.03003C27.7161 3.03003 27.9399 3.25389 27.9399 3.53003Z" fill="#F8312F"/>
          <path d="M11.47 5.02002C11.7461 5.02002 11.97 4.79616 11.97 4.52002C11.97 4.24388 11.7461 4.02002 11.47 4.02002C11.1938 4.02002 10.97 4.24388 10.97 4.52002C10.97 4.79616 11.1938 5.02002 11.47 5.02002ZM5.80997 8.83C5.60997 9.03 5.28997 9.03 5.08997 8.83L4.12998 7.87C3.92998 7.67 3.92998 7.35 4.12998 7.15C4.32998 6.95 4.64998 6.95 4.84998 7.15L5.80997 8.11C6.00997 8.31 6.00997 8.63 5.80997 8.83ZM22.07 5.87004C22.27 6.07004 22.59 6.07004 22.79 5.87004C22.99 5.67004 22.99 5.35004 22.79 5.15004L21.83 4.19004C21.63 3.99004 21.31 3.99004 21.11 4.19004C20.91 4.39004 20.91 4.71004 21.11 4.91004L22.07 5.87004Z" fill="#8D65C5"/>
          <path d="M8.88001 4.83C8.68001 5.03 8.36001 5.03 8.16001 4.83C7.96001 4.63 7.96001 4.31 8.16001 4.11L9.12 3.15C9.32 2.95 9.64 2.95 9.84 3.15C10.04 3.35 10.04 3.67 9.84 3.87L8.88001 4.83ZM12 7.5C12 7.77551 12.2244 8 12.4998 8C12.7753 8 13.0099 7.77551 12.9997 7.5C12.9997 7.22449 12.7753 7 12.4998 7C12.2244 7 12 7.22449 12 7.5ZM12.4242 11H13.5755C13.8178 11 14.0097 10.8081 13.9996 10.5758V9.42424C13.9996 9.19192 13.8077 9 13.5755 9H12.4242C12.1919 9 12 9.19192 12 9.42424V10.5758C12 10.8081 12.1919 11 12.4242 11ZM28.47 9C28.7461 9 28.97 8.77614 28.97 8.5C28.97 8.22386 28.7461 8 28.47 8C28.1938 8 27.97 8.22386 27.97 8.5C27.97 8.77614 28.1938 9 28.47 9Z" fill="#FFB02E"/>
          <path d="M25.8099 7.83C25.6099 8.03 25.2899 8.03 25.0899 7.83C24.8999 7.63 24.8999 7.31 25.0899 7.11L26.05 6.15C26.25 5.95 26.57 5.95 26.77 6.15C26.97 6.35 26.97 6.67 26.77 6.87L25.8099 7.83ZM15 7.5C15 7.77551 15.2244 8 15.4998 8C15.7855 8 16.0099 7.77551 15.9997 7.5C15.9997 7.22449 15.7753 7 15.4998 7C15.2244 7 15 7.22449 15 7.5ZM15.4242 11H16.5755C16.8178 11 17.0097 10.811 16.9996 10.5821V9.4479C16.9996 9.21906 16.8077 9.03003 16.5755 9.03003H15.4242C15.1919 9.03003 15 9.21906 15 9.4479V10.5821C15 10.811 15.1919 11 15.4242 11ZM7.48999 8.02002C7.76613 8.02002 7.98999 7.79616 7.98999 7.52002C7.98999 7.24388 7.76613 7.02002 7.48999 7.02002C7.21385 7.02002 6.98999 7.24388 6.98999 7.52002C6.98999 7.79616 7.21385 8.02002 7.48999 8.02002Z" fill="#00D26A"/>
        </g>
      </g>
    </g>
  </g>
</svg>
